<svg xmlns:inkscape="http://www.inkscape.org/namespaces/inkscape" xmlns:sodipodi="http://sodipodi.sourceforge.net/DTD/sodipodi-0.dtd" xmlns:xlink="http://www.w3.org/1999/xlink" xmlns="http://www.w3.org/2000/svg" xmlns:svg="http://www.w3.org/2000/svg" width="302mm" height="302mm" viewBox="0 0 302 302" version="1.1" id="svg5" sodipodi:docname="moon_layout_2025.svg" xml:space="preserve" inkscape:version="1.3.2 (091e20e, 2023-11-25, custom)">
  <g id="layer4" style="display:inline" inkscape:label="big year">
    <path style="font-size:50.8px;line-height:1.25;font-family:'Century Gothic';-inkscape-font-specification:'Century Gothic, Normal';stroke-width:0.264583" d="m 169.8031,146.33121 v 3.47266 h -12.99765 l -1.81074,9.94668 q 2.38125,-0.69453 4.29121,-0.69453 4.98574,0 8.21035,3.34863 3.24941,3.32383 3.24941,8.53281 0,3.59668 -1.66191,6.59805 -1.66192,3.00137 -4.51446,4.61367 -2.82773,1.5875 -6.54843,1.5875 -4.44004,0 -7.49102,-2.70371 -3.05098,-2.72851 -3.64629,-7.04453 h 3.74551 q 0.42168,2.1084 1.41387,3.42305 1.01699,1.31465 2.6789,2.1332 1.68672,0.79375 3.52227,0.79375 3.59668,0 6.17637,-2.72852 2.57968,-2.72851 2.57968,-6.82128 0,-3.6959 -2.33164,-6.00274 -2.33164,-2.30683 -6.22597,-2.30683 -3.22461,0 -7.81348,1.95957 l 3.37344,-18.10743 z" id="text2" aria-label="5"/>
    <path d="m 147.46116,171.86388 h -5.684 q 0.24188,-8.78802 5.84525,-14.4317 5.64368,-5.64368 13.90764,-5.64368 8.18334,0 13.22234,5.28087 5.07931,5.28087 5.07931,12.45641 0,5.039 -2.41872,9.47333 -2.41872,4.394 -9.3927,11.93235 l -14.75419,15.92324 h 27.37185 v 5.72431 h -40.2717 l 22.65535,-24.46939 q 6.89336,-7.3771 8.94927,-10.92456 2.09622,-3.58776 2.09622,-7.53834 0,-4.99869 -3.74901,-8.58646 -3.70871,-3.62808 -9.11052,-3.62808 -5.68399,0 -9.47332,3.78933 -3.74902,3.78933 -4.27307,10.64237 z" id="path86561" style="display:inline;font-size:82.559px;line-height:1.25;font-family:'Century Gothic';-inkscape-font-specification:'Century Gothic, Normal';stroke-width:5.629" transform="matrix(0.62490067,0,0,0.61893389,58.260835,4.841861)"/>
    <path d="m 147.35046,37.25207 h -5.684 q 0.24187,-8.788018 5.84524,-14.4317 5.64368,-5.643681 13.90765,-5.643681 8.18334,0 13.22234,5.280873 5.07931,5.280874 5.07931,12.456412 0,5.039001 -2.41872,9.473322 -2.41872,4.394009 -9.3927,11.932355 l -14.7542,15.923245 h 27.37186 v 5.724305 h -40.2717 l 22.65535,-24.46939 q 6.89336,-7.377098 8.94927,-10.924555 2.09622,-3.587769 2.09622,-7.538346 0,-4.99869 -3.74901,-8.586459 -3.70871,-3.628081 -9.11052,-3.628081 -5.68399,0 -9.47332,3.789329 -3.74902,3.789329 -4.27307,10.642371 z" id="path86564" style="display:inline;font-size:82.559px;line-height:1.25;font-family:'Century Gothic';-inkscape-font-specification:'Century Gothic, Normal';stroke-width:5.629" transform="matrix(0.62490067,0,0,0.61893389,58.260835,4.841861)"/>
  </g>
</svg>
