<svg xmlns:inkscape="http://www.inkscape.org/namespaces/inkscape" xmlns:sodipodi="http://sodipodi.sourceforge.net/DTD/sodipodi-0.dtd" xmlns:xlink="http://www.w3.org/1999/xlink" xmlns="http://www.w3.org/2000/svg" xmlns:svg="http://www.w3.org/2000/svg" width="302mm" height="302mm" viewBox="0 0 302 302" version="1.1" id="svg5" sodipodi:docname="moon_layout_2025.svg" xml:space="preserve" inkscape:version="1.3.2 (091e20e, 2023-11-25, custom)">
  <g inkscape:groupmode="layer" id="layer7" inkscape:label="full_moon_key">
    <g aria-label="Full Moon" id="text46263" style="font-size:3.51316px;line-height:1.25;-inkscape-font-specification:'sans-serif, Normal';stroke-width:0.109807" inkscape:label="full_moon_key">
      <path d="m 147.94132,277.56182 h 1.47183 v 0.29162 h -1.12531 v 0.75478 h 1.01552 v 0.29162 h -1.01552 v 1.22308 h -0.34652 z" id="path64775"/>
      <path d="m 149.72364,279.36471 v -1.16304 h 0.31563 v 1.15104 q 0,0.27275 0.10636,0.40998 0.10635,0.13552 0.31906,0.13552 0.2556,0 0.40312,-0.16297 0.14924,-0.16296 0.14924,-0.44429 v -1.08928 h 0.31564 v 1.92125 h -0.31564 v -0.29505 q -0.11493,0.17498 -0.2676,0.26075 -0.15096,0.084 -0.35166,0.084 -0.33107,0 -0.50261,-0.20585 -0.17154,-0.20585 -0.17154,-0.60211 z m 0.79423,-1.20936 z" id="path64777"/>
      <path d="m 151.98283,277.45375 h 0.31564 v 2.66917 h -0.31564 z" id="path64779"/>
      <path d="m 152.9589,277.45375 h 0.31563 v 2.66917 h -0.31563 z" id="path64781"/>
      <path d="m 155.06542,277.56182 h 0.51634 l 0.65357,1.74285 0.657,-1.74285 h 0.51634 v 2.5611 h -0.33793 v -2.2489 l -0.66044,1.75658 h -0.34822 l -0.66044,-1.75658 v 2.2489 h -0.33622 z" id="path64783"/>
      <path d="m 158.82732,278.42295 q -0.25388,0 -0.40141,0.19899 -0.14752,0.19727 -0.14752,0.54207 0,0.3448 0.14581,0.54379 0.14752,0.19727 0.40312,0.19727 0.25216,0 0.39969,-0.19899 0.14752,-0.19899 0.14752,-0.54207 0,-0.34137 -0.14752,-0.54035 -0.14753,-0.20071 -0.39969,-0.20071 z m 0,-0.2676 q 0.4117,0 0.64671,0.2676 0.23501,0.26761 0.23501,0.74106 0,0.47174 -0.23501,0.74106 -0.23501,0.2676 -0.64671,0.2676 -0.41342,0 -0.64843,-0.2676 -0.23329,-0.26932 -0.23329,-0.74106 0,-0.47345 0.23329,-0.74106 0.23501,-0.2676 0.64843,-0.2676 z" id="path64785"/>
      <path d="m 160.97673,278.42295 q -0.25388,0 -0.40141,0.19899 -0.14753,0.19727 -0.14753,0.54207 0,0.3448 0.14581,0.54379 0.14753,0.19727 0.40313,0.19727 0.25216,0 0.39969,-0.19899 0.14752,-0.19899 0.14752,-0.54207 0,-0.34137 -0.14752,-0.54035 -0.14753,-0.20071 -0.39969,-0.20071 z m 0,-0.2676 q 0.41169,0 0.64671,0.2676 0.23501,0.26761 0.23501,0.74106 0,0.47174 -0.23501,0.74106 -0.23502,0.2676 -0.64671,0.2676 -0.41342,0 -0.64843,-0.2676 -0.23329,-0.26932 -0.23329,-0.74106 0,-0.47345 0.23329,-0.74106 0.23501,-0.2676 0.64843,-0.2676 z" id="path64787"/>
      <path d="m 163.97869,278.96331 v 1.15961 h -0.31563 v -1.14932 q 0,-0.27275 -0.10636,-0.40827 -0.10635,-0.13552 -0.31906,-0.13552 -0.2556,0 -0.40312,0.16297 -0.14753,0.16296 -0.14753,0.44429 v 1.08585 h -0.31735 v -1.92125 h 0.31735 v 0.29848 q 0.11322,-0.17326 0.26589,-0.25903 0.15439,-0.0858 0.35509,-0.0858 0.33107,0 0.5009,0.20585 0.16982,0.20413 0.16982,0.60211 z" id="path64789"/>
    </g>
  </g>
</svg>
