<svg xmlns:inkscape="http://www.inkscape.org/namespaces/inkscape" xmlns:sodipodi="http://sodipodi.sourceforge.net/DTD/sodipodi-0.dtd" xmlns:xlink="http://www.w3.org/1999/xlink" xmlns="http://www.w3.org/2000/svg" xmlns:svg="http://www.w3.org/2000/svg" width="302mm" height="302mm" viewBox="0 0 302 302" version="1.1" id="svg5" sodipodi:docname="moon_layout_2025.svg" xml:space="preserve" inkscape:version="1.3.2 (091e20e, 2023-11-25, custom)">
  <g inkscape:groupmode="layer" id="layer6" inkscape:label="Full Moon">
    <path id="path90120" style="fill:none;stroke:#000000;stroke-width:0.191" d="m 26.934681,133.29449 c -1.730601,0.84311 -0.848876,0.78958 -2.668767,0.16203 -1.81989,-0.62755 -1.158562,-0.0419 -2.001676,-1.77253 -0.843113,-1.7306 -0.78958,-0.84887 -0.162031,-2.66876 0.627548,-1.81989 0.04193,-1.15857 1.772528,-2.00168 1.730601,-0.84311 0.848877,-0.78958 2.668768,-0.16203 1.819889,0.62755 1.158562,0.0419 2.001676,1.77253 0.843113,1.7306 0.78958,0.84887 0.162031,2.66876 -0.627548,1.81989 -0.04193,1.15857 -1.772529,2.00168 z"/>
    <path id="path90120-3" style="fill:none;stroke:#000000;stroke-width:0.191" d="m 36.04639,124.40563 c -1.730601,0.84311 -0.848876,0.78958 -2.668767,0.16203 -1.81989,-0.62755 -1.158562,-0.0419 -2.001676,-1.77253 -0.843113,-1.7306 -0.78958,-0.84887 -0.162031,-2.66876 0.627548,-1.81989 0.04193,-1.15857 1.772528,-2.00168 1.730601,-0.84311 0.848877,-0.78958 2.668768,-0.16203 1.819889,0.62755 1.158562,0.0419 2.001676,1.77253 0.843113,1.7306 0.78958,0.84887 0.162031,2.66876 -0.627548,1.81989 -0.04193,1.15857 -1.772529,2.00168 z"/>
    <path id="path90120-3-6" style="display:inline;fill:none;stroke:#000000;stroke-width:0.134368" d="m 142.87569,281.0225 c -1.21748,0.59312 -0.59719,0.55546 -1.87747,0.11398 -1.28029,-0.44148 -0.81505,-0.0295 -1.40818,-1.24696 -0.59312,-1.21748 -0.55546,-0.59718 -0.11399,-1.87747 0.44148,-1.28028 0.0295,-0.81505 1.24697,-1.40817 1.21747,-0.59313 0.59719,-0.55547 1.87747,-0.11399 1.28029,0.44148 0.81505,0.0295 1.40817,1.24697 0.59313,1.21747 0.55547,0.59718 0.11399,1.87746 -0.44147,1.28029 -0.0295,0.81505 -1.24696,1.40818 z"/>
    <path id="path90120-5" style="fill:none;stroke:#000000;stroke-width:0.191" d="m 44.981219,142.21133 c -1.730601,0.84311 -0.848876,0.78958 -2.668767,0.16203 -1.81989,-0.62755 -1.158562,-0.0419 -2.001676,-1.77253 -0.843113,-1.7306 -0.78958,-0.84887 -0.162031,-2.66876 0.627548,-1.81989 0.04193,-1.15857 1.772528,-2.00168 1.730601,-0.84311 0.848877,-0.78958 2.668768,-0.16203 1.819889,0.62755 1.158562,0.0419 2.001676,1.77253 0.843113,1.7306 0.78958,0.84887 0.162031,2.66876 -0.627548,1.81989 -0.04193,1.15857 -1.772529,2.00168 z"/>
    <path id="path90120-2" style="fill:none;stroke:#000000;stroke-width:0.191" d="m 53.944356,124.30398 c -1.730601,0.84311 -0.848876,0.78958 -2.668767,0.16203 -1.81989,-0.62755 -1.158562,-0.0419 -2.001676,-1.77253 -0.843113,-1.7306 -0.78958,-0.84887 -0.162031,-2.66876 0.627548,-1.81989 0.04193,-1.15857 1.772528,-2.00168 1.730601,-0.84311 0.848877,-0.78958 2.668768,-0.16203 1.819889,0.62755 1.158562,0.0419 2.001676,1.77253 0.843113,1.7306 0.78958,0.84887 0.162031,2.66876 -0.627548,1.81989 -0.04193,1.15857 -1.772529,2.00168 z"/>
    <path id="path90120-33" style="fill:none;stroke:#000000;stroke-width:0.191" d="m 62.846657,118.02304 c -1.730601,-0.84311 -0.848876,-0.78958 -2.668767,-0.16203 -1.81989,0.62755 -1.158562,0.0419 -2.001676,1.77253 -0.843113,1.7306 -0.78958,0.84887 -0.162031,2.66876 0.627548,1.81989 0.04193,1.15857 1.772528,2.00168 1.730601,0.84311 0.848877,0.78958 2.668768,0.16203 1.819889,-0.62755 1.158562,-0.0419 2.001676,-1.77253 0.843113,-1.7306 0.78958,-0.84887 0.162031,-2.66876 -0.627548,-1.81989 -0.04193,-1.15857 -1.772529,-2.00168 z"/>
    <path id="path90120-6" style="fill:none;stroke:#000000;stroke-width:0.191" d="m 71.785033,115.37285 c -1.730601,0.84311 -0.848876,0.78958 -2.668767,0.16203 -1.81989,-0.62755 -1.158562,-0.0419 -2.001676,-1.77253 -0.843113,-1.7306 -0.78958,-0.84887 -0.162031,-2.66876 0.627548,-1.81989 0.04193,-1.15857 1.772528,-2.00168 1.730601,-0.84311 0.848877,-0.78958 2.668768,-0.16203 1.819889,0.62755 1.158562,0.0419 2.001676,1.77253 0.843113,1.7306 0.78958,0.84887 0.162031,2.66876 -0.627548,1.81989 -0.04193,1.15857 -1.772529,2.00168 z"/>
    <path id="path90120-7" style="fill:none;stroke:#000000;stroke-width:0.191" d="m 80.716317,106.44631 c -1.730601,0.84311 -0.848876,0.78958 -2.668767,0.16203 -1.81989,-0.62755 -1.158562,-0.0419 -2.001676,-1.77253 -0.843113,-1.7306 -0.78958,-0.84887 -0.162031,-2.66876 0.627548,-1.81989 0.04193,-1.15857 1.772528,-2.00168 1.730601,-0.843107 0.848877,-0.789577 2.668768,-0.16203 1.819889,0.62755 1.158562,0.0419 2.001676,1.77253 0.843113,1.7306 0.78958,0.84887 0.162031,2.66876 -0.627548,1.81989 -0.04193,1.15857 -1.772529,2.00168 z"/>
    <path id="path90120-32" style="fill:none;stroke:#000000;stroke-width:0.191" d="m 89.696443,97.491876 c -1.730601,0.84311 -0.848876,0.78958 -2.668767,0.16203 -1.81989,-0.62755 -1.158562,-0.0419 -2.001676,-1.77253 -0.843113,-1.7306 -0.78958,-0.84887 -0.162031,-2.66876 0.627548,-1.81989 0.04193,-1.15857 1.772528,-2.00168 1.730601,-0.84311 0.848877,-0.78958 2.668768,-0.16203 1.819889,0.62755 1.158562,0.0419 2.001676,1.77253 0.843113,1.7306 0.78958,0.84887 0.162031,2.66876 -0.627548,1.81989 -0.04193,1.15857 -1.772529,2.00168 z"/>
    <path id="path90120-1" style="fill:none;stroke:#000000;stroke-width:0.191" d="m 107.5918,70.669454 c -1.7306,0.84311 -0.84887,0.78958 -2.66876,0.16203 -1.81989,-0.62755 -1.15856,-0.0419 -2.00168,-1.77253 -0.84311,-1.7306 -0.78958,-0.84887 -0.16203,-2.66876 0.62755,-1.81989 0.0419,-1.15857 1.77253,-2.00168 1.7306,-0.84311 0.84888,-0.78958 2.66877,-0.16203 1.81989,0.62755 1.15856,0.0419 2.00167,1.77253 0.84312,1.7306 0.78958,0.84887 0.16203,2.66876 -0.62754,1.81989 -0.0419,1.15857 -1.77253,2.00168 z"/>
    <path id="path90120-1-7" style="fill:none;stroke:#000000;stroke-width:0.191" d="m 98.643263,79.626436 c -1.73061,0.84311 -0.84888,0.78958 -2.66877,0.16203 -1.81989,-0.62755 -1.15856,-0.0419 -2.00168,-1.77253 -0.84311,-1.7306 -0.78958,-0.84887 -0.16203,-2.66876 0.62755,-1.81989 0.0419,-1.15857 1.77253,-2.00168 1.7306,-0.84311 0.84888,-0.78958 2.66877,-0.16203 1.819887,0.62755 1.158564,0.0419 2.001667,1.77253 0.84312,1.7306 0.78958,0.84887 0.16203,2.66876 -0.627533,1.81989 -0.0419,1.15857 -1.772517,2.00168 z"/>
    <path id="path90120-1-7-5" style="fill:none;stroke:#000000;stroke-width:0.191" d="m 116.55026,61.714822 c -1.73061,0.84311 -0.84888,0.78958 -2.66877,0.16203 -1.81989,-0.62755 -1.15856,-0.0419 -2.00168,-1.77253 -0.84311,-1.7306 -0.78958,-0.84887 -0.16203,-2.66876 0.62755,-1.81989 0.0419,-1.15857 1.77253,-2.00168 1.7306,-0.84311 0.84888,-0.78958 2.66877,-0.16203 1.81989,0.62755 1.15856,0.0419 2.00167,1.77253 0.84312,1.7306 0.78958,0.84887 0.16203,2.66876 -0.62754,1.81989 -0.0419,1.15857 -1.77252,2.00168 z"/>
    <path id="path90120-1-7-5-2" style="fill:none;stroke:#000000;stroke-width:0.191" d="m 125.4502,52.788478 c -1.73061,0.84311 -0.84888,0.78958 -2.66877,0.16203 -1.81989,-0.62755 -1.15856,-0.0419 -2.00168,-1.77253 -0.84311,-1.7306 -0.78958,-0.84887 -0.16203,-2.66876 0.62755,-1.81989 0.0419,-1.15857 1.77253,-2.00168 1.7306,-0.84311 0.84888,-0.78958 2.66877,-0.16203 1.81989,0.62755 1.15856,0.0419 2.00167,1.77253 0.84312,1.7306 0.78958,0.84887 0.16203,2.66876 -0.62754,1.81989 -0.0419,1.15857 -1.77252,2.00168 z"/>
  </g>
</svg>
