<svg xmlns:inkscape="http://www.inkscape.org/namespaces/inkscape" xmlns:sodipodi="http://sodipodi.sourceforge.net/DTD/sodipodi-0.dtd" xmlns:xlink="http://www.w3.org/1999/xlink" xmlns="http://www.w3.org/2000/svg" xmlns:svg="http://www.w3.org/2000/svg" width="302mm" height="302mm" viewBox="0 0 302 302" version="1.1" id="svg5" sodipodi:docname="moon_layout_2025.svg" xml:space="preserve" inkscape:version="1.3.2 (091e20e, 2023-11-25, custom)">
  <g inkscape:groupmode="layer" id="layer1" inkscape:label="New Moon">
    <path id="path87253" style="fill:none;stroke:#000000;stroke-width:0.691261" d="m 29.027155,273.44139 a 3.6231198,3.6231198 0 0 1 -3.623119,3.62312 3.6231198,3.6231198 0 0 1 -3.62312,-3.62312 3.6231198,3.6231198 0 0 1 3.62312,-3.62312 3.6231198,3.6231198 0 0 1 3.623119,3.62312 z"/>
    <path id="path87253-7" style="fill:none;stroke:#000000;stroke-width:0.691261" d="m 37.98793,255.46275 a 3.6231198,3.6231198 0 0 1 -3.62312,3.62312 3.6231198,3.6231198 0 0 1 -3.62312,-3.62312 3.6231198,3.6231198 0 0 1 3.62312,-3.62312 3.6231198,3.6231198 0 0 1 3.62312,3.62312 z"/>
    <path id="path87253-7-1" style="fill:none;stroke:#000000;stroke-width:0.691261" d="m 47.027121,273.23886 a 3.6231198,3.6231198 0 0 1 -3.623119,3.62312 3.6231198,3.6231198 0 0 1 -3.62312,-3.62312 3.6231198,3.6231198 0 0 1 3.62312,-3.62312 3.6231198,3.6231198 0 0 1 3.623119,3.62312 z"/>
    <path id="path87253-7-1-3" style="display:inline;fill:none;stroke:#000000;stroke-width:0.4863" d="m 144.3482,286.32249 a 2.5488515,2.5488515 0 0 1 -2.54885,2.54885 2.5488515,2.5488515 0 0 1 -2.54885,-2.54885 2.5488515,2.5488515 0 0 1 2.54885,-2.54885 2.5488515,2.5488515 0 0 1 2.54885,2.54885 z"/>
    <path id="path87253-7-3" style="fill:none;stroke:#000000;stroke-width:0.691261" d="m 55.941749,255.39177 a 3.6231198,3.6231198 0 0 1 -3.62312,3.62312 3.6231198,3.6231198 0 0 1 -3.62312,-3.62312 3.6231198,3.6231198 0 0 1 3.62312,-3.62312 3.6231198,3.6231198 0 0 1 3.62312,3.62312 z"/>
    <path id="path87253-7-8" style="fill:none;stroke:#000000;stroke-width:0.691261" d="m 64.768872,246.43688 a 3.6231198,3.6231198 0 0 1 -3.62312,3.62312 3.6231198,3.6231198 0 0 1 -3.62312,-3.62312 3.6231198,3.6231198 0 0 1 3.62312,-3.62312 3.6231198,3.6231198 0 0 1 3.62312,3.62312 z"/>
    <path id="path87253-7-4" style="fill:none;stroke:#000000;stroke-width:0.691261" d="m 73.969186,237.66232 a 3.6231198,3.6231198 0 0 1 -3.62312,3.62312 3.6231198,3.6231198 0 0 1 -3.62312,-3.62312 3.6231198,3.6231198 0 0 1 3.62312,-3.62312 3.6231198,3.6231198 0 0 1 3.62312,3.62312 z"/>
    <path id="path87253-7-34" style="fill:none;stroke:#000000;stroke-width:0.691261" d="m 82.67548,228.68869 a 3.6231198,3.6231198 0 0 1 -3.623119,3.62312 3.6231198,3.6231198 0 0 1 -3.62312,-3.62312 3.6231198,3.6231198 0 0 1 3.62312,-3.62312 3.6231198,3.6231198 0 0 1 3.623119,3.62312 z"/>
    <path id="path87253-7-5" style="fill:none;stroke:#000000;stroke-width:0.691261" d="m 91.814019,219.7099 a 3.6231198,3.6231198 0 0 1 -3.62312,3.62312 3.6231198,3.6231198 0 0 1 -3.623119,-3.62312 3.6231198,3.6231198 0 0 1 3.623119,-3.62312 3.6231198,3.6231198 0 0 1 3.62312,3.62312 z"/>
    <path id="path87253-7-0" style="fill:none;stroke:#000000;stroke-width:0.691261" d="m 100.75802,201.83843 a 3.6231198,3.6231198 0 0 1 -3.623119,3.62312 3.6231198,3.6231198 0 0 1 -3.62312,-3.62312 3.6231198,3.6231198 0 0 1 3.62312,-3.62312 3.6231198,3.6231198 0 0 1 3.623119,3.62312 z"/>
    <path id="path87253-7-04" style="fill:none;stroke:#000000;stroke-width:0.691261" d="m 109.675,201.83665 a 3.6231198,3.6231198 0 0 1 -3.62312,3.62312 3.6231198,3.6231198 0 0 1 -3.62312,-3.62312 3.6231198,3.6231198 0 0 1 3.62312,-3.62312 3.6231198,3.6231198 0 0 1 3.62312,3.62312 z"/>
    <path id="path87253-7-80" style="fill:none;stroke:#000000;stroke-width:0.691261" d="m 118.751,192.8388 a 3.6231198,3.6231198 0 0 1 -3.62312,3.62312 3.6231198,3.6231198 0 0 1 -3.62312,-3.62312 3.6231198,3.6231198 0 0 1 3.62312,-3.62312 3.6231198,3.6231198 0 0 1 3.62312,3.62312 z"/>
    <path id="path87253-7-2" style="fill:none;stroke:#000000;stroke-width:0.691261" d="m 127.73617,183.79498 a 3.6231198,3.6231198 0 0 1 -3.62312,3.62312 3.6231198,3.6231198 0 0 1 -3.62312,-3.62312 3.6231198,3.6231198 0 0 1 3.62312,-3.62312 3.6231198,3.6231198 0 0 1 3.62312,3.62312 z"/>
    <path id="path87253-7-9" style="fill:none;stroke:#000000;stroke-width:0.691261" d="m 127.46811,282.15628 a 3.6231198,3.6231198 0 0 1 -3.62312,3.62312 3.6231198,3.6231198 0 0 1 -3.62312,-3.62312 3.6231198,3.6231198 0 0 1 3.62312,-3.62312 3.6231198,3.6231198 0 0 1 3.62312,3.62312 z"/>
  </g>
</svg>
