<svg xmlns:inkscape="http://www.inkscape.org/namespaces/inkscape" xmlns:sodipodi="http://sodipodi.sourceforge.net/DTD/sodipodi-0.dtd" xmlns:xlink="http://www.w3.org/1999/xlink" xmlns="http://www.w3.org/2000/svg" xmlns:svg="http://www.w3.org/2000/svg" width="302mm" height="302mm" viewBox="0 0 302 302" version="1.1" id="svg5" sodipodi:docname="moon_layout_2025.svg" xml:space="preserve" inkscape:version="1.3.2 (091e20e, 2023-11-25, custom)">
  <g inkscape:groupmode="layer" id="layer8" inkscape:label="new_moon_key">
    <g aria-label="New moon" id="text40331" style="font-size:3.51315px;line-height:1.25;stroke-width:0.0878287" inkscape:label="new_moon_key">
      <path d="m 147.94132,285.01709 h 0.46659 l 1.1356,2.14254 v -2.14254 h 0.33622 v 2.5611 h -0.46659 l -1.1356,-2.14255 v 2.14255 h -0.33622 z" id="path64792"/>
      <path d="m 152.19896,286.53865 v 0.15439 h -1.45123 q 0.0206,0.32592 0.19555,0.49746 0.17669,0.16983 0.49061,0.16983 0.18183,0 0.35166,-0.0446 0.17154,-0.0446 0.33965,-0.1338 v 0.29848 q -0.16983,0.072 -0.34823,0.10978 -0.1784,0.0377 -0.36195,0.0377 -0.45973,0 -0.72905,-0.2676 -0.2676,-0.2676 -0.2676,-0.7239 0,-0.47174 0.25388,-0.74792 0.25559,-0.27789 0.68788,-0.27789 0.38768,0 0.6124,0.25045 0.22643,0.24873 0.22643,0.67758 z m -0.31564,-0.0926 q -0.003,-0.25903 -0.1458,-0.41341 -0.14067,-0.15439 -0.37396,-0.15439 -0.26418,0 -0.42371,0.14924 -0.15782,0.14924 -0.18183,0.42027 z" id="path64794"/>
      <path d="m 152.53346,285.65693 h 0.31564 l 0.39454,1.49927 0.39283,-1.49927 h 0.37224 l 0.39455,1.49927 0.39282,-1.49927 h 0.31564 l -0.50262,1.92126 h -0.37224 l -0.41341,-1.57475 -0.41513,1.57475 h -0.37224 z" id="path64796"/>
      <path d="m 158.20288,286.02574 q 0.11836,-0.21271 0.28304,-0.31391 0.16468,-0.10121 0.38768,-0.10121 0.3002,0 0.46316,0.21099 0.16296,0.20928 0.16296,0.59696 v 1.15962 h -0.31735 v -1.14933 q 0,-0.27618 -0.0978,-0.40998 -0.0978,-0.1338 -0.29848,-0.1338 -0.24531,0 -0.38769,0.16296 -0.14237,0.16297 -0.14237,0.44429 v 1.08586 h -0.31735 v -1.14933 q 0,-0.27789 -0.0978,-0.40998 -0.0978,-0.1338 -0.30191,-0.1338 -0.24188,0 -0.38426,0.16468 -0.14237,0.16296 -0.14237,0.44257 v 1.08586 h -0.31735 v -1.92126 h 0.31735 v 0.29848 q 0.10807,-0.17668 0.25902,-0.26074 0.15096,-0.084 0.35852,-0.084 0.20928,0 0.35509,0.10635 0.14753,0.10636 0.21786,0.30877 z" id="path64798"/>
      <path d="m 160.87376,285.87822 q -0.25388,0 -0.4014,0.19899 -0.14753,0.19727 -0.14753,0.54206 0,0.3448 0.14581,0.54379 0.14753,0.19727 0.40312,0.19727 0.25217,0 0.39969,-0.19899 0.14753,-0.19898 0.14753,-0.54207 0,-0.34136 -0.14753,-0.54035 -0.14752,-0.2007 -0.39969,-0.2007 z m 0,-0.2676 q 0.4117,0 0.64671,0.2676 0.23501,0.2676 0.23501,0.74105 0,0.47174 -0.23501,0.74106 -0.23501,0.2676 -0.64671,0.2676 -0.41341,0 -0.64842,-0.2676 -0.23329,-0.26932 -0.23329,-0.74106 0,-0.47345 0.23329,-0.74105 0.23501,-0.2676 0.64842,-0.2676 z" id="path64800"/>
      <path d="m 163.02317,285.87822 q -0.25388,0 -0.40141,0.19899 -0.14752,0.19727 -0.14752,0.54206 0,0.3448 0.14581,0.54379 0.14752,0.19727 0.40312,0.19727 0.25216,0 0.39969,-0.19899 0.14752,-0.19898 0.14752,-0.54207 0,-0.34136 -0.14752,-0.54035 -0.14753,-0.2007 -0.39969,-0.2007 z m 0,-0.2676 q 0.41169,0 0.6467,0.2676 0.23502,0.2676 0.23502,0.74105 0,0.47174 -0.23502,0.74106 -0.23501,0.2676 -0.6467,0.2676 -0.41342,0 -0.64843,-0.2676 -0.23329,-0.26932 -0.23329,-0.74106 0,-0.47345 0.23329,-0.74105 0.23501,-0.2676 0.64843,-0.2676 z" id="path64802"/>
      <path d="m 166.02513,286.41857 v 1.15962 h -0.31564 v -1.14933 q 0,-0.27274 -0.10635,-0.40826 -0.10636,-0.13552 -0.31907,-0.13552 -0.25559,0 -0.40312,0.16296 -0.14752,0.16297 -0.14752,0.44429 v 1.08586 h -0.31735 v -1.92126 h 0.31735 v 0.29848 q 0.11321,-0.17325 0.26588,-0.25902 0.15439,-0.0858 0.35509,-0.0858 0.33108,0 0.5009,0.20584 0.16983,0.20414 0.16983,0.60211 z" id="path64804"/>
    </g>
  </g>
</svg>
