<svg xmlns:xlink="http://www.w3.org/1999/xlink" xmlns="http://www.w3.org/2000/svg" xmlns:svg="http://www.w3.org/2000/svg" width="302mm" height="302mm" viewBox="0 0 302 302" version="1.1" id="svg5"><g id="layer4" style="display:inline">
    <g aria-label="2" id="text70756" style="font-size:82.559px;line-height:1.25;font-family:'Century Gothic';-inkscape-font-specification:'Century Gothic, Normal';stroke-width:5.629" transform="matrix(0.62490066,0,0,0.61893388,58.260835,4.8418611)">
      <path d="m 147.35046,37.25207 h -5.684 q 0.24187,-8.788018 5.84524,-14.4317 5.64368,-5.643681 13.90765,-5.643681 8.18334,0 13.22234,5.280873 5.07931,5.280874 5.07931,12.456412 0,5.039001 -2.41872,9.473322 -2.41872,4.394009 -9.3927,11.932355 l -14.7542,15.923245 h 27.37186 v 5.724305 h -40.2717 l 22.65535,-24.46939 q 6.89336,-7.377098 8.94927,-10.924555 2.09622,-3.587769 2.09622,-7.538346 0,-4.99869 -3.74901,-8.586459 -3.70871,-3.628081 -9.11052,-3.628081 -5.68399,0 -9.47332,3.789329 -3.74902,3.789329 -4.27307,10.642371 z" id="path86564"/>
    </g>
    <g aria-label="2" id="text70756-0" style="font-size:82.559px;line-height:1.25;font-family:'Century Gothic';-inkscape-font-specification:'Century Gothic, Normal';stroke-width:5.629" transform="matrix(0.62490066,0,0,0.61893388,58.260835,4.8418611)">
      <path d="m 147.46116,171.86388 h -5.684 q 0.24188,-8.78802 5.84525,-14.4317 5.64368,-5.64368 13.90764,-5.64368 8.18334,0 13.22234,5.28087 5.07931,5.28087 5.07931,12.45641 0,5.039 -2.41872,9.47333 -2.41872,4.394 -9.3927,11.93235 l -14.75419,15.92324 h 27.37185 v 5.72431 h -40.2717 l 22.65535,-24.46939 q 6.89336,-7.3771 8.94927,-10.92456 2.09622,-3.58776 2.09622,-7.53834 0,-4.99869 -3.74901,-8.58646 -3.70871,-3.62808 -9.11052,-3.62808 -5.68399,0 -9.47332,3.78933 -3.74902,3.78933 -4.27307,10.64237 z" id="path86561"/>
    </g>
    <g aria-label="4" id="text70756-0-2" style="font-size:82.559px;line-height:1.25;font-family:'Century Gothic';-inkscape-font-specification:'Century Gothic, Normal';stroke-width:5.629" transform="matrix(0.62490066,0,0,0.61893388,58.260835,4.8418611)">
      <path d="m 174.60624,230.99217 h 1.20936 v 41.31981 h 7.17553 v 5.684 h -7.17553 v 13.7867 h -5.92587 v -13.7867 h -28.33934 z m -4.71651,41.31981 v -24.71126 l -17.4551,24.71126 z" id="path86567"/>
    </g>
  </g>
  </svg>
