<svg xmlns:xlink="http://www.w3.org/1999/xlink" xmlns="http://www.w3.org/2000/svg" xmlns:svg="http://www.w3.org/2000/svg" width="302mm" height="302mm" viewBox="0 0 302 302" version="1.1" id="svg5"><g id="layer3" style="display:inline">
    <g aria-label="1" id="text18196" style="font-size:3.88056px;line-height:1.25;font-family:'Century Gothic';-inkscape-font-specification:'Century Gothic, Normal';stroke-width:0.264583">
      <path d="m 19.779105,21.584092 h 0.547599 v 2.787257 h -0.276642 v -2.514405 h -0.4377 z" id="path72004"/>
    </g>
    <g aria-label="2" id="text18948" style="font-size:3.88056px;line-height:1.25;font-family:'Century Gothic';-inkscape-font-specification:'Century Gothic, Normal';stroke-width:0.264583">
      <path d="m 18.767281,31.435696 h -0.267167 q 0.01137,-0.413067 0.274746,-0.67834 0.265273,-0.265272 0.653708,-0.265272 0.384645,0 0.621496,0.248219 0.238745,0.24822 0.238745,0.585495 0,0.23685 -0.113688,0.445279 -0.113688,0.206534 -0.441489,0.560862 l -0.693499,0.748448 h 1.286572 v 0.269062 h -1.892909 l 1.06488,-1.150146 q 0.324011,-0.34675 0.420646,-0.513492 0.09853,-0.168638 0.09853,-0.354329 0,-0.234956 -0.176217,-0.403593 -0.174322,-0.170533 -0.428225,-0.170533 -0.267168,0 -0.445279,0.178112 -0.176217,0.178112 -0.20085,0.500228 z" id="path72007"/>
    </g>
    <g aria-label="3" id="text19546" style="font-size:3.88056px;line-height:1.25;font-family:'Century Gothic';-inkscape-font-specification:'Century Gothic, Normal';stroke-width:0.264583">
      <path d="m 18.839282,40.116309 h -0.28422 q 0.07769,-0.344854 0.297484,-0.530545 0.219797,-0.185691 0.519177,-0.185691 0.217902,0 0.405488,0.100425 0.18948,0.09853 0.2918,0.267167 0.104214,0.168638 0.104214,0.352434 0,0.360013 -0.358118,0.570336 0.200849,0.08148 0.329696,0.238746 0.181901,0.221692 0.181901,0.496438 0,0.236851 -0.125057,0.452859 -0.125057,0.214113 -0.341065,0.331591 -0.216008,0.117477 -0.483175,0.117477 -0.360013,0 -0.600653,-0.206533 -0.24064,-0.208429 -0.314538,-0.610127 h 0.272852 q 0.072,0.270957 0.206534,0.392224 0.172427,0.153479 0.439595,0.153479 0.303168,0 0.486964,-0.181901 0.183796,-0.181901 0.183796,-0.426331 0,-0.162953 -0.09285,-0.305063 -0.09095,-0.142111 -0.246325,-0.214113 -0.153479,-0.072 -0.47749,-0.08906 v -0.255799 q 0.191375,0 0.348644,-0.06632 0.157268,-0.06821 0.227376,-0.172427 0.072,-0.104214 0.072,-0.227377 0,-0.181901 -0.1459,-0.314537 -0.144005,-0.132637 -0.365697,-0.132637 -0.180007,0 -0.310748,0.10232 -0.130742,0.100424 -0.221693,0.342959 z" id="path72010"/>
    </g>
    <g aria-label="4" id="text20364" style="font-size:3.88056px;line-height:1.25;font-family:'Century Gothic';-inkscape-font-specification:'Century Gothic, Normal';stroke-width:0.264583">
      <path d="m 19.932585,48.378173 h 0.05684 v 1.942175 H 20.3267 v 0.267167 h -0.337275 v 0.648023 h -0.278536 v -0.648023 h -1.332048 z m -0.221692,1.942175 v -1.161515 l -0.820451,1.161515 z" id="path72013"/>
    </g>
    <g aria-label="5" id="text23162" style="font-size:3.88056px;line-height:1.25;font-family:'Century Gothic';-inkscape-font-specification:'Century Gothic, Normal';stroke-width:0.264583">
      <path d="m 20.254702,57.321221 v 0.265273 h -0.992877 l -0.138321,0.759816 q 0.181901,-0.05305 0.327801,-0.05305 0.380856,0 0.62718,0.255798 0.24822,0.253904 0.24822,0.651813 0,0.274747 -0.126952,0.504018 -0.126952,0.229272 -0.344855,0.352434 -0.216007,0.121267 -0.500228,0.121267 -0.33917,0 -0.572231,-0.206533 -0.233061,-0.208429 -0.278536,-0.538125 h 0.286115 q 0.03221,0.161058 0.108004,0.261483 0.07769,0.100425 0.204639,0.162953 0.128847,0.06063 0.269062,0.06063 0.274747,0 0.471807,-0.208428 0.197059,-0.208429 0.197059,-0.521072 0,-0.282326 -0.178111,-0.458542 -0.178112,-0.176217 -0.475596,-0.176217 -0.246325,0 -0.596864,0.149689 l 0.257694,-1.383207 z" id="path72016"/>
    </g>
    <g aria-label="6" id="text25256" style="font-size:3.88056px;line-height:1.25;font-family:'Century Gothic';-inkscape-font-specification:'Century Gothic, Normal';stroke-width:0.264583">
      <path d="m 19.771526,66.229213 0.229272,0.14969 -0.752238,1.140672 q 0.151584,-0.05116 0.284221,-0.05116 0.331591,0 0.562757,0.24064 0.231166,0.238746 0.231166,0.589285 0,0.24064 -0.111794,0.435805 -0.111793,0.19327 -0.318327,0.308853 -0.204639,0.113688 -0.441489,0.113688 -0.229272,0 -0.426331,-0.109899 -0.195165,-0.111793 -0.306959,-0.312642 -0.111793,-0.20085 -0.111793,-0.430121 0,-0.170532 0.06821,-0.358118 0.07011,-0.18948 0.248219,-0.454753 z m -0.305063,1.483632 q -0.242535,0 -0.414963,0.172427 -0.170532,0.170533 -0.170532,0.414962 0,0.242535 0.170532,0.414963 0.172428,0.170532 0.414963,0.170532 0.242535,0 0.413067,-0.170532 0.172427,-0.172428 0.172427,-0.414963 0,-0.244429 -0.172427,-0.414962 -0.170532,-0.172427 -0.413067,-0.172427 z" id="path72019"/>
    </g>
    <g aria-label="7" id="text26382" style="font-size:3.88056px;line-height:1.25;font-family:'Century Gothic';-inkscape-font-specification:'Century Gothic, Normal';stroke-width:0.264583">
      <path d="m 18.558852,75.20731 h 1.767852 l -1.491211,2.857366 -0.229271,-0.117478 1.288467,-2.47651 h -1.335837 z" id="path72022"/>
    </g>
    <g aria-label="8" id="text26936" style="font-size:3.88056px;line-height:1.25;font-family:'Century Gothic';-inkscape-font-specification:'Century Gothic, Normal';stroke-width:0.264583">
      <path d="m 19.799948,85.443557 q 0.282326,0.140215 0.403593,0.320222 0.123163,0.180006 0.123163,0.409277 0,0.322117 -0.210324,0.568442 -0.257693,0.301274 -0.737079,0.301274 -0.462332,0 -0.701077,-0.263378 -0.238746,-0.265273 -0.238746,-0.5836 0,-0.233061 0.125057,-0.418752 0.125058,-0.187586 0.416857,-0.333485 -0.204638,-0.10611 -0.306958,-0.263378 -0.102319,-0.157269 -0.102319,-0.337276 0,-0.181901 0.108004,-0.354328 0.109898,-0.174322 0.301273,-0.272852 0.193271,-0.100425 0.416857,-0.100425 0.217903,0 0.403594,0.100425 0.185691,0.100425 0.289905,0.272852 0.106109,0.172427 0.106109,0.361908 0,0.18948 -0.100425,0.337275 -0.09853,0.147795 -0.297484,0.255799 z m -0.414962,-1.057301 q -0.229272,0 -0.380856,0.136425 -0.149689,0.134532 -0.149689,0.322117 0,0.185691 0.161058,0.337275 0.162953,0.14969 0.378961,0.14969 0.138321,0 0.261483,-0.06821 0.123162,-0.06821 0.191375,-0.185691 0.07011,-0.119372 0.07011,-0.238745 0,-0.168638 -0.136426,-0.310748 -0.136426,-0.14211 -0.396014,-0.14211 z m 0.01326,1.197516 q -0.28801,0 -0.483175,0.187586 -0.195165,0.185691 -0.195165,0.43391 0,0.153479 0.08337,0.289905 0.08337,0.136426 0.233061,0.210323 0.149689,0.0739 0.346749,0.0739 0.305064,0 0.48507,-0.180007 0.180006,-0.180006 0.180006,-0.420646 0,-0.233061 -0.191375,-0.413068 -0.18948,-0.181901 -0.458543,-0.181901 z" id="path72025"/>
    </g>
    <g aria-label="9" id="text27666" style="font-size:3.88056px;line-height:1.25;font-family:'Century Gothic';-inkscape-font-specification:'Century Gothic, Normal';stroke-width:0.264583">
      <path d="m 19.165189,95.985826 -0.229272,-0.147795 0.752238,-1.140672 q -0.151585,0.04926 -0.284221,0.04926 -0.331591,0 -0.562757,-0.238746 -0.231166,-0.24064 -0.231166,-0.591179 0,-0.24064 0.111793,-0.43391 0.111794,-0.19327 0.316433,-0.308853 0.206533,-0.115583 0.441489,-0.115583 0.231166,0 0.426331,0.111793 0.19706,0.111794 0.308853,0.312643 0.111794,0.200849 0.111794,0.428226 0,0.172427 -0.07011,0.361907 -0.06821,0.187586 -0.246325,0.452859 z m 0.303168,-1.483632 q 0.24443,0 0.414963,-0.170533 0.172427,-0.172427 0.172427,-0.414962 0,-0.242535 -0.172427,-0.413067 -0.170533,-0.172427 -0.414963,-0.172427 -0.242535,0 -0.414962,0.172427 -0.170532,0.170532 -0.170532,0.413067 0,0.242535 0.170532,0.414962 0.172427,0.170533 0.414962,0.170533 z" id="path72028"/>
    </g>
    <g aria-label="10" id="text28198" style="font-size:3.88056px;line-height:1.25;font-family:'Century Gothic';-inkscape-font-specification:'Century Gothic, Normal';stroke-width:0.264583">
      <path d="m 16.868686,102.0715 h 0.547598 v 2.78726 h -0.276641 v -2.51441 h -0.4377 z" id="path72031"/>
      <path d="m 18.42432,103.46608 q 0,-0.55139 0.117478,-0.85267 0.119373,-0.30127 0.335381,-0.45664 0.216007,-0.15538 0.483175,-0.15538 0.270957,0 0.490754,0.15727 0.219797,0.15537 0.346749,0.46802 0.128847,0.31264 0.128847,0.8394 0,0.52486 -0.126952,0.8356 -0.125057,0.31075 -0.346749,0.46992 -0.221692,0.15726 -0.492649,0.15726 -0.267168,0 -0.481281,-0.15347 -0.214113,-0.15348 -0.33538,-0.45665 -0.119373,-0.30507 -0.119373,-0.85266 z m 0.263378,0.006 q 0,0.47181 0.08337,0.71434 0.08527,0.24064 0.250114,0.3657 0.164848,0.12506 0.348644,0.12506 0.185691,0 0.346749,-0.12127 0.161058,-0.12316 0.24443,-0.36759 0.104214,-0.29749 0.104214,-0.71624 0,-0.42065 -0.09285,-0.68781 -0.09285,-0.26907 -0.257694,-0.39223 -0.162953,-0.12506 -0.344854,-0.12506 -0.185691,0 -0.348644,0.12506 -0.162953,0.12316 -0.24822,0.3657 -0.08527,0.24064 -0.08527,0.71434 z" id="path72033"/>
    </g>
    <g aria-label="11" id="text29096" style="font-size:3.88056px;line-height:1.25;font-family:'Century Gothic';-inkscape-font-specification:'Century Gothic, Normal';stroke-width:0.264583">
      <path d="m 17.628503,111.01455 h 0.547598 v 2.78725 H 17.89946 v -2.5144 h -0.4377 z" id="path72036"/>
      <path d="m 19.779106,111.01455 h 0.547599 v 2.78725 h -0.276642 v -2.5144 h -0.4377 z" id="path72038"/>
    </g>
    <g aria-label="12" id="text29848" style="font-size:3.88056px;line-height:1.25;font-family:'Century Gothic';-inkscape-font-specification:'Century Gothic, Normal';stroke-width:0.264583">
      <path d="m 16.885739,119.99264 h 0.547599 v 2.78726 h -0.276642 v -2.51441 h -0.4377 z" id="path72041"/>
      <path d="m 18.76728,120.86615 h -0.267167 q 0.01137,-0.41307 0.274746,-0.67834 0.265273,-0.26528 0.653708,-0.26528 0.384645,0 0.621496,0.24822 0.238745,0.24822 0.238745,0.5855 0,0.23685 -0.113688,0.44528 -0.113688,0.20653 -0.441489,0.56086 l -0.693499,0.74845 h 1.286572 v 0.26906 h -1.892909 l 1.06488,-1.15015 q 0.324011,-0.34675 0.420646,-0.51349 0.09853,-0.16864 0.09853,-0.35433 0,-0.23495 -0.176217,-0.40359 -0.174322,-0.17053 -0.428225,-0.17053 -0.267168,0 -0.445279,0.17811 -0.176217,0.17811 -0.20085,0.50023 z" id="path72043"/>
    </g>
    <g aria-label="13" id="text30632" style="font-size:3.88056px;line-height:1.25;font-family:'Century Gothic';-inkscape-font-specification:'Century Gothic, Normal';stroke-width:0.264583">
      <path d="m 16.893319,128.90062 h 0.547599 v 2.78726 h -0.276642 v -2.5144 h -0.4377 z" id="path72046"/>
      <path d="m 18.839283,129.54675 h -0.28422 q 0.07769,-0.34485 0.297484,-0.53054 0.219797,-0.18569 0.519177,-0.18569 0.217902,0 0.405488,0.10042 0.18948,0.0985 0.2918,0.26717 0.104214,0.16864 0.104214,0.35243 0,0.36001 -0.358118,0.57034 0.200849,0.0815 0.329696,0.23874 0.181901,0.2217 0.181901,0.49644 0,0.23685 -0.125057,0.45286 -0.125057,0.21411 -0.341065,0.33159 -0.216008,0.11748 -0.483175,0.11748 -0.360013,0 -0.600653,-0.20653 -0.24064,-0.20843 -0.314538,-0.61013 h 0.272852 q 0.072,0.27096 0.206534,0.39222 0.172427,0.15348 0.439595,0.15348 0.303168,0 0.486964,-0.1819 0.183796,-0.1819 0.183796,-0.42633 0,-0.16295 -0.09285,-0.30506 -0.09095,-0.14211 -0.246325,-0.21412 -0.153479,-0.072 -0.47749,-0.0891 v -0.2558 q 0.191375,0 0.348644,-0.0663 0.157268,-0.0682 0.227376,-0.17243 0.072,-0.10421 0.072,-0.22737 0,-0.1819 -0.1459,-0.31454 -0.144005,-0.13264 -0.365697,-0.13264 -0.180007,0 -0.310748,0.10232 -0.130742,0.10043 -0.221693,0.34296 z" id="path72048"/>
    </g>
    <g aria-label="14" id="text31116" style="font-size:3.88056px;line-height:1.25;font-family:'Century Gothic';-inkscape-font-specification:'Century Gothic, Normal';stroke-width:0.264583">
      <path d="m 16.847844,137.87874 h 0.547599 v 2.78726 h -0.276642 v -2.51441 h -0.4377 z" id="path72051"/>
      <path d="m 19.932586,137.80863 h 0.05684 v 1.94218 h 0.337275 v 0.26717 H 19.98943 v 0.64802 h -0.278536 v -0.64802 h -1.332048 z m -0.221692,1.94218 v -1.16152 l -0.820451,1.16152 z" id="path72053"/>
    </g>
    <g aria-label="15" id="text32682" style="font-size:3.88056px;line-height:1.25;font-family:'Century Gothic';-inkscape-font-specification:'Century Gothic, Normal';stroke-width:0.264583">
      <path d="m 16.914161,146.75167 h 0.547598 v 2.78726 h -0.276641 v -2.51441 h -0.4377 z" id="path72056"/>
      <path d="m 20.254701,146.75167 v 0.26527 h -0.992877 l -0.138321,0.75982 q 0.181901,-0.0531 0.327801,-0.0531 0.380856,0 0.62718,0.2558 0.24822,0.2539 0.24822,0.65181 0,0.27475 -0.126952,0.50402 -0.126952,0.22927 -0.344855,0.35244 -0.216007,0.12126 -0.500228,0.12126 -0.33917,0 -0.572231,-0.20653 -0.233061,-0.20843 -0.278536,-0.53813 h 0.286115 q 0.03221,0.16106 0.108004,0.26149 0.07769,0.10042 0.204639,0.16295 0.128847,0.0606 0.269062,0.0606 0.274747,0 0.471807,-0.20842 0.197059,-0.20843 0.197059,-0.52108 0,-0.28232 -0.178111,-0.45854 -0.178112,-0.17621 -0.475596,-0.17621 -0.246325,0 -0.596864,0.14968 l 0.257694,-1.3832 z" id="path72058"/>
    </g>
    <g aria-label="16" id="text33126" style="font-size:3.88056px;line-height:1.25;font-family:'Century Gothic';-inkscape-font-specification:'Century Gothic, Normal';stroke-width:0.264583">
      <path d="m 16.916057,155.72979 h 0.547598 v 2.78725 h -0.276641 v -2.5144 h -0.4377 z" id="path72061"/>
      <path d="m 19.771527,155.65968 0.229272,0.14969 -0.752238,1.14067 q 0.151584,-0.0512 0.284221,-0.0512 0.331591,0 0.562757,0.24064 0.231166,0.23875 0.231166,0.58929 0,0.24064 -0.111794,0.4358 -0.111793,0.19327 -0.318327,0.30885 -0.204639,0.11369 -0.441489,0.11369 -0.229272,0 -0.426331,-0.1099 -0.195165,-0.11179 -0.306959,-0.31264 -0.111793,-0.20085 -0.111793,-0.43012 0,-0.17053 0.06821,-0.35812 0.07011,-0.18948 0.248219,-0.45475 z m -0.305063,1.48363 q -0.242535,0 -0.414963,0.17243 -0.170532,0.17053 -0.170532,0.41496 0,0.24254 0.170532,0.41496 0.172428,0.17053 0.414963,0.17053 0.242535,0 0.413067,-0.17053 0.172427,-0.17242 0.172427,-0.41496 0,-0.24443 -0.172427,-0.41496 -0.170532,-0.17243 -0.413067,-0.17243 z" id="path72063"/>
    </g>
    <g aria-label="17" id="text34376" style="font-size:3.88056px;line-height:1.25;font-family:'Century Gothic';-inkscape-font-specification:'Century Gothic, Normal';stroke-width:0.264583">
      <path d="m 16.847844,164.63776 h 0.547599 v 2.78726 h -0.276642 v -2.51441 h -0.4377 z" id="path72066"/>
      <path d="m 18.558853,164.63776 h 1.767852 l -1.491211,2.85737 -0.229271,-0.11748 1.288467,-2.47651 h -1.335837 z" id="path72068"/>
    </g>
    <g aria-label="18" id="text35480" style="font-size:3.88056px;line-height:1.25;font-family:'Century Gothic';-inkscape-font-specification:'Century Gothic, Normal';stroke-width:0.264583">
      <path d="m 16.876265,173.61586 h 0.547599 v 2.78726 h -0.276642 v -2.5144 h -0.437699 z" id="path72071"/>
      <path d="m 19.799949,174.87401 q 0.282326,0.14022 0.403593,0.32023 0.123163,0.18 0.123163,0.40927 0,0.32212 -0.210324,0.56845 -0.257693,0.30127 -0.737079,0.30127 -0.462332,0 -0.701077,-0.26338 -0.238746,-0.26527 -0.238746,-0.5836 0,-0.23306 0.125057,-0.41875 0.125057,-0.18759 0.416857,-0.33349 -0.204638,-0.1061 -0.306958,-0.26337 -0.102319,-0.15727 -0.102319,-0.33728 0,-0.1819 0.108003,-0.35433 0.109899,-0.17432 0.301274,-0.27285 0.19327,-0.10042 0.416857,-0.10042 0.217903,0 0.403594,0.10042 0.185691,0.10043 0.289905,0.27285 0.106109,0.17243 0.106109,0.36191 0,0.18948 -0.100425,0.33728 -0.09853,0.14779 -0.297484,0.25579 z m -0.414962,-1.0573 q -0.229272,0 -0.380856,0.13643 -0.14969,0.13453 -0.14969,0.32212 0,0.18569 0.161059,0.33727 0.162953,0.14969 0.378961,0.14969 0.138321,0 0.261483,-0.0682 0.123162,-0.0682 0.191375,-0.18569 0.07011,-0.11938 0.07011,-0.23875 0,-0.16864 -0.136426,-0.31075 -0.136426,-0.14211 -0.396014,-0.14211 z m 0.01326,1.19752 q -0.28801,0 -0.483175,0.18759 -0.195165,0.18569 -0.195165,0.43391 0,0.15348 0.08337,0.2899 0.08337,0.13643 0.233061,0.21032 0.149689,0.0739 0.346749,0.0739 0.305064,0 0.48507,-0.18 0.180006,-0.18001 0.180006,-0.42065 0,-0.23306 -0.191375,-0.41307 -0.18948,-0.1819 -0.458543,-0.1819 z" id="path72073"/>
    </g>
    <g aria-label="19" id="text36056" style="font-size:3.88056px;line-height:1.25;font-family:'Century Gothic';-inkscape-font-specification:'Century Gothic, Normal';stroke-width:0.264583">
      <path d="m 16.988059,182.5589 h 0.547598 v 2.78726 h -0.276641 v -2.5144 h -0.4377 z" id="path72076"/>
      <path d="m 19.165189,185.41627 -0.229271,-0.1478 0.752238,-1.14067 q -0.151585,0.0493 -0.284221,0.0493 -0.331591,0 -0.562757,-0.23875 -0.231166,-0.24064 -0.231166,-0.59118 0,-0.24064 0.111793,-0.43391 0.111794,-0.19327 0.316433,-0.30885 0.206533,-0.11558 0.441489,-0.11558 0.231166,0 0.426331,0.11179 0.19706,0.11179 0.308853,0.31264 0.111794,0.20085 0.111794,0.42823 0,0.17242 -0.07011,0.36191 -0.06821,0.18758 -0.246325,0.45285 z m 0.303169,-1.48363 q 0.24443,0 0.414962,-0.17054 0.172428,-0.17242 0.172428,-0.41496 0,-0.24253 -0.172428,-0.41307 -0.170532,-0.17242 -0.414962,-0.17242 -0.242535,0 -0.414962,0.17242 -0.170532,0.17054 -0.170532,0.41307 0,0.24254 0.170532,0.41496 0.172427,0.17054 0.414962,0.17054 z" id="path72078"/>
    </g>
    <g aria-label="20" id="text37496" style="font-size:3.88056px;line-height:1.25;font-family:'Century Gothic';-inkscape-font-specification:'Century Gothic, Normal';stroke-width:0.264583">
      <path d="m 16.599623,192.37546 h -0.267167 q 0.01137,-0.41307 0.274747,-0.67834 0.265272,-0.26527 0.653707,-0.26527 0.384646,0 0.621496,0.24822 0.238745,0.24822 0.238745,0.58549 0,0.23685 -0.113688,0.44528 -0.113688,0.20654 -0.441489,0.56086 l -0.693499,0.74845 h 1.286573 v 0.26907 h -1.89291 l 1.06488,-1.15015 q 0.324012,-0.34675 0.420647,-0.51349 0.09853,-0.16864 0.09853,-0.35433 0,-0.23496 -0.176216,-0.4036 -0.174322,-0.17053 -0.428226,-0.17053 -0.267168,0 -0.445279,0.17811 -0.176217,0.17812 -0.20085,0.50023 z" id="path72081"/>
      <path d="m 18.42432,192.89653 q 0,-0.55138 0.117478,-0.85266 0.119373,-0.30127 0.335381,-0.45665 0.216007,-0.15537 0.483175,-0.15537 0.270957,0 0.490754,0.15727 0.219797,0.15537 0.346749,0.46802 0.128847,0.31264 0.128847,0.83939 0,0.52486 -0.126952,0.83561 -0.125057,0.31075 -0.346749,0.46991 -0.221692,0.15727 -0.492649,0.15727 -0.267168,0 -0.481281,-0.15348 -0.214113,-0.15348 -0.33538,-0.45664 -0.119373,-0.30507 -0.119373,-0.85267 z m 0.263378,0.006 q 0,0.4718 0.08337,0.71434 0.08527,0.24064 0.250114,0.3657 0.164848,0.12505 0.348644,0.12505 0.185691,0 0.346749,-0.12126 0.161058,-0.12317 0.24443,-0.3676 0.104214,-0.29748 0.104214,-0.71623 0,-0.42065 -0.09285,-0.68782 -0.09285,-0.26906 -0.257694,-0.39222 -0.162953,-0.12506 -0.344854,-0.12506 -0.185691,0 -0.348644,0.12506 -0.162953,0.12316 -0.24822,0.3657 -0.08527,0.24064 -0.08527,0.71434 z" id="path72083"/>
    </g>
    <g aria-label="21" id="text38138" style="font-size:3.88056px;line-height:1.25;font-family:'Century Gothic';-inkscape-font-specification:'Century Gothic, Normal';stroke-width:0.264583">
      <path d="m 17.35944,201.35357 h -0.267167 q 0.01137,-0.41307 0.274747,-0.67834 0.265272,-0.26528 0.653707,-0.26528 0.384646,0 0.621496,0.24822 0.238746,0.24822 0.238746,0.5855 0,0.23685 -0.113689,0.44528 -0.113688,0.20653 -0.441489,0.56086 l -0.693499,0.74845 h 1.286573 v 0.26906 h -1.89291 l 1.06488,-1.15015 q 0.324012,-0.34675 0.420647,-0.51349 0.09853,-0.16864 0.09853,-0.35433 0,-0.23495 -0.176217,-0.40359 -0.174322,-0.17053 -0.428226,-0.17053 -0.267168,0 -0.445279,0.17811 -0.176217,0.17811 -0.20085,0.50023 z" id="path72086"/>
      <path d="m 19.779106,200.48006 h 0.547599 v 2.78726 h -0.276642 v -2.51441 h -0.4377 z" id="path72088"/>
    </g>
    <g aria-label="22" id="text38956" style="font-size:3.88056px;line-height:1.25;font-family:'Century Gothic';-inkscape-font-specification:'Century Gothic, Normal';stroke-width:0.264583">
      <path d="M 16.616677,210.2966 H 16.34951 q 0.01137,-0.41306 0.274746,-0.67834 0.265273,-0.26527 0.653708,-0.26527 0.384645,0 0.621496,0.24822 0.238745,0.24822 0.238745,0.5855 0,0.23685 -0.113688,0.44528 -0.113688,0.20653 -0.44149,0.56086 l -0.693498,0.74845 h 1.286572 v 0.26906 h -1.89291 l 1.064881,-1.15015 q 0.324011,-0.34675 0.420646,-0.51349 0.09853,-0.16864 0.09853,-0.35433 0,-0.23496 -0.176217,-0.40359 -0.174322,-0.17054 -0.428226,-0.17054 -0.267167,0 -0.445279,0.17812 -0.176217,0.17811 -0.200849,0.50022 z" id="path72091"/>
      <path d="m 18.76728,210.2966 h -0.267167 q 0.01137,-0.41306 0.274746,-0.67834 0.265273,-0.26527 0.653708,-0.26527 0.384645,0 0.621496,0.24822 0.238745,0.24822 0.238745,0.5855 0,0.23685 -0.113688,0.44528 -0.113688,0.20653 -0.441489,0.56086 l -0.693499,0.74845 h 1.286572 v 0.26906 h -1.892909 l 1.06488,-1.15015 q 0.324011,-0.34675 0.420646,-0.51349 0.09853,-0.16864 0.09853,-0.35433 0,-0.23496 -0.176217,-0.40359 -0.174322,-0.17054 -0.428225,-0.17054 -0.267168,0 -0.445279,0.17812 -0.176217,0.17811 -0.20085,0.50022 z" id="path72093"/>
    </g>
    <g aria-label="23" id="text39422" style="font-size:3.88056px;line-height:1.25;font-family:'Century Gothic';-inkscape-font-specification:'Century Gothic, Normal';stroke-width:0.264583">
      <path d="m 16.624257,219.20459 h -0.267168 q 0.01137,-0.41306 0.274747,-0.67834 0.265273,-0.26527 0.653708,-0.26527 0.384645,0 0.621496,0.24822 0.238745,0.24822 0.238745,0.5855 0,0.23685 -0.113688,0.44527 -0.113689,0.20654 -0.44149,0.56087 l -0.693498,0.74844 h 1.286572 v 0.26907 h -1.89291 l 1.06488,-1.15015 q 0.324012,-0.34675 0.420647,-0.51349 0.09853,-0.16864 0.09853,-0.35433 0,-0.23496 -0.176217,-0.40359 -0.174322,-0.17054 -0.428226,-0.17054 -0.267167,0 -0.445279,0.17812 -0.176217,0.17811 -0.200849,0.50022 z" id="path72096"/>
      <path d="m 18.839283,218.97722 h -0.28422 q 0.07769,-0.34486 0.297484,-0.53055 0.219797,-0.18569 0.519177,-0.18569 0.217902,0 0.405488,0.10043 0.18948,0.0985 0.2918,0.26716 0.104214,0.16864 0.104214,0.35244 0,0.36001 -0.358118,0.57033 0.200849,0.0815 0.329696,0.23875 0.181901,0.22169 0.181901,0.49644 0,0.23685 -0.125057,0.45286 -0.125057,0.21411 -0.341065,0.33159 -0.216008,0.11747 -0.483175,0.11747 -0.360013,0 -0.600653,-0.20653 -0.24064,-0.20843 -0.314538,-0.61013 h 0.272852 q 0.072,0.27096 0.206534,0.39223 0.172427,0.15348 0.439595,0.15348 0.303168,0 0.486964,-0.1819 0.183796,-0.1819 0.183796,-0.42633 0,-0.16296 -0.09285,-0.30507 -0.09095,-0.14211 -0.246325,-0.21411 -0.153479,-0.072 -0.47749,-0.0891 v -0.2558 q 0.191375,0 0.348644,-0.0663 0.157268,-0.0682 0.227376,-0.17243 0.072,-0.10421 0.072,-0.22738 0,-0.1819 -0.1459,-0.31453 -0.144005,-0.13264 -0.365697,-0.13264 -0.180007,0 -0.310748,0.10232 -0.130742,0.10042 -0.221693,0.34296 z" id="path72098"/>
    </g>
    <g aria-label="24" id="text40328" style="font-size:3.88056px;line-height:1.25;font-family:'Century Gothic';-inkscape-font-specification:'Century Gothic, Normal';stroke-width:0.264583">
      <path d="m 16.578782,228.18268 h -0.267168 q 0.01137,-0.41306 0.274747,-0.67834 0.265273,-0.26527 0.653708,-0.26527 0.384645,0 0.621496,0.24822 0.238745,0.24822 0.238745,0.58549 0,0.23685 -0.113688,0.44528 -0.113689,0.20654 -0.44149,0.56087 l -0.693498,0.74844 h 1.286572 v 0.26907 h -1.89291 l 1.06488,-1.15015 q 0.324012,-0.34675 0.420647,-0.51349 0.09853,-0.16864 0.09853,-0.35433 0,-0.23496 -0.176217,-0.40359 -0.174322,-0.17054 -0.428226,-0.17054 -0.267167,0 -0.445279,0.17811 -0.176217,0.17812 -0.200849,0.50023 z" id="path72101"/>
      <path d="m 19.932586,227.23907 h 0.05684 v 1.94217 h 0.337275 v 0.26717 H 19.98943 v 0.64803 h -0.278536 v -0.64803 h -1.332048 z m -0.221692,1.94217 v -1.16151 l -0.820451,1.16151 z" id="path72103"/>
    </g>
    <g aria-label="25" id="text41028" style="font-size:3.88056px;line-height:1.25;font-family:'Century Gothic';-inkscape-font-specification:'Century Gothic, Normal';stroke-width:0.264583">
      <path d="m 16.645098,237.09069 h -0.267167 q 0.01137,-0.41307 0.274747,-0.67834 0.265272,-0.26528 0.653707,-0.26528 0.384646,0 0.621496,0.24822 0.238745,0.24822 0.238745,0.5855 0,0.23685 -0.113688,0.44528 -0.113688,0.20653 -0.441489,0.56086 l -0.693499,0.74845 h 1.286573 v 0.26906 h -1.89291 l 1.06488,-1.15015 q 0.324012,-0.34675 0.420647,-0.51349 0.09853,-0.16864 0.09853,-0.35433 0,-0.23495 -0.176216,-0.40359 -0.174322,-0.17053 -0.428226,-0.17053 -0.267168,0 -0.445279,0.17811 -0.176217,0.17811 -0.20085,0.50023 z" id="path72106"/>
      <path d="m 20.254701,236.21718 v 0.26528 h -0.992877 l -0.138321,0.75981 q 0.181901,-0.053 0.327801,-0.053 0.380856,0 0.62718,0.2558 0.24822,0.2539 0.24822,0.65181 0,0.27475 -0.126952,0.50402 -0.126952,0.22927 -0.344855,0.35243 -0.216007,0.12127 -0.500228,0.12127 -0.33917,0 -0.572231,-0.20654 -0.233061,-0.20842 -0.278536,-0.53812 h 0.286115 q 0.03221,0.16106 0.108004,0.26148 0.07769,0.10043 0.204639,0.16296 0.128847,0.0606 0.269062,0.0606 0.274747,0 0.471807,-0.20843 0.197059,-0.20843 0.197059,-0.52107 0,-0.28233 -0.178111,-0.45854 -0.178112,-0.17622 -0.475596,-0.17622 -0.246325,0 -0.596864,0.14969 l 0.257694,-1.38321 z" id="path72108"/>
    </g>
    <g aria-label="26" id="text43364" style="font-size:3.88056px;line-height:1.25;font-family:'Century Gothic';-inkscape-font-specification:'Century Gothic, Normal';stroke-width:0.264583">
      <path d="m 16.646994,246.03374 h -0.267167 q 0.01137,-0.41307 0.274746,-0.67834 0.265273,-0.26527 0.653708,-0.26527 0.384645,0 0.621496,0.24822 0.238745,0.24822 0.238745,0.58549 0,0.23685 -0.113688,0.44528 -0.113688,0.20654 -0.441489,0.56086 l -0.693499,0.74845 h 1.286572 v 0.26906 h -1.892909 l 1.06488,-1.15014 q 0.324011,-0.34675 0.420646,-0.51349 0.09853,-0.16864 0.09853,-0.35433 0,-0.23496 -0.176216,-0.4036 -0.174323,-0.17053 -0.428226,-0.17053 -0.267168,0 -0.445279,0.17811 -0.176217,0.17812 -0.20085,0.50023 z" id="path72111"/>
      <path d="m 19.771527,245.09013 0.229272,0.14969 -0.752238,1.14067 q 0.151584,-0.0512 0.284221,-0.0512 0.331591,0 0.562757,0.24064 0.231166,0.23875 0.231166,0.58929 0,0.24064 -0.111794,0.4358 -0.111793,0.19327 -0.318327,0.30885 -0.204639,0.11369 -0.441489,0.11369 -0.229272,0 -0.426331,-0.1099 -0.195165,-0.11179 -0.306959,-0.31264 -0.111793,-0.20085 -0.111793,-0.43012 0,-0.17053 0.06821,-0.35812 0.07011,-0.18948 0.248219,-0.45475 z m -0.305063,1.48363 q -0.242535,0 -0.414963,0.17243 -0.170532,0.17053 -0.170532,0.41496 0,0.24254 0.170532,0.41496 0.172428,0.17054 0.414963,0.17054 0.242535,0 0.413067,-0.17054 0.172427,-0.17242 0.172427,-0.41496 0,-0.24443 -0.172427,-0.41496 -0.170532,-0.17243 -0.413067,-0.17243 z" id="path72113"/>
    </g>
    <g aria-label="27" id="text44578" style="font-size:3.88056px;line-height:1.25;font-family:'Century Gothic';-inkscape-font-specification:'Century Gothic, Normal';stroke-width:0.264583">
      <path d="m 16.578782,254.97678 h -0.267168 q 0.01137,-0.41307 0.274747,-0.67834 0.265273,-0.26527 0.653708,-0.26527 0.384645,0 0.621496,0.24822 0.238745,0.24822 0.238745,0.58549 0,0.23685 -0.113688,0.44528 -0.113689,0.20653 -0.44149,0.56086 l -0.693498,0.74845 h 1.286572 v 0.26906 h -1.89291 l 1.06488,-1.15014 q 0.324012,-0.34675 0.420647,-0.5135 0.09853,-0.16863 0.09853,-0.35432 0,-0.23496 -0.176217,-0.4036 -0.174322,-0.17053 -0.428226,-0.17053 -0.267167,0 -0.445279,0.17811 -0.176217,0.17811 -0.200849,0.50023 z" id="path72116"/>
      <path d="m 18.558853,254.10328 h 1.767852 l -1.491211,2.85736 -0.229271,-0.11748 1.288467,-2.47651 h -1.335837 z" id="path72118"/>
    </g>
    <g aria-label="28" id="text45616" style="font-size:3.88056px;line-height:1.25;font-family:'Century Gothic';-inkscape-font-specification:'Century Gothic, Normal';stroke-width:0.264583">
      <path d="m 16.607203,263.91983 h -0.267167 q 0.01137,-0.41306 0.274746,-0.67834 0.265273,-0.26527 0.653708,-0.26527 0.384645,0 0.621496,0.24822 0.238745,0.24822 0.238745,0.5855 0,0.23685 -0.113688,0.44528 -0.113688,0.20653 -0.441489,0.56086 l -0.693499,0.74845 h 1.286572 v 0.26906 h -1.892909 l 1.06488,-1.15015 q 0.324011,-0.34675 0.420646,-0.51349 0.09853,-0.16864 0.09853,-0.35433 0,-0.23496 -0.176217,-0.40359 -0.174322,-0.17054 -0.428225,-0.17054 -0.267168,0 -0.44528,0.17812 -0.176216,0.17811 -0.200849,0.50022 z" id="path72121"/>
      <path d="m 19.799949,264.30448 q 0.282326,0.14022 0.403593,0.32022 0.123163,0.18001 0.123163,0.40928 0,0.32212 -0.210324,0.56844 -0.257693,0.30128 -0.737079,0.30128 -0.462332,0 -0.701077,-0.26338 -0.238746,-0.26528 -0.238746,-0.5836 0,-0.23306 0.125057,-0.41875 0.125057,-0.18759 0.416857,-0.33349 -0.204638,-0.10611 -0.306958,-0.26338 -0.102319,-0.15727 -0.102319,-0.33727 0,-0.1819 0.108003,-0.35433 0.109899,-0.17432 0.301274,-0.27285 0.19327,-0.10043 0.416857,-0.10043 0.217903,0 0.403594,0.10043 0.185691,0.10042 0.289905,0.27285 0.106109,0.17243 0.106109,0.36191 0,0.18948 -0.100425,0.33727 -0.09853,0.1478 -0.297484,0.2558 z m -0.414962,-1.0573 q -0.229272,0 -0.380856,0.13643 -0.14969,0.13453 -0.14969,0.32211 0,0.18569 0.161059,0.33728 0.162953,0.14969 0.378961,0.14969 0.138321,0 0.261483,-0.0682 0.123162,-0.0682 0.191375,-0.18569 0.07011,-0.11937 0.07011,-0.23874 0,-0.16864 -0.136426,-0.31075 -0.136426,-0.14211 -0.396014,-0.14211 z m 0.01326,1.19752 q -0.28801,0 -0.483175,0.18758 -0.195165,0.18569 -0.195165,0.43391 0,0.15348 0.08337,0.28991 0.08337,0.13642 0.233061,0.21032 0.149689,0.0739 0.346749,0.0739 0.305064,0 0.48507,-0.18001 0.180006,-0.18001 0.180006,-0.42065 0,-0.23306 -0.191375,-0.41306 -0.18948,-0.1819 -0.458543,-0.1819 z" id="path72123"/>
    </g>
    <g aria-label="29" id="text46742" style="font-size:3.88056px;line-height:1.25;font-family:'Century Gothic';-inkscape-font-specification:'Century Gothic, Normal';stroke-width:0.264583">
      <path d="m 16.718997,272.86286 h -0.267168 q 0.01137,-0.41307 0.274747,-0.67834 0.265273,-0.26527 0.653708,-0.26527 0.384645,0 0.621495,0.24822 0.238746,0.24821 0.238746,0.58549 0,0.23685 -0.113688,0.44528 -0.113689,0.20653 -0.44149,0.56086 l -0.693498,0.74845 h 1.286572 v 0.26906 h -1.89291 l 1.06488,-1.15015 q 0.324012,-0.34674 0.420647,-0.51349 0.09853,-0.16863 0.09853,-0.35433 0,-0.23495 -0.176217,-0.40359 -0.174322,-0.17053 -0.428226,-0.17053 -0.267167,0 -0.445279,0.17811 -0.176217,0.17811 -0.200849,0.50023 z" id="path72126"/>
      <path d="m 19.165189,274.84672 -0.229271,-0.1478 0.752238,-1.14067 q -0.151585,0.0493 -0.284221,0.0493 -0.331591,0 -0.562757,-0.23875 -0.231166,-0.24064 -0.231166,-0.59118 0,-0.24064 0.111793,-0.43391 0.111794,-0.19327 0.316433,-0.30885 0.206533,-0.11558 0.441489,-0.11558 0.231166,0 0.426331,0.11179 0.19706,0.11179 0.308853,0.31264 0.111794,0.20085 0.111794,0.42823 0,0.17243 -0.07011,0.36191 -0.06821,0.18758 -0.246325,0.45285 z m 0.303169,-1.48363 q 0.24443,0 0.414962,-0.17054 0.172428,-0.17242 0.172428,-0.41496 0,-0.24253 -0.172428,-0.41306 -0.170532,-0.17243 -0.414962,-0.17243 -0.242535,0 -0.414962,0.17243 -0.170532,0.17053 -0.170532,0.41306 0,0.24254 0.170532,0.41496 0.172427,0.17054 0.414962,0.17054 z" id="path72128"/>
    </g>
    <g aria-label="30" id="text47508" style="font-size:3.88056px;line-height:1.25;font-family:'Century Gothic';-inkscape-font-specification:'Century Gothic, Normal';stroke-width:0.264583">
      <path d="m 16.664047,281.57854 h -0.284221 q 0.07769,-0.34486 0.297484,-0.53055 0.219798,-0.18569 0.519177,-0.18569 0.217902,0 0.405488,0.10042 0.18948,0.0985 0.2918,0.26717 0.104214,0.16864 0.104214,0.35244 0,0.36001 -0.358118,0.57033 0.200849,0.0815 0.329696,0.23875 0.181901,0.22169 0.181901,0.49644 0,0.23685 -0.125057,0.45285 -0.125057,0.21412 -0.341065,0.3316 -0.216007,0.11747 -0.483175,0.11747 -0.360013,0 -0.600653,-0.20653 -0.24064,-0.20843 -0.314537,-0.61013 h 0.272851 q 0.072,0.27096 0.206534,0.39223 0.172427,0.15348 0.439595,0.15348 0.303169,0 0.486965,-0.18191 0.183796,-0.1819 0.183796,-0.42633 0,-0.16295 -0.09285,-0.30506 -0.09095,-0.14211 -0.246324,-0.21411 -0.15348,-0.072 -0.477491,-0.0891 v -0.2558 q 0.191375,0 0.348644,-0.0663 0.157269,-0.0682 0.227377,-0.17242 0.072,-0.10422 0.072,-0.22738 0,-0.1819 -0.1459,-0.31454 -0.144005,-0.13263 -0.365697,-0.13263 -0.180007,0 -0.310748,0.10232 -0.130742,0.10042 -0.221692,0.34296 z" id="path72131"/>
      <path d="m 18.42432,282.32698 q 0,-0.55138 0.117478,-0.85266 0.119373,-0.30127 0.335381,-0.45665 0.216007,-0.15537 0.483175,-0.15537 0.270957,0 0.490754,0.15727 0.219797,0.15537 0.346749,0.46802 0.128847,0.31264 0.128847,0.83939 0,0.52486 -0.126952,0.83561 -0.125057,0.31075 -0.346749,0.46991 -0.221692,0.15727 -0.492649,0.15727 -0.267168,0 -0.481281,-0.15348 -0.214113,-0.15348 -0.33538,-0.45664 -0.119373,-0.30507 -0.119373,-0.85267 z m 0.263378,0.006 q 0,0.4718 0.08337,0.71434 0.08527,0.24064 0.250114,0.3657 0.164848,0.12505 0.348644,0.12505 0.185691,0 0.346749,-0.12126 0.161058,-0.12317 0.24443,-0.3676 0.104214,-0.29748 0.104214,-0.71623 0,-0.42065 -0.09285,-0.68782 -0.09285,-0.26906 -0.257694,-0.39222 -0.162953,-0.12506 -0.344854,-0.12506 -0.185691,0 -0.348644,0.12506 -0.162953,0.12316 -0.24822,0.3657 -0.08527,0.24064 -0.08527,0.71434 z" id="path72133"/>
    </g>
    <g aria-label="31" id="text62604" style="font-size:2.82223px;line-height:1.25;font-family:'Atari Font Full Version';-inkscape-font-specification:'Atari Font Full Version, Normal';stroke-width:0.264583">
      <path d="m 17.217327,290.52159 h -0.284221 q 0.07769,-0.34485 0.297484,-0.53054 0.219798,-0.1857 0.519177,-0.1857 0.217902,0 0.405488,0.10043 0.18948,0.0985 0.2918,0.26717 0.104214,0.16863 0.104214,0.35243 0,0.36001 -0.358118,0.57034 0.200849,0.0815 0.329696,0.23874 0.181901,0.22169 0.181901,0.49644 0,0.23685 -0.125057,0.45286 -0.125057,0.21411 -0.341065,0.33159 -0.216007,0.11748 -0.483175,0.11748 -0.360013,0 -0.600653,-0.20654 -0.24064,-0.20842 -0.314538,-0.61012 h 0.272852 q 0.072,0.27095 0.206534,0.39222 0.172427,0.15348 0.439595,0.15348 0.303168,0 0.486965,-0.1819 0.183796,-0.1819 0.183796,-0.42633 0,-0.16296 -0.09285,-0.30507 -0.09095,-0.14211 -0.246324,-0.21411 -0.15348,-0.072 -0.477491,-0.089 v -0.2558 q 0.191375,0 0.348644,-0.0663 0.157269,-0.0682 0.227376,-0.17243 0.072,-0.10421 0.072,-0.22737 0,-0.18191 -0.1459,-0.31454 -0.144005,-0.13264 -0.365697,-0.13264 -0.180007,0 -0.310748,0.10232 -0.130742,0.10043 -0.221692,0.34296 z" style="font-size:3.88056px;font-family:'Century Gothic';-inkscape-font-specification:'Century Gothic, Normal'" id="path72136"/>
      <path d="m 19.572569,289.87546 h 0.547598 v 2.78726 h -0.276641 v -2.51441 h -0.4377 z" style="font-size:3.88056px;font-family:'Century Gothic';-inkscape-font-specification:'Century Gothic, Normal'" id="path72138"/>
    </g>
  </g>
  </svg>
