<svg xmlns:xlink="http://www.w3.org/1999/xlink" xmlns="http://www.w3.org/2000/svg" xmlns:svg="http://www.w3.org/2000/svg" width="302mm" height="302mm" viewBox="0 0 302 302" version="1.1" id="svg5"><g id="layer6" style="display:inline">
    <path id="path87253" style="fill:none;stroke:#000000;stroke-width:0.691261" d="m 29.027155,112.35605 a 3.6231198,3.6231198 0 0 1 -3.623119,3.62312 3.6231198,3.6231198 0 0 1 -3.62312,-3.62312 3.6231198,3.6231198 0 0 1 3.62312,-3.62312 3.6231198,3.6231198 0 0 1 3.623119,3.62312 z"/>
    <path id="path87253-7" style="fill:none;stroke:#000000;stroke-width:0.691261" d="m 37.882874,94.447449 a 3.6231198,3.6231198 0 0 1 -3.62312,3.62312 3.6231198,3.6231198 0 0 1 -3.62312,-3.62312 3.6231198,3.6231198 0 0 1 3.62312,-3.62312 3.6231198,3.6231198 0 0 1 3.62312,3.62312 z"/>
    <path id="path87253-7-1" style="fill:none;stroke:#000000;stroke-width:0.691261" d="m 46.852028,103.39888 a 3.6231198,3.6231198 0 0 1 -3.623119,3.62312 3.6231198,3.6231198 0 0 1 -3.62312,-3.62312 3.6231198,3.6231198 0 0 1 3.62312,-3.62312 3.6231198,3.6231198 0 0 1 3.623119,3.62312 z"/>
    <path id="path87253-7-3" style="fill:none;stroke:#000000;stroke-width:0.691261" d="m 55.906731,85.48175 a 3.6231198,3.6231198 0 0 1 -3.62312,3.62312 3.6231198,3.6231198 0 0 1 -3.62312,-3.62312 3.6231198,3.6231198 0 0 1 3.62312,-3.623119 3.6231198,3.6231198 0 0 1 3.62312,3.623119 z"/>
    <path id="path87253-7-8" style="fill:none;stroke:#000000;stroke-width:0.691261" d="m 64.768872,76.526855 a 3.6231198,3.6231198 0 0 1 -3.62312,3.62312 3.6231198,3.6231198 0 0 1 -3.62312,-3.62312 3.6231198,3.6231198 0 0 1 3.62312,-3.623119 3.6231198,3.6231198 0 0 1 3.62312,3.623119 z"/>
    <path id="path87253-7-4" style="fill:none;stroke:#000000;stroke-width:0.691261" d="m 73.724057,67.472145 a 3.6231198,3.6231198 0 0 1 -3.62312,3.62312 3.6231198,3.6231198 0 0 1 -3.62312,-3.62312 3.6231198,3.6231198 0 0 1 3.62312,-3.62312 3.6231198,3.6231198 0 0 1 3.62312,3.62312 z"/>
    <path id="path87253-7-34" style="fill:none;stroke:#000000;stroke-width:0.691261" d="m 82.67548,58.533539 a 3.6231198,3.6231198 0 0 1 -3.623119,3.62312 3.6231198,3.6231198 0 0 1 -3.62312,-3.62312 3.6231198,3.6231198 0 0 1 3.62312,-3.62312 3.6231198,3.6231198 0 0 1 3.623119,3.62312 z"/>
    <path id="path87253-7-5" style="fill:none;stroke:#000000;stroke-width:0.691261" d="m 91.533871,49.554749 a 3.6231198,3.6231198 0 0 1 -3.62312,3.623119 3.6231198,3.6231198 0 0 1 -3.623119,-3.623119 3.6231198,3.6231198 0 0 1 3.623119,-3.62312 3.6231198,3.6231198 0 0 1 3.62312,3.62312 z"/>
    <path id="path87253-7-0" style="fill:none;stroke:#000000;stroke-width:0.691261" d="m 100.47787,31.613251 a 3.6231198,3.6231198 0 0 1 -3.623118,3.62312 3.6231198,3.6231198 0 0 1 -3.62312,-3.62312 3.6231198,3.6231198 0 0 1 3.62312,-3.62312 3.6231198,3.6231198 0 0 1 3.623118,3.62312 z"/>
    <path id="path87253-7-04" style="fill:none;stroke:#000000;stroke-width:0.691261" d="m 109.42987,31.716518 a 3.6231198,3.6231198 0 0 1 -3.62312,3.62312 3.6231198,3.6231198 0 0 1 -3.62312,-3.62312 3.6231198,3.6231198 0 0 1 3.62312,-3.623119 3.6231198,3.6231198 0 0 1 3.62312,3.623119 z"/>
    <path id="path87253-7-80" style="fill:none;stroke:#000000;stroke-width:0.691261" d="m 118.50587,22.858749 a 3.6231198,3.6231198 0 0 1 -3.62312,3.62312 3.6231198,3.6231198 0 0 1 -3.62312,-3.62312 3.6231198,3.6231198 0 0 1 3.62312,-3.623119 3.6231198,3.6231198 0 0 1 3.62312,3.623119 z"/>
    <path id="path87253-7-2" style="fill:none;stroke:#000000;stroke-width:0.691261" d="m 127.17587,22.91975 a 3.6231198,3.6231198 0 0 1 -3.62312,3.62312 3.6231198,3.6231198 0 0 1 -3.62312,-3.62312 3.6231198,3.6231198 0 0 1 3.62312,-3.62312 3.6231198,3.6231198 0 0 1 3.62312,3.62312 z"/>
    <path id="path87253-7-9" style="fill:none;stroke:#000000;stroke-width:0.691261" d="m 127.46811,282.15628 a 3.6231198,3.6231198 0 0 1 -3.62312,3.62312 3.6231198,3.6231198 0 0 1 -3.62312,-3.62312 3.6231198,3.6231198 0 0 1 3.62312,-3.62312 3.6231198,3.6231198 0 0 1 3.62312,3.62312 z"/>
    <path id="path90120" style="fill:none;stroke:#000000;stroke-width:0.191" d="m 27.140543,240.65786 c -1.730601,0.84311 -0.848876,0.78958 -2.668767,0.16203 -1.81989,-0.62755 -1.158562,-0.0419 -2.001676,-1.77253 -0.843113,-1.7306 -0.78958,-0.84887 -0.162031,-2.66876 0.627548,-1.81989 0.04193,-1.15857 1.772528,-2.00168 1.730601,-0.84311 0.848877,-0.78958 2.668768,-0.16203 1.819889,0.62755 1.158562,0.0419 2.001676,1.77253 0.843113,1.7306 0.78958,0.84887 0.162031,2.66876 -0.627548,1.81989 -0.04193,1.15857 -1.772529,2.00168 z"/>
    <path id="path90120-3" style="fill:none;stroke:#000000;stroke-width:0.191" d="m 36.021628,231.77677 c -1.730601,0.84311 -0.848876,0.78958 -2.668767,0.16203 -1.81989,-0.62755 -1.158562,-0.0419 -2.001676,-1.77253 -0.843113,-1.7306 -0.78958,-0.84887 -0.162031,-2.66876 0.627548,-1.81989 0.04193,-1.15857 1.772528,-2.00168 1.730601,-0.84311 0.848877,-0.78958 2.668768,-0.16203 1.819889,0.62755 1.158562,0.0419 2.001676,1.77253 0.843113,1.7306 0.78958,0.84887 0.162031,2.66876 -0.627548,1.81989 -0.04193,1.15857 -1.772529,2.00168 z"/>
    <path id="path90120-5" style="fill:none;stroke:#000000;stroke-width:0.191" d="m 45.005981,231.77677 c -1.730601,0.84311 -0.848876,0.78958 -2.668767,0.16203 -1.81989,-0.62755 -1.158562,-0.0419 -2.001676,-1.77253 -0.843113,-1.7306 -0.78958,-0.84887 -0.162031,-2.66876 0.627548,-1.81989 0.04193,-1.15857 1.772528,-2.00168 1.730601,-0.84311 0.848877,-0.78958 2.668768,-0.16203 1.819889,0.62755 1.158562,0.0419 2.001676,1.77253 0.843113,1.7306 0.78958,0.84887 0.162031,2.66876 -0.627548,1.81989 -0.04193,1.15857 -1.772529,2.00168 z"/>
    <path id="path90120-2" style="fill:none;stroke:#000000;stroke-width:0.191" d="m 53.887065,222.79241 c -1.730601,0.84311 -0.848876,0.78958 -2.668767,0.16203 -1.81989,-0.62755 -1.158562,-0.0419 -2.001676,-1.77253 -0.843113,-1.7306 -0.78958,-0.84887 -0.162031,-2.66876 0.627548,-1.81989 0.04193,-1.15857 1.772528,-2.00168 1.730601,-0.84311 0.848877,-0.78958 2.668768,-0.16203 1.819889,0.62755 1.158562,0.0419 2.001676,1.77253 0.843113,1.7306 0.78958,0.84887 0.162031,2.66876 -0.627548,1.81989 -0.04193,1.15857 -1.772529,2.00168 z"/>
    <path id="path90120-33" style="fill:none;stroke:#000000;stroke-width:0.191" d="m 62.871419,216.40821 c -1.730601,-0.84311 -0.848876,-0.78958 -2.668767,-0.16203 -1.81989,0.62755 -1.158562,0.0419 -2.001676,1.77253 -0.843113,1.7306 -0.78958,0.84887 -0.162031,2.66876 0.627548,1.81989 0.04193,1.15857 1.772528,2.00168 1.730601,0.84311 0.848877,0.78958 2.668768,0.16203 1.819889,-0.62755 1.158562,-0.0419 2.001676,-1.77253 0.843113,-1.7306 0.78958,-0.84887 0.162031,-2.66876 -0.627548,-1.81989 -0.04193,-1.15857 -1.772529,-2.00168 z"/>
    <path id="path90120-6" style="fill:none;stroke:#000000;stroke-width:0.191" d="m 71.752504,204.82371 c -1.730601,0.84311 -0.848876,0.78958 -2.668767,0.16203 -1.81989,-0.62755 -1.158562,-0.0419 -2.001676,-1.77253 -0.843113,-1.7306 -0.78958,-0.84887 -0.162031,-2.66876 0.627548,-1.81989 0.04193,-1.15857 1.772528,-2.00168 1.730601,-0.84311 0.848877,-0.78958 2.668768,-0.16203 1.819889,0.62755 1.158562,0.0419 2.001676,1.77253 0.843113,1.7306 0.78958,0.84887 0.162031,2.66876 -0.627548,1.81989 -0.04193,1.15857 -1.772529,2.00168 z"/>
    <path id="path90120-7" style="fill:none;stroke:#000000;stroke-width:0.191" d="m 80.840126,204.92698 c -1.730601,0.84311 -0.848876,0.78958 -2.668767,0.16203 -1.81989,-0.62755 -1.158562,-0.0419 -2.001676,-1.77253 -0.843113,-1.7306 -0.78958,-0.84887 -0.162031,-2.66876 0.627548,-1.81989 0.04193,-1.15857 1.772528,-2.00168 1.730601,-0.84311 0.848877,-0.78958 2.668768,-0.16203 1.819889,0.62755 1.158562,0.0419 2.001676,1.77253 0.843113,1.7306 0.78958,0.84887 0.162031,2.66876 -0.627548,1.81989 -0.04193,1.15857 -1.772529,2.00168 z"/>
    <path id="path90120-32" style="fill:none;stroke:#000000;stroke-width:0.191" d="m 89.721244,186.95827 c -1.730601,0.84311 -0.848876,0.78958 -2.668767,0.16203 -1.81989,-0.62755 -1.158562,-0.0419 -2.001676,-1.77253 -0.843113,-1.7306 -0.78958,-0.84887 -0.162031,-2.66876 0.627548,-1.81989 0.04193,-1.15857 1.772528,-2.00168 1.730601,-0.84311 0.848877,-0.78958 2.668768,-0.16203 1.819889,0.62755 1.158562,0.0419 2.001676,1.77253 0.843113,1.7306 0.78958,0.84887 0.162031,2.66876 -0.627548,1.81989 -0.04193,1.15857 -1.772529,2.00168 z"/>
    <path id="path90120-1" style="fill:none;stroke:#000000;stroke-width:0.191" d="m 98.602295,169.09283 c -1.730601,0.84311 -0.848876,0.78958 -2.668767,0.16203 -1.81989,-0.62755 -1.158562,-0.0419 -2.001676,-1.77253 -0.843113,-1.7306 -0.78958,-0.84887 -0.162031,-2.66876 0.627548,-1.81989 0.04193,-1.15857 1.772528,-2.00168 1.730601,-0.84311 0.848877,-0.78958 2.668768,-0.16203 1.819893,0.62755 1.158562,0.0419 2.001673,1.77253 0.84312,1.7306 0.78958,0.84887 0.16203,2.66876 -0.627544,1.81989 -0.0419,1.15857 -1.772525,2.00168 z"/>
    <path id="path90120-1-7" style="fill:none;stroke:#000000;stroke-width:0.191" d="m 107.58325,169.09283 c -1.73061,0.84311 -0.84888,0.78958 -2.66877,0.16203 -1.81989,-0.62755 -1.15856,-0.0419 -2.00168,-1.77253 -0.84311,-1.7306 -0.78958,-0.84887 -0.16203,-2.66876 0.62755,-1.81989 0.0419,-1.15857 1.77253,-2.00168 1.7306,-0.84311 0.84888,-0.78958 2.66877,-0.16203 1.81989,0.62755 1.15856,0.0419 2.00167,1.77253 0.84312,1.7306 0.78958,0.84887 0.16203,2.66876 -0.62754,1.81989 -0.0419,1.15857 -1.77252,2.00168 z"/>
    <path id="path90120-1-7-5" style="fill:none;stroke:#000000;stroke-width:0.191" d="m 116.56725,151.23074 c -1.73061,0.84311 -0.84888,0.78958 -2.66877,0.16203 -1.81989,-0.62755 -1.15856,-0.0419 -2.00168,-1.77253 -0.84311,-1.7306 -0.78958,-0.84887 -0.16203,-2.66876 0.62755,-1.81989 0.0419,-1.15857 1.77253,-2.00168 1.7306,-0.84311 0.84888,-0.78958 2.66877,-0.16203 1.81989,0.62755 1.15856,0.0419 2.00167,1.77253 0.84312,1.7306 0.78958,0.84887 0.16203,2.66876 -0.62754,1.81989 -0.0419,1.15857 -1.77252,2.00168 z"/>
    <path id="path90120-1-7-5-2" style="fill:none;stroke:#000000;stroke-width:0.191" d="m 125.54925,151.22739 c -1.73061,0.84311 -0.84888,0.78958 -2.66877,0.16203 -1.81989,-0.62755 -1.15856,-0.0419 -2.00168,-1.77253 -0.84311,-1.7306 -0.78958,-0.84887 -0.16203,-2.66876 0.62755,-1.81989 0.0419,-1.15857 1.77253,-2.00168 1.7306,-0.84311 0.84888,-0.78958 2.66877,-0.16203 1.81989,0.62755 1.15856,0.0419 2.00167,1.77253 0.84312,1.7306 0.78958,0.84887 0.16203,2.66876 -0.62754,1.81989 -0.0419,1.15857 -1.77252,2.00168 z"/>
    <path id="path92848" style="fill:none;stroke:#000000;stroke-width:0.222" d="m 36.122899,185.78713 c -0.962958,1.03994 -2.502516,1.14604 -3.582728,0.24691 -1.08021,-0.89913 -1.359245,-2.51897 -0.649347,-3.76955 0.7099,-1.25058 2.184091,-1.73616 3.430609,-1.12999 0.783846,1.09035 1.563549,2.18439 0.801466,4.65263 z"/>
    <path id="path654" style="fill:none;stroke:#000000;stroke-width:0.222" d="m 122.56884,198.94402 c 0.99992,-0.56232 2.23192,-0.51045 3.18103,0.13393 0.94911,0.64437 1.45191,1.97683 1.29823,3.11367 -0.15368,1.13684 -0.93738,2.08885 -2.02352,2.4581 -1.71528,-1.76623 -2.51329,-4.19865 -2.45574,-5.7057 z"/>
  </g>
  </svg>
