<svg xmlns:inkscape="http://www.inkscape.org/namespaces/inkscape" xmlns:sodipodi="http://sodipodi.sourceforge.net/DTD/sodipodi-0.dtd" xmlns:xlink="http://www.w3.org/1999/xlink" xmlns="http://www.w3.org/2000/svg" xmlns:svg="http://www.w3.org/2000/svg" width="302mm" height="302mm" viewBox="0 0 302 302" version="1.1" id="svg5" inkscape:version="1.1.2 (0a00cf5339, 2022-02-04)" sodipodi:docname="moon_layout.svg"><g inkscape:groupmode="layer" id="layer7" inkscape:label="Full Moon" style="display:inline" sodipodi:insensitive="true">
    <path id="path90120" style="fill:none;stroke:#000000;stroke-width:1.85156" transform="matrix(0.10315612,0,0,0.10315612,37.447728,221.00979)" d="m -99.918307,190.46926 c -16.776523,8.17318 -8.229043,7.65423 -25.871143,1.57075 -17.6421,-6.08349 -11.23116,-0.40646 -19.40434,-17.18298 -8.17317,-16.77652 -7.65422,-8.22904 -1.57074,-25.87114 6.08348,-17.6421 0.40646,-11.23117 17.18297,-19.40434 16.77652,-8.17318 8.22905,-7.65423 25.87115,-1.57074 17.642093,6.08348 11.231161,0.40645 19.404336,17.18297 8.173176,16.77652 7.654224,8.22904 1.570742,25.87114 -6.083481,17.6421 -0.406458,11.23117 -17.182975,19.40434 z"/>
    <path id="path90120-3" style="fill:none;stroke:#000000;stroke-width:1.85156" transform="matrix(0.10315612,0,0,0.10315612,46.328813,212.1287)" d="m -99.918307,190.46926 c -16.776523,8.17318 -8.229043,7.65423 -25.871143,1.57075 -17.6421,-6.08349 -11.23116,-0.40646 -19.40434,-17.18298 -8.17317,-16.77652 -7.65422,-8.22904 -1.57074,-25.87114 6.08348,-17.6421 0.40646,-11.23117 17.18297,-19.40434 16.77652,-8.17318 8.22905,-7.65423 25.87115,-1.57074 17.642093,6.08348 11.231161,0.40645 19.404336,17.18297 8.173176,16.77652 7.654224,8.22904 1.570742,25.87114 -6.083481,17.6421 -0.406458,11.23117 -17.182975,19.40434 z"/>
    <path id="path90120-3-6" style="display:inline;fill:none;stroke:#000000;stroke-width:0.134368" d="m 142.87569,281.0225 c -1.21748,0.59312 -0.59719,0.55546 -1.87747,0.11398 -1.28029,-0.44148 -0.81505,-0.0295 -1.40818,-1.24696 -0.59312,-1.21748 -0.55546,-0.59718 -0.11399,-1.87747 0.44148,-1.28028 0.0295,-0.81505 1.24697,-1.40817 1.21747,-0.59313 0.59719,-0.55547 1.87747,-0.11399 1.28029,0.44148 0.81505,0.0295 1.40817,1.24697 0.59313,1.21747 0.55547,0.59718 0.11399,1.87746 -0.44147,1.28029 -0.0295,0.81505 -1.24696,1.40818 z"/>
    <path id="path90120-5" style="fill:none;stroke:#000000;stroke-width:1.85156" transform="matrix(0.10315612,0,0,0.10315612,55.313166,212.1287)" d="m -99.918307,190.46926 c -16.776523,8.17318 -8.229043,7.65423 -25.871143,1.57075 -17.6421,-6.08349 -11.23116,-0.40646 -19.40434,-17.18298 -8.17317,-16.77652 -7.65422,-8.22904 -1.57074,-25.87114 6.08348,-17.6421 0.40646,-11.23117 17.18297,-19.40434 16.77652,-8.17318 8.22905,-7.65423 25.87115,-1.57074 17.642093,6.08348 11.231161,0.40645 19.404336,17.18297 8.173176,16.77652 7.654224,8.22904 1.570742,25.87114 -6.083481,17.6421 -0.406458,11.23117 -17.182975,19.40434 z"/>
    <path id="path90120-2" style="fill:none;stroke:#000000;stroke-width:1.85156" transform="matrix(0.10315612,0,0,0.10315612,64.19425,203.14434)" d="m -99.918307,190.46926 c -16.776523,8.17318 -8.229043,7.65423 -25.871143,1.57075 -17.6421,-6.08349 -11.23116,-0.40646 -19.40434,-17.18298 -8.17317,-16.77652 -7.65422,-8.22904 -1.57074,-25.87114 6.08348,-17.6421 0.40646,-11.23117 17.18297,-19.40434 16.77652,-8.17318 8.22905,-7.65423 25.87115,-1.57074 17.642093,6.08348 11.231161,0.40645 19.404336,17.18297 8.173176,16.77652 7.654224,8.22904 1.570742,25.87114 -6.083481,17.6421 -0.406458,11.23117 -17.182975,19.40434 z"/>
    <path id="path90120-33" style="fill:none;stroke:#000000;stroke-width:1.85156" transform="matrix(0.10315612,0,0,-0.10315612,73.178604,236.05628)" d="m -99.918307,190.46926 c -16.776523,8.17318 -8.229043,7.65423 -25.871143,1.57075 -17.6421,-6.08349 -11.23116,-0.40646 -19.40434,-17.18298 -8.17317,-16.77652 -7.65422,-8.22904 -1.57074,-25.87114 6.08348,-17.6421 0.40646,-11.23117 17.18297,-19.40434 16.77652,-8.17318 8.22905,-7.65423 25.87115,-1.57074 17.642093,6.08348 11.231161,0.40645 19.404336,17.18297 8.173176,16.77652 7.654224,8.22904 1.570742,25.87114 -6.083481,17.6421 -0.406458,11.23117 -17.182975,19.40434 z"/>
    <path id="path90120-6" style="fill:none;stroke:#000000;stroke-width:1.85156" transform="matrix(0.10315612,0,0,0.10315612,82.059689,185.17564)" d="m -99.918307,190.46926 c -16.776523,8.17318 -8.229043,7.65423 -25.871143,1.57075 -17.6421,-6.08349 -11.23116,-0.40646 -19.40434,-17.18298 -8.17317,-16.77652 -7.65422,-8.22904 -1.57074,-25.87114 6.08348,-17.6421 0.40646,-11.23117 17.18297,-19.40434 16.77652,-8.17318 8.22905,-7.65423 25.87115,-1.57074 17.642093,6.08348 11.231161,0.40645 19.404336,17.18297 8.173176,16.77652 7.654224,8.22904 1.570742,25.87114 -6.083481,17.6421 -0.406458,11.23117 -17.182975,19.40434 z"/>
    <path id="path90120-7" style="fill:none;stroke:#000000;stroke-width:1.85156" transform="matrix(0.10315612,0,0,0.10315612,91.147311,185.27891)" d="m -99.918307,190.46926 c -16.776523,8.17318 -8.229043,7.65423 -25.871143,1.57075 -17.6421,-6.08349 -11.23116,-0.40646 -19.40434,-17.18298 -8.17317,-16.77652 -7.65422,-8.22904 -1.57074,-25.87114 6.08348,-17.6421 0.40646,-11.23117 17.18297,-19.40434 16.77652,-8.17318 8.22905,-7.65423 25.87115,-1.57074 17.642093,6.08348 11.231161,0.40645 19.404336,17.18297 8.173176,16.77652 7.654224,8.22904 1.570742,25.87114 -6.083481,17.6421 -0.406458,11.23117 -17.182975,19.40434 z"/>
    <path id="path90120-32" style="fill:none;stroke:#000000;stroke-width:1.85156" transform="matrix(0.10315612,0,0,0.10315612,100.02839,167.3102)" d="m -99.918307,190.46926 c -16.776523,8.17318 -8.229043,7.65423 -25.871143,1.57075 -17.6421,-6.08349 -11.23116,-0.40646 -19.40434,-17.18298 -8.17317,-16.77652 -7.65422,-8.22904 -1.57074,-25.87114 6.08348,-17.6421 0.40646,-11.23117 17.18297,-19.40434 16.77652,-8.17318 8.22905,-7.65423 25.87115,-1.57074 17.642093,6.08348 11.231161,0.40645 19.404336,17.18297 8.173176,16.77652 7.654224,8.22904 1.570742,25.87114 -6.083481,17.6421 -0.406458,11.23117 -17.182975,19.40434 z"/>
    <path id="path90120-1" style="fill:none;stroke:#000000;stroke-width:1.85156" transform="matrix(0.10315612,0,0,0.10315612,108.90948,149.44476)" d="m -99.918307,190.46926 c -16.776523,8.17318 -8.229043,7.65423 -25.871143,1.57075 -17.6421,-6.08349 -11.23116,-0.40646 -19.40434,-17.18298 -8.17317,-16.77652 -7.65422,-8.22904 -1.57074,-25.87114 6.08348,-17.6421 0.40646,-11.23117 17.18297,-19.40434 16.77652,-8.17318 8.22905,-7.65423 25.87115,-1.57074 17.642093,6.08348 11.231161,0.40645 19.404336,17.18297 8.173176,16.77652 7.654224,8.22904 1.570742,25.87114 -6.083481,17.6421 -0.406458,11.23117 -17.182975,19.40434 z"/>
    <path id="path90120-1-7" style="fill:none;stroke:#000000;stroke-width:1.85156" transform="matrix(0.10315612,0,0,0.10315612,117.89043,149.44476)" d="m -99.918307,190.46926 c -16.776523,8.17318 -8.229043,7.65423 -25.871143,1.57075 -17.6421,-6.08349 -11.23116,-0.40646 -19.40434,-17.18298 -8.17317,-16.77652 -7.65422,-8.22904 -1.57074,-25.87114 6.08348,-17.6421 0.40646,-11.23117 17.18297,-19.40434 16.77652,-8.17318 8.22905,-7.65423 25.87115,-1.57074 17.642093,6.08348 11.231161,0.40645 19.404336,17.18297 8.173176,16.77652 7.654224,8.22904 1.570742,25.87114 -6.083481,17.6421 -0.406458,11.23117 -17.182975,19.40434 z"/>
    <path id="path90120-1-7-5" style="fill:none;stroke:#000000;stroke-width:1.85156" transform="matrix(0.10315612,0,0,0.10315612,126.87443,131.58267)" d="m -99.918307,190.46926 c -16.776523,8.17318 -8.229043,7.65423 -25.871143,1.57075 -17.6421,-6.08349 -11.23116,-0.40646 -19.40434,-17.18298 -8.17317,-16.77652 -7.65422,-8.22904 -1.57074,-25.87114 6.08348,-17.6421 0.40646,-11.23117 17.18297,-19.40434 16.77652,-8.17318 8.22905,-7.65423 25.87115,-1.57074 17.642093,6.08348 11.231161,0.40645 19.404336,17.18297 8.173176,16.77652 7.654224,8.22904 1.570742,25.87114 -6.083481,17.6421 -0.406458,11.23117 -17.182975,19.40434 z"/>
    <path id="path90120-1-7-5-2" style="fill:none;stroke:#000000;stroke-width:1.85156" transform="matrix(0.10315612,0,0,0.10315612,135.85643,131.57932)" d="m -99.918307,190.46926 c -16.776523,8.17318 -8.229043,7.65423 -25.871143,1.57075 -17.6421,-6.08349 -11.23116,-0.40646 -19.40434,-17.18298 -8.17317,-16.77652 -7.65422,-8.22904 -1.57074,-25.87114 6.08348,-17.6421 0.40646,-11.23117 17.18297,-19.40434 16.77652,-8.17318 8.22905,-7.65423 25.87115,-1.57074 17.642093,6.08348 11.231161,0.40645 19.404336,17.18297 8.173176,16.77652 7.654224,8.22904 1.570742,25.87114 -6.083481,17.6421 -0.406458,11.23117 -17.182975,19.40434 z"/>
    <g aria-label="New moon" id="text40331" style="font-size:3.51315px;line-height:1.25;stroke-width:0.0878287">
      <path d="m 147.94132,285.01709 h 0.46659 l 1.1356,2.14254 v -2.14254 h 0.33622 v 2.5611 h -0.46659 l -1.1356,-2.14255 v 2.14255 h -0.33622 z" id="path64792"/>
      <path d="m 152.19896,286.53865 v 0.15439 h -1.45123 q 0.0206,0.32592 0.19555,0.49746 0.17669,0.16983 0.49061,0.16983 0.18183,0 0.35166,-0.0446 0.17154,-0.0446 0.33965,-0.1338 v 0.29848 q -0.16983,0.072 -0.34823,0.10978 -0.1784,0.0377 -0.36195,0.0377 -0.45973,0 -0.72905,-0.2676 -0.2676,-0.2676 -0.2676,-0.7239 0,-0.47174 0.25388,-0.74792 0.25559,-0.27789 0.68788,-0.27789 0.38768,0 0.6124,0.25045 0.22643,0.24873 0.22643,0.67758 z m -0.31564,-0.0926 q -0.003,-0.25903 -0.1458,-0.41341 -0.14067,-0.15439 -0.37396,-0.15439 -0.26418,0 -0.42371,0.14924 -0.15782,0.14924 -0.18183,0.42027 z" id="path64794"/>
      <path d="m 152.53346,285.65693 h 0.31564 l 0.39454,1.49927 0.39283,-1.49927 h 0.37224 l 0.39455,1.49927 0.39282,-1.49927 h 0.31564 l -0.50262,1.92126 h -0.37224 l -0.41341,-1.57475 -0.41513,1.57475 h -0.37224 z" id="path64796"/>
      <path d="m 158.20288,286.02574 q 0.11836,-0.21271 0.28304,-0.31391 0.16468,-0.10121 0.38768,-0.10121 0.3002,0 0.46316,0.21099 0.16296,0.20928 0.16296,0.59696 v 1.15962 h -0.31735 v -1.14933 q 0,-0.27618 -0.0978,-0.40998 -0.0978,-0.1338 -0.29848,-0.1338 -0.24531,0 -0.38769,0.16296 -0.14237,0.16297 -0.14237,0.44429 v 1.08586 h -0.31735 v -1.14933 q 0,-0.27789 -0.0978,-0.40998 -0.0978,-0.1338 -0.30191,-0.1338 -0.24188,0 -0.38426,0.16468 -0.14237,0.16296 -0.14237,0.44257 v 1.08586 h -0.31735 v -1.92126 h 0.31735 v 0.29848 q 0.10807,-0.17668 0.25902,-0.26074 0.15096,-0.084 0.35852,-0.084 0.20928,0 0.35509,0.10635 0.14753,0.10636 0.21786,0.30877 z" id="path64798"/>
      <path d="m 160.87376,285.87822 q -0.25388,0 -0.4014,0.19899 -0.14753,0.19727 -0.14753,0.54206 0,0.3448 0.14581,0.54379 0.14753,0.19727 0.40312,0.19727 0.25217,0 0.39969,-0.19899 0.14753,-0.19898 0.14753,-0.54207 0,-0.34136 -0.14753,-0.54035 -0.14752,-0.2007 -0.39969,-0.2007 z m 0,-0.2676 q 0.4117,0 0.64671,0.2676 0.23501,0.2676 0.23501,0.74105 0,0.47174 -0.23501,0.74106 -0.23501,0.2676 -0.64671,0.2676 -0.41341,0 -0.64842,-0.2676 -0.23329,-0.26932 -0.23329,-0.74106 0,-0.47345 0.23329,-0.74105 0.23501,-0.2676 0.64842,-0.2676 z" id="path64800"/>
      <path d="m 163.02317,285.87822 q -0.25388,0 -0.40141,0.19899 -0.14752,0.19727 -0.14752,0.54206 0,0.3448 0.14581,0.54379 0.14752,0.19727 0.40312,0.19727 0.25216,0 0.39969,-0.19899 0.14752,-0.19898 0.14752,-0.54207 0,-0.34136 -0.14752,-0.54035 -0.14753,-0.2007 -0.39969,-0.2007 z m 0,-0.2676 q 0.41169,0 0.6467,0.2676 0.23502,0.2676 0.23502,0.74105 0,0.47174 -0.23502,0.74106 -0.23501,0.2676 -0.6467,0.2676 -0.41342,0 -0.64843,-0.2676 -0.23329,-0.26932 -0.23329,-0.74106 0,-0.47345 0.23329,-0.74105 0.23501,-0.2676 0.64843,-0.2676 z" id="path64802"/>
      <path d="m 166.02513,286.41857 v 1.15962 h -0.31564 v -1.14933 q 0,-0.27274 -0.10635,-0.40826 -0.10636,-0.13552 -0.31907,-0.13552 -0.25559,0 -0.40312,0.16296 -0.14752,0.16297 -0.14752,0.44429 v 1.08586 h -0.31735 v -1.92126 h 0.31735 v 0.29848 q 0.11321,-0.17325 0.26588,-0.25902 0.15439,-0.0858 0.35509,-0.0858 0.33108,0 0.5009,0.20584 0.16983,0.20414 0.16983,0.60211 z" id="path64804"/>
    </g>
    <g aria-label="Full Moon" id="text46263" style="font-size:3.51316px;line-height:1.25;-inkscape-font-specification:'sans-serif, Normal';stroke-width:0.109807">
      <path d="m 147.94132,277.56182 h 1.47183 v 0.29162 h -1.12531 v 0.75478 h 1.01552 v 0.29162 h -1.01552 v 1.22308 h -0.34652 z" id="path64775"/>
      <path d="m 149.72364,279.36471 v -1.16304 h 0.31563 v 1.15104 q 0,0.27275 0.10636,0.40998 0.10635,0.13552 0.31906,0.13552 0.2556,0 0.40312,-0.16297 0.14924,-0.16296 0.14924,-0.44429 v -1.08928 h 0.31564 v 1.92125 h -0.31564 v -0.29505 q -0.11493,0.17498 -0.2676,0.26075 -0.15096,0.084 -0.35166,0.084 -0.33107,0 -0.50261,-0.20585 -0.17154,-0.20585 -0.17154,-0.60211 z m 0.79423,-1.20936 z" id="path64777"/>
      <path d="m 151.98283,277.45375 h 0.31564 v 2.66917 h -0.31564 z" id="path64779"/>
      <path d="m 152.9589,277.45375 h 0.31563 v 2.66917 h -0.31563 z" id="path64781"/>
      <path d="m 155.06542,277.56182 h 0.51634 l 0.65357,1.74285 0.657,-1.74285 h 0.51634 v 2.5611 h -0.33793 v -2.2489 l -0.66044,1.75658 h -0.34822 l -0.66044,-1.75658 v 2.2489 h -0.33622 z" id="path64783"/>
      <path d="m 158.82732,278.42295 q -0.25388,0 -0.40141,0.19899 -0.14752,0.19727 -0.14752,0.54207 0,0.3448 0.14581,0.54379 0.14752,0.19727 0.40312,0.19727 0.25216,0 0.39969,-0.19899 0.14752,-0.19899 0.14752,-0.54207 0,-0.34137 -0.14752,-0.54035 -0.14753,-0.20071 -0.39969,-0.20071 z m 0,-0.2676 q 0.4117,0 0.64671,0.2676 0.23501,0.26761 0.23501,0.74106 0,0.47174 -0.23501,0.74106 -0.23501,0.2676 -0.64671,0.2676 -0.41342,0 -0.64843,-0.2676 -0.23329,-0.26932 -0.23329,-0.74106 0,-0.47345 0.23329,-0.74106 0.23501,-0.2676 0.64843,-0.2676 z" id="path64785"/>
      <path d="m 160.97673,278.42295 q -0.25388,0 -0.40141,0.19899 -0.14753,0.19727 -0.14753,0.54207 0,0.3448 0.14581,0.54379 0.14753,0.19727 0.40313,0.19727 0.25216,0 0.39969,-0.19899 0.14752,-0.19899 0.14752,-0.54207 0,-0.34137 -0.14752,-0.54035 -0.14753,-0.20071 -0.39969,-0.20071 z m 0,-0.2676 q 0.41169,0 0.64671,0.2676 0.23501,0.26761 0.23501,0.74106 0,0.47174 -0.23501,0.74106 -0.23502,0.2676 -0.64671,0.2676 -0.41342,0 -0.64843,-0.2676 -0.23329,-0.26932 -0.23329,-0.74106 0,-0.47345 0.23329,-0.74106 0.23501,-0.2676 0.64843,-0.2676 z" id="path64787"/>
      <path d="m 163.97869,278.96331 v 1.15961 h -0.31563 v -1.14932 q 0,-0.27275 -0.10636,-0.40827 -0.10635,-0.13552 -0.31906,-0.13552 -0.2556,0 -0.40312,0.16297 -0.14753,0.16296 -0.14753,0.44429 v 1.08585 h -0.31735 v -1.92125 h 0.31735 v 0.29848 q 0.11322,-0.17326 0.26589,-0.25903 0.15439,-0.0858 0.35509,-0.0858 0.33107,0 0.5009,0.20585 0.16982,0.20413 0.16982,0.60211 z" id="path64789"/>
    </g>
  </g>
  </svg>
