<svg xmlns:inkscape="http://www.inkscape.org/namespaces/inkscape" xmlns:sodipodi="http://sodipodi.sourceforge.net/DTD/sodipodi-0.dtd" xmlns:xlink="http://www.w3.org/1999/xlink" xmlns="http://www.w3.org/2000/svg" xmlns:svg="http://www.w3.org/2000/svg" width="302mm" height="302mm" viewBox="0 0 302 302" version="1.1" id="svg5" inkscape:version="1.1.2 (0a00cf5339, 2022-02-04)" sodipodi:docname="moon_layout.svg"><g inkscape:groupmode="layer" id="layer2" inkscape:label="Months" sodipodi:insensitive="true" style="display:inline">
    <g aria-label="1" id="text3609" style="font-size:3.88056px;line-height:1.25;font-family:'Century Gothic';-inkscape-font-specification:'Century Gothic, Normal';stroke-width:0.264583">
      <path d="m 25.502555,14.944342 h 0.547598 V 17.7316 h -0.276641 v -2.514406 h -0.4377 z" id="path16682"/>
    </g>
    <g aria-label="2" id="text4449" style="font-size:3.88056px;line-height:1.25;font-family:'Century Gothic';-inkscape-font-specification:'Century Gothic, Normal';stroke-width:0.264583">
      <path d="m 33.942408,15.852897 h -0.267167 q 0.01137,-0.413068 0.274746,-0.678341 0.265273,-0.265272 0.653708,-0.265272 0.384645,0 0.621496,0.248219 0.238745,0.24822 0.238745,0.585495 0,0.23685 -0.113688,0.445279 -0.113688,0.206534 -0.441489,0.560862 l -0.693499,0.748448 h 1.286572 v 0.269062 h -1.892909 l 1.06488,-1.150146 q 0.324011,-0.346749 0.420646,-0.513492 0.09853,-0.168638 0.09853,-0.354329 0,-0.234955 -0.176217,-0.403593 -0.174322,-0.170533 -0.428225,-0.170533 -0.267168,0 -0.445279,0.178112 -0.176217,0.178112 -0.20085,0.500229 z" id="path16685"/>
    </g>
    <g aria-label="3" id="text4849" style="font-size:3.88056px;line-height:1.25;font-family:'Century Gothic';-inkscape-font-specification:'Century Gothic, Normal';stroke-width:0.264583">
      <path d="m 42.862586,15.590471 h -0.28422 q 0.07769,-0.344855 0.297484,-0.530546 0.219797,-0.185691 0.519177,-0.185691 0.217902,0 0.405488,0.100425 0.18948,0.09853 0.2918,0.267167 0.104214,0.168638 0.104214,0.352434 0,0.360013 -0.358118,0.570336 0.200849,0.08148 0.329696,0.238746 0.181901,0.221692 0.181901,0.496439 0,0.23685 -0.125057,0.452858 -0.125057,0.214113 -0.341065,0.331591 -0.216008,0.117478 -0.483175,0.117478 -0.360013,0 -0.600653,-0.206534 -0.24064,-0.208429 -0.314538,-0.610127 h 0.272852 q 0.072,0.270957 0.206534,0.392224 0.172427,0.15348 0.439595,0.15348 0.303168,0 0.486964,-0.181902 0.183796,-0.181901 0.183796,-0.426331 0,-0.162953 -0.09284,-0.305063 -0.09095,-0.142111 -0.246325,-0.214113 -0.153479,-0.072 -0.47749,-0.08906 v -0.255799 q 0.191375,0 0.348644,-0.06632 0.157268,-0.06821 0.227376,-0.172427 0.072,-0.104214 0.072,-0.227377 0,-0.181901 -0.1459,-0.314537 -0.144005,-0.132637 -0.365697,-0.132637 -0.180007,0 -0.310748,0.10232 -0.130742,0.100425 -0.221693,0.34296 z" id="path16688"/>
    </g>
    <g aria-label="4" id="text5051" style="font-size:3.88056px;line-height:1.25;font-family:'Century Gothic';-inkscape-font-specification:'Century Gothic, Normal';stroke-width:0.264583">
      <path d="m 52.859972,14.909284 h 0.05684 v 1.942175 h 0.337276 v 0.267167 h -0.337276 v 0.648023 H 52.63828 v -0.648023 h -1.332048 z m -0.221692,1.942175 v -1.161516 l -0.82045,1.161516 z" id="path16691"/>
    </g>
    <g aria-label="5" id="text5297" style="font-size:3.88056px;line-height:1.25;font-family:'Century Gothic';-inkscape-font-specification:'Century Gothic, Normal';stroke-width:0.264583">
      <path d="m 61.981955,14.909277 v 0.265273 h -0.992877 l -0.138321,0.759817 q 0.181901,-0.05306 0.327801,-0.05306 0.380856,0 0.62718,0.255799 0.24822,0.253904 0.24822,0.651813 0,0.274746 -0.126952,0.504018 -0.126952,0.229271 -0.344855,0.352433 -0.216007,0.121268 -0.500228,0.121268 -0.33917,0 -0.572231,-0.206534 -0.233061,-0.208428 -0.278536,-0.538124 h 0.286115 q 0.03221,0.161058 0.108004,0.261483 0.07769,0.100424 0.204639,0.162953 0.128847,0.06063 0.269062,0.06063 0.274747,0 0.471807,-0.208429 0.197059,-0.208428 0.197059,-0.521071 0,-0.282326 -0.178111,-0.458543 -0.178112,-0.176217 -0.475596,-0.176217 -0.246325,0 -0.596864,0.14969 l 0.257694,-1.383208 z" id="path16694"/>
    </g>
    <g aria-label="6" id="text5553" style="font-size:3.88056px;line-height:1.25;font-family:'Century Gothic';-inkscape-font-specification:'Century Gothic, Normal';stroke-width:0.264583">
      <path d="m 70.308122,14.874234 0.229272,0.14969 -0.752238,1.140672 q 0.151585,-0.05116 0.284221,-0.05116 0.331591,0 0.562757,0.24064 0.231166,0.238745 0.231166,0.589284 0,0.24064 -0.111793,0.435805 -0.111794,0.19327 -0.318327,0.308853 -0.204639,0.113689 -0.44149,0.113689 -0.229271,0 -0.426331,-0.109899 -0.195165,-0.111794 -0.306958,-0.312643 -0.111794,-0.200849 -0.111794,-0.430121 0,-0.170532 0.06821,-0.358118 0.07011,-0.18948 0.24822,-0.454753 z m -0.305063,1.483632 q -0.242535,0 -0.414962,0.172428 -0.170533,0.170532 -0.170533,0.414962 0,0.242535 0.170533,0.414962 0.172427,0.170533 0.414962,0.170533 0.242535,0 0.413067,-0.170533 0.172428,-0.172427 0.172428,-0.414962 0,-0.24443 -0.172428,-0.414962 -0.170532,-0.172428 -0.413067,-0.172428 z" id="path16697"/>
    </g>
    <g aria-label="7" id="text5821" style="font-size:3.88056px;line-height:1.25;font-family:'Century Gothic';-inkscape-font-specification:'Century Gothic, Normal';stroke-width:0.264583">
      <path d="m 77.983424,14.909277 h 1.767852 l -1.491211,2.857366 -0.229271,-0.117478 1.288467,-2.47651 h -1.335837 z" id="path16700"/>
    </g>
    <g aria-label="8" id="text6327" style="font-size:3.88056px;line-height:1.25;font-family:'Century Gothic';-inkscape-font-specification:'Century Gothic, Normal';stroke-width:0.264583">
      <path d="m 88.146599,16.202492 q 0.282326,0.140216 0.403594,0.320222 0.123162,0.180007 0.123162,0.409278 0,0.322117 -0.210323,0.568442 -0.257694,0.301274 -0.737079,0.301274 -0.462333,0 -0.701078,-0.263378 -0.238746,-0.265273 -0.238746,-0.5836 0,-0.233061 0.125058,-0.418752 0.125057,-0.187586 0.416857,-0.333486 -0.204639,-0.106109 -0.306959,-0.263377 -0.102319,-0.157269 -0.102319,-0.337276 0,-0.181901 0.108004,-0.354328 0.109898,-0.174322 0.301274,-0.272852 0.19327,-0.100425 0.416857,-0.100425 0.217902,0 0.403593,0.100425 0.185691,0.100425 0.289905,0.272852 0.106109,0.172427 0.106109,0.361908 0,0.18948 -0.100425,0.337275 -0.09853,0.147795 -0.297484,0.255798 z m -0.414962,-1.057301 q -0.229271,0 -0.380856,0.136426 -0.149689,0.134532 -0.149689,0.322117 0,0.185691 0.161058,0.337275 0.162953,0.14969 0.378961,0.14969 0.138321,0 0.261483,-0.06821 0.123162,-0.06821 0.191375,-0.185691 0.07011,-0.119373 0.07011,-0.238745 0,-0.168638 -0.136426,-0.310748 -0.136426,-0.142111 -0.396014,-0.142111 z m 0.01326,1.197517 q -0.288011,0 -0.483176,0.187586 -0.195165,0.185691 -0.195165,0.43391 0,0.153479 0.08337,0.289905 0.08337,0.136426 0.233061,0.210323 0.149689,0.0739 0.346749,0.0739 0.305064,0 0.48507,-0.180007 0.180007,-0.180006 0.180007,-0.420646 0,-0.233061 -0.191376,-0.413068 -0.18948,-0.181901 -0.458542,-0.181901 z" id="path16703"/>
    </g>
    <g aria-label="9" id="text6899" style="font-size:3.88056px;line-height:1.25;font-family:'Century Gothic';-inkscape-font-specification:'Century Gothic, Normal';stroke-width:0.264583">
      <path d="m 96.28897,17.801708 -0.229272,-0.147795 0.752238,-1.140673 q -0.151585,0.04927 -0.284221,0.04927 -0.331591,0 -0.562757,-0.238745 -0.231166,-0.24064 -0.231166,-0.591179 0,-0.24064 0.111793,-0.43391 0.111794,-0.19327 0.316433,-0.308854 0.206534,-0.115583 0.441489,-0.115583 0.231166,0 0.426331,0.111794 0.19706,0.111793 0.308854,0.312643 0.111793,0.200849 0.111793,0.428225 0,0.172428 -0.07011,0.361908 -0.06821,0.187586 -0.246324,0.452858 z m 0.303168,-1.483632 q 0.24443,0 0.414963,-0.170533 0.172427,-0.172427 0.172427,-0.414962 0,-0.242535 -0.172427,-0.413068 -0.170533,-0.172427 -0.414963,-0.172427 -0.242535,0 -0.414962,0.172427 -0.170532,0.170533 -0.170532,0.413068 0,0.242535 0.170532,0.414962 0.172427,0.170533 0.414962,0.170533 z" id="path16706"/>
    </g>
    <g aria-label="10" id="text7233" style="font-size:3.88056px;line-height:1.25;font-family:'Century Gothic';-inkscape-font-specification:'Century Gothic, Normal';stroke-width:0.264583">
      <path d="m 103.8089,14.944342 h 0.5476 V 17.7316 h -0.27665 v -2.514406 h -0.43769 z" id="path16709"/>
      <path d="m 105.36453,16.338918 q 0,-0.551388 0.11748,-0.852662 0.11937,-0.301274 0.33538,-0.456648 0.21601,-0.155374 0.48318,-0.155374 0.27095,0 0.49075,0.157269 0.2198,0.155374 0.34675,0.468017 0.12885,0.312643 0.12885,0.839398 0,0.524861 -0.12696,0.835609 -0.12505,0.310748 -0.34674,0.469912 -0.2217,0.157269 -0.49265,0.157269 -0.26717,0 -0.48128,-0.15348 -0.21412,-0.153479 -0.33538,-0.456648 -0.11938,-0.305063 -0.11938,-0.852662 z m 0.26338,0.0057 q 0,0.471806 0.0834,0.714341 0.0853,0.24064 0.25012,0.365697 0.16484,0.125058 0.34864,0.125058 0.18569,0 0.34675,-0.121268 0.16106,-0.123162 0.24443,-0.367592 0.10421,-0.297484 0.10421,-0.716236 0,-0.420647 -0.0928,-0.687814 -0.0928,-0.269063 -0.2577,-0.392225 -0.16295,-0.125057 -0.34485,-0.125057 -0.18569,0 -0.34864,0.125057 -0.16296,0.123162 -0.24822,0.365697 -0.0853,0.240641 -0.0853,0.714342 z" id="path16711"/>
    </g>
    <g aria-label="11" id="text9185" style="font-size:3.88056px;line-height:1.25;font-family:'Century Gothic';-inkscape-font-specification:'Century Gothic, Normal';stroke-width:0.264583">
      <path d="m 113.0512,14.944342 h 0.5476 V 17.7316 h -0.27664 v -2.514406 h -0.4377 z" id="path16714"/>
      <path d="m 115.2018,14.944342 h 0.5476 V 17.7316 h -0.27664 v -2.514406 h -0.4377 z" id="path16716"/>
    </g>
    <g aria-label="12" id="text10019" style="font-size:3.88056px;line-height:1.25;font-family:'Century Gothic';-inkscape-font-specification:'Century Gothic, Normal';stroke-width:0.264583">
      <path d="m 121.54222,14.979392 h 0.5476 v 2.787257 h -0.27664 v -2.514406 h -0.4377 z" id="path16719"/>
      <path d="m 123.42376,15.852897 h -0.26717 q 0.0114,-0.413068 0.27475,-0.678341 0.26527,-0.265272 0.65371,-0.265272 0.38464,0 0.62149,0.248219 0.23875,0.24822 0.23875,0.585495 0,0.23685 -0.11369,0.445279 -0.11369,0.206534 -0.44149,0.560862 l -0.6935,0.748448 h 1.28658 v 0.269062 h -1.89291 l 1.06488,-1.150146 q 0.32401,-0.346749 0.42064,-0.513492 0.0985,-0.168638 0.0985,-0.354329 0,-0.234955 -0.17621,-0.403593 -0.17433,-0.170533 -0.42823,-0.170533 -0.26717,0 -0.44528,0.178112 -0.17622,0.178112 -0.20085,0.500229 z" id="path16721"/>
    </g>
  </g>
  </svg>
