<svg xmlns:inkscape="http://www.inkscape.org/namespaces/inkscape" xmlns:sodipodi="http://sodipodi.sourceforge.net/DTD/sodipodi-0.dtd" xmlns:xlink="http://www.w3.org/1999/xlink" xmlns="http://www.w3.org/2000/svg" xmlns:svg="http://www.w3.org/2000/svg" width="302mm" height="302mm" viewBox="0 0 302 302" version="1.1" id="svg5" inkscape:version="1.1.2 (0a00cf5339, 2022-02-04)" sodipodi:docname="moon_layout.svg"><g inkscape:groupmode="layer" id="layer6" inkscape:label="New Moon" style="display:inline" sodipodi:insensitive="true">
    <path id="path87253" style="fill:none;stroke:#000000;stroke-width:0.691261" d="m 29.027155,112.35605 a 3.6231198,3.6231198 0 0 1 -3.623119,3.62312 3.6231198,3.6231198 0 0 1 -3.62312,-3.62312 3.6231198,3.6231198 0 0 1 3.62312,-3.62312 3.6231198,3.6231198 0 0 1 3.623119,3.62312 z"/>
    <path id="path87253-7" style="fill:none;stroke:#000000;stroke-width:0.691261" d="m 37.882874,94.447449 a 3.6231198,3.6231198 0 0 1 -3.62312,3.62312 3.6231198,3.6231198 0 0 1 -3.62312,-3.62312 3.6231198,3.6231198 0 0 1 3.62312,-3.62312 3.6231198,3.6231198 0 0 1 3.62312,3.62312 z"/>
    <path id="path87253-7-1" style="fill:none;stroke:#000000;stroke-width:0.691261" d="m 46.852028,103.39888 a 3.6231198,3.6231198 0 0 1 -3.623119,3.62312 3.6231198,3.6231198 0 0 1 -3.62312,-3.62312 3.6231198,3.6231198 0 0 1 3.62312,-3.62312 3.6231198,3.6231198 0 0 1 3.623119,3.62312 z"/>
    <path id="path87253-7-1-3" style="display:inline;fill:none;stroke:#000000;stroke-width:0.4863" d="m 144.3482,286.32249 a 2.5488515,2.5488515 0 0 1 -2.54885,2.54885 2.5488515,2.5488515 0 0 1 -2.54885,-2.54885 2.5488515,2.5488515 0 0 1 2.54885,-2.54885 2.5488515,2.5488515 0 0 1 2.54885,2.54885 z"/>
    <path id="path87253-7-3" style="fill:none;stroke:#000000;stroke-width:0.691261" d="m 55.906731,85.48175 a 3.6231198,3.6231198 0 0 1 -3.62312,3.62312 3.6231198,3.6231198 0 0 1 -3.62312,-3.62312 3.6231198,3.6231198 0 0 1 3.62312,-3.623119 3.6231198,3.6231198 0 0 1 3.62312,3.623119 z"/>
    <path id="path87253-7-8" style="fill:none;stroke:#000000;stroke-width:0.691261" d="m 64.768872,76.526855 a 3.6231198,3.6231198 0 0 1 -3.62312,3.62312 3.6231198,3.6231198 0 0 1 -3.62312,-3.62312 3.6231198,3.6231198 0 0 1 3.62312,-3.623119 3.6231198,3.6231198 0 0 1 3.62312,3.623119 z"/>
    <path id="path87253-7-4" style="fill:none;stroke:#000000;stroke-width:0.691261" d="m 73.724057,67.472145 a 3.6231198,3.6231198 0 0 1 -3.62312,3.62312 3.6231198,3.6231198 0 0 1 -3.62312,-3.62312 3.6231198,3.6231198 0 0 1 3.62312,-3.62312 3.6231198,3.6231198 0 0 1 3.62312,3.62312 z"/>
    <path id="path87253-7-34" style="fill:none;stroke:#000000;stroke-width:0.691261" d="m 82.67548,58.533539 a 3.6231198,3.6231198 0 0 1 -3.623119,3.62312 3.6231198,3.6231198 0 0 1 -3.62312,-3.62312 3.6231198,3.6231198 0 0 1 3.62312,-3.62312 3.6231198,3.6231198 0 0 1 3.623119,3.62312 z"/>
    <path id="path87253-7-5" style="fill:none;stroke:#000000;stroke-width:0.691261" d="m 91.533871,49.554749 a 3.6231198,3.6231198 0 0 1 -3.62312,3.623119 3.6231198,3.6231198 0 0 1 -3.623119,-3.623119 3.6231198,3.6231198 0 0 1 3.623119,-3.62312 3.6231198,3.6231198 0 0 1 3.62312,3.62312 z"/>
    <path id="path87253-7-0" style="fill:none;stroke:#000000;stroke-width:0.691261" d="m 100.47787,31.613251 a 3.6231198,3.6231198 0 0 1 -3.623118,3.62312 3.6231198,3.6231198 0 0 1 -3.62312,-3.62312 3.6231198,3.6231198 0 0 1 3.62312,-3.62312 3.6231198,3.6231198 0 0 1 3.623118,3.62312 z"/>
    <path id="path87253-7-04" style="fill:none;stroke:#000000;stroke-width:0.691261" d="m 109.42987,31.716518 a 3.6231198,3.6231198 0 0 1 -3.62312,3.62312 3.6231198,3.6231198 0 0 1 -3.62312,-3.62312 3.6231198,3.6231198 0 0 1 3.62312,-3.623119 3.6231198,3.6231198 0 0 1 3.62312,3.623119 z"/>
    <path id="path87253-7-80" style="fill:none;stroke:#000000;stroke-width:0.691261" d="m 118.50587,22.858749 a 3.6231198,3.6231198 0 0 1 -3.62312,3.62312 3.6231198,3.6231198 0 0 1 -3.62312,-3.62312 3.6231198,3.6231198 0 0 1 3.62312,-3.623119 3.6231198,3.6231198 0 0 1 3.62312,3.623119 z"/>
    <path id="path87253-7-2" style="fill:none;stroke:#000000;stroke-width:0.691261" d="m 127.17587,22.91975 a 3.6231198,3.6231198 0 0 1 -3.62312,3.62312 3.6231198,3.6231198 0 0 1 -3.62312,-3.62312 3.6231198,3.6231198 0 0 1 3.62312,-3.62312 3.6231198,3.6231198 0 0 1 3.62312,3.62312 z"/>
    <path id="path87253-7-9" style="fill:none;stroke:#000000;stroke-width:0.691261" d="m 127.46811,282.15628 a 3.6231198,3.6231198 0 0 1 -3.62312,3.62312 3.6231198,3.6231198 0 0 1 -3.62312,-3.62312 3.6231198,3.6231198 0 0 1 3.62312,-3.62312 3.6231198,3.6231198 0 0 1 3.62312,3.62312 z"/>
  </g>
  </svg>
