<svg xmlns:xlink="http://www.w3.org/1999/xlink" xmlns="http://www.w3.org/2000/svg" xmlns:svg="http://www.w3.org/2000/svg" width="302mm" height="302mm" viewBox="0 0 302 302" version="1.1" id="svg5"><g id="layer9" style="display:inline">
    <g aria-label="&#8220;My home is such a powerfully imaginative place that the space is almost irrelevant. I think the house I live at on the Hudson is where I belong because it&#8217;s the only place where I am that I never think about when I&#8217;m leaving.&#8221;  " id="text95315" style="font-size:4.20898px;line-height:1.25;font-family:'Century Gothic';-inkscape-font-specification:'Century Gothic, Normal';white-space:pre;inline-size:53.5486;stroke-width:0.286975">
      <g id="text1" style="font-size:5.64444px;font-family:'Berlin Sans FB';-inkscape-font-specification:'Berlin Sans FB, Normal';stroke-width:0.0759288" aria-label="darling, &#10;the moon&#10;is still the moon&#10;in all of its phases.&#10;&#10;&#10;  Isra Al-Thibeh">
        <path d="m 137.61736,213.01897 q 0,0.35553 -0.0331,1.0666 -0.0303,0.70831 -0.0303,1.06109 0,1.08865 0.0469,1.64813 l 0.003,0.0358 q 0.003,0.0276 -0.0744,0.0358 -0.0524,0.006 -0.14883,0 -0.11576,-0.008 -0.10749,-0.008 -0.0413,0 -0.12127,0.008 -0.0799,0.008 -0.12126,0.008 -0.0386,0 -0.0469,-0.19017 -0.006,-0.19293 -0.0193,-0.19568 -0.0165,0.008 -0.0413,0.0358 -0.37758,0.4079 -0.86816,0.4079 -0.55673,0 -0.91502,-0.42444 -0.339,-0.39963 -0.339,-0.96463 0,-0.58704 0.34175,-0.98667 0.35829,-0.41892 0.93431,-0.41892 0.34727,0 0.60634,0.20395 0.11851,0.10197 0.23427,0.2067 0.0221,-0.008 0.0221,-0.0386 v -0.89297 q 0,-0.0909 -0.008,-0.27561 -0.008,-0.18466 -0.008,-0.27836 0,-0.0662 0.0441,-0.0662 0.10197,0 0.30316,-0.0165 0.2012,-0.0193 0.30042,-0.0193 0.0468,0 0.0468,0.0579 z m -0.68902,2.50803 q 0,-0.33073 -0.20395,-0.58153 -0.21773,-0.26734 -0.54019,-0.26734 -0.339,0 -0.55948,0.26458 -0.20946,0.24805 -0.20946,0.59531 0,0.33073 0.21773,0.57602 0.22324,0.25907 0.55121,0.25907 0.33073,0 0.5457,-0.26183 0.19844,-0.24529 0.19844,-0.58428 z m 3.85851,-1.15755 q 0,0.011 -0.008,0.0496 -0.10749,0.63114 -0.10749,1.08864 0,0.0276 0.0689,1.23748 l 0.003,0.0386 q 0.003,0.0799 -0.0744,0.0799 -0.0744,0 -0.22875,0.0165 -0.15158,0.0193 -0.226,0.0193 -0.0524,0 -0.0799,-0.19292 -0.0276,-0.19293 -0.0524,-0.19293 -0.0165,0 -0.14883,0.10749 -0.16261,0.13229 -0.30317,0.20119 -0.21773,0.11025 -0.43546,0.11025 -0.53467,0 -0.90123,-0.4272 -0.34727,-0.4079 -0.34727,-0.95084 0,-0.61185 0.35002,-1.01148 0.36656,-0.41617 0.96463,-0.41617 0.42168,0 0.73587,0.29215 0.0469,0.0551 0.14607,0.15985 0.008,0.008 0.0165,0.008 0.0165,0 0.0469,-0.17364 0.0303,-0.17363 0.0772,-0.17363 0.0744,0 0.27837,0.0413 0.226,0.0496 0.226,0.0882 z m -0.7028,1.15204 q 0,-0.339 -0.2012,-0.58154 -0.21221,-0.26182 -0.54294,-0.26182 -0.33073,0 -0.55122,0.25907 -0.21222,0.24804 -0.21222,0.58429 0,0.33348 0.21222,0.57877 0.22049,0.25632 0.55122,0.25632 0.32246,0 0.54019,-0.26183 0.20395,-0.24529 0.20395,-0.57326 z m 2.72851,-1.24575 q 0,0.30317 -0.0413,0.55121 -0.008,0.0634 -0.0551,0.0634 -0.0579,0 -0.17639,-0.011 -0.11576,-0.0138 -0.17639,-0.0138 -0.34727,0 -0.44373,0.19568 -0.0579,0.11851 -0.0579,0.49334 v 0.30317 q 0,0.15434 0.011,0.46853 0.0138,0.31419 0.0138,0.46853 0,0.0744 -0.0634,0.0744 -0.0854,0 -0.25907,-0.003 -0.17363,-0.003 -0.25907,-0.003 -0.0634,0 -0.0634,-0.0689 0,-0.22324 0.006,-0.67248 0.008,-0.44924 0.008,-0.67524 0,-0.68075 -0.12678,-1.09416 -0.006,-0.0221 -0.006,-0.0331 0,-0.0331 0.0358,-0.0469 0.10197,-0.011 0.28663,-0.0331 0.29765,-0.0551 0.2756,-0.0551 0.0441,0 0.0579,0.16261 0.0138,0.16261 0.0496,0.16261 0.006,0 0.0138,-0.006 0.113,-0.0717 0.226,-0.14331 0.12402,-0.0744 0.25356,-0.11025 0.10749,-0.0331 0.27561,-0.0331 0.21497,0 0.21497,0.0579 z m 1.00045,-1.23472 -0.003,0.0358 q -0.0606,1.02526 -0.0606,1.76113 0,0.32797 0.011,0.98392 0.011,0.65319 0.011,0.9784 0,0.0634 -0.0441,0.0634 h -0.52641 q -0.0496,0 -0.0496,-0.0634 0,-0.32521 0.006,-0.9784 0.006,-0.65595 0.006,-0.98392 0,-0.29766 -0.0303,-0.89297 -0.0276,-0.59807 -0.0276,-0.89297 0,-0.0551 0.0579,-0.0551 0.0496,0 0.14883,0.008 0.0992,0.008 0.14883,0.008 0.0524,0 0.15434,-0.008 0.10197,-0.008 0.15158,-0.008 0.0496,0 0.0468,0.0441 z m 1.26229,0.52641 q 0,0.339 -0.37759,0.339 -0.38309,0 -0.38309,-0.339 0,-0.15159 0.11851,-0.2508 0.11024,-0.0937 0.26458,-0.0937 0.15434,0 0.26459,0.0965 0.113,0.0965 0.113,0.24805 z m -0.0193,0.74689 q 0,0.21222 -0.0276,0.64217 -0.0248,0.42719 -0.0248,0.64217 0,0.20119 0.008,0.60358 0.008,0.39963 0.008,0.59806 0,0.0579 -0.0496,0.0579 h -0.53744 q -0.0579,0 -0.0579,-0.113 0,-0.19017 0.008,-0.57051 0.011,-0.38309 0.011,-0.57601 0,-0.21498 -0.0331,-0.64493 -0.0303,-0.42994 -0.0303,-0.64492 0,-0.0469 0.0579,-0.0469 0.0496,0 0.15159,0.0138 0.10473,0.0138 0.15709,0.0138 0.0524,0 0.15434,-0.0138 0.10474,-0.0138 0.1571,-0.0138 0.0469,0 0.0469,0.0524 z m 2.97381,2.49425 q 0,0.0606 -0.0551,0.0606 -0.091,0 -0.27285,-0.003 -0.17915,-0.003 -0.2701,-0.003 -0.0496,0 -0.0496,-0.0799 0,-0.13505 0.008,-0.41066 0.008,-0.27561 0.008,-0.41341 0,-0.11024 -0.003,-0.32797 -0.003,-0.22049 -0.003,-0.33073 0,-0.31419 -0.091,-0.44373 -0.11024,-0.15434 -0.40789,-0.15434 -0.13781,0 -0.3831,0.15434 -0.25907,0.16261 -0.25907,0.28939 v 1.65364 q 0,0.0689 -0.0524,0.0689 -0.0882,0 -0.26458,-0.003 -0.17639,-0.003 -0.26458,-0.003 -0.0579,0 -0.0579,-0.0634 0,-0.21773 0.006,-0.65319 0.008,-0.43546 0.008,-0.65594 0,-0.58705 -0.12402,-1.08314 -0.008,-0.0248 -0.008,-0.0358 0,-0.0276 0.0358,-0.0386 0.0193,-0.003 0.31419,-0.0496 0.29766,-0.0496 0.31144,-0.0496 0.0165,0 0.0221,0.0441 0.0138,0.17087 0.0634,0.3445 0.14331,-0.11299 0.37758,-0.28111 0.28939,-0.17639 0.55948,-0.17639 0.51814,0 0.70831,0.30041 0.14056,0.22048 0.14056,0.71382 0,0.0854 -0.006,0.26183 -0.003,0.17639 -0.003,0.26458 0,0.18466 0.006,0.55122 0.006,0.36655 0.006,0.55121 z m 2.95175,-2.51354 q 0,0.33073 -0.006,0.99494 -0.006,0.66146 -0.006,0.99219 0,0.65595 -0.28112,0.96738 -0.2949,0.33073 -0.94258,0.33073 -0.62563,0 -1.01148,-0.23702 -0.0606,-0.0386 -0.0606,-0.0662 0,0.0303 0.0827,-0.40789 0.008,-0.0469 0.0386,-0.0469 0.0138,0 0.0358,0.0138 0.41341,0.23702 0.82957,0.23702 0.27286,0 0.452,-0.12126 0.20671,-0.13781 0.20671,-0.39963 0,-0.0579 -0.011,-0.25907 -0.30592,0.37207 -0.77721,0.37207 -0.50988,0 -0.83785,-0.36656 -0.31419,-0.35278 -0.31419,-0.86817 0,-0.52365 0.30317,-0.89021 0.32246,-0.39136 0.83784,-0.39136 0.45476,0 0.7221,0.35002 0.0441,0.0579 0.0634,0.0579 0.022,0 0.022,-0.0496 0,-0.0358 -0.006,-0.113 -0.006,-0.0799 -0.006,-0.11851 0,-0.16536 0.0331,-0.16536 0.0276,0 0.29766,0.0524 0.27009,0.0496 0.2949,0.0606 0.0386,0.0138 0.0386,0.0717 z m -0.66145,1.1355 q 0,-0.30868 -0.16812,-0.52365 -0.18466,-0.23427 -0.48507,-0.23427 -0.29766,0 -0.48232,0.23703 -0.16812,0.21497 -0.16812,0.52089 0,0.30042 0.17088,0.51815 0.18466,0.23702 0.47956,0.23702 0.29214,0 0.47955,-0.23702 0.17364,-0.21773 0.17364,-0.51815 z m 1.932,0.77722 q 0,0.28112 -0.0965,0.49885 -0.0606,0.1378 -0.33073,0.43546 -0.28939,0.32521 -0.39687,0.32521 -0.0248,0 -0.13229,-0.12678 -0.10749,-0.12678 -0.10749,-0.15985 0,0.006 0.14331,-0.19292 0.14608,-0.19568 0.1571,-0.32798 0,0.0193 0,-0.28938 0,-0.10749 0.30041,-0.18466 0.23978,-0.0606 0.40239,-0.0606 0.0606,0 0.0606,0.0827 z" id="path14"/>
        <path d="m 136.50391,223.41213 q 0,0.0606 -0.011,0.16536 -0.0138,0.12954 -0.0165,0.16812 -0.003,0.0496 -0.008,0.0606 -0.011,0.0193 -0.0524,0.0386 -0.226,0.10749 -0.71107,0.10749 -0.64492,0 -0.64492,-0.58429 0,-0.23427 0.011,-0.7028 0.011,-0.47129 0.011,-0.70556 0,-0.11299 -0.113,-0.12126 -0.10197,0 -0.20119,-0.003 -0.0579,-0.0138 -0.0579,-0.226 0,-0.0799 0.011,-0.16812 0.008,-0.0661 0.0882,-0.0799 0.0689,0 0.13505,-0.003 0.12678,-0.006 0.12678,-0.113 0,-0.11024 -0.008,-0.33624 -0.006,-0.226 -0.006,-0.339 0,-0.20119 0.0772,-0.20119 0.0248,0 0.51814,0.0854 0.0634,0.008 0.0634,0.0606 0,0.12127 -0.0193,0.3638 -0.0165,0.24254 -0.0165,0.36381 0,0.0799 0.0744,0.0799 h 0.66146 q 0.0469,0 0.0469,0.0331 0,0.0331 -0.011,0.10749 -0.008,0.0717 -0.008,0.10749 0,0.0413 0.003,0.12678 0.003,0.0854 0.003,0.12678 0,0.0524 -0.0772,0.0524 -0.11024,0 -0.33348,-0.0138 -0.22324,-0.0165 -0.33349,-0.0165 -0.022,0 -0.0331,0.15709 -0.0138,0.19568 -0.0138,0.54846 v 0.41066 q 0,0.23702 0.0441,0.33072 0.0661,0.14332 0.27285,0.14332 0.0854,0 0.2508,-0.0358 0.16537,-0.0386 0.24529,-0.0386 0.0331,0 0.0331,0.0496 z m 2.80017,0.41065 q 0,0.10198 -0.0579,0.10198 -0.0854,0 -0.25907,-0.003 -0.17363,-0.003 -0.25907,-0.003 -0.0689,0 -0.0689,-0.0909 0,-0.13229 0.008,-0.39963 0.011,-0.26734 0.011,-0.40238 0,-0.12678 -0.011,-0.3831 -0.008,-0.25907 -0.008,-0.38861 0,-0.49609 -0.46854,-0.49609 -0.15158,0 -0.39687,0.15159 -0.26183,0.1626 -0.26183,0.29765 v 1.63711 q 0,0.0799 -0.0579,0.0799 -0.0854,0 -0.25631,-0.003 -0.17088,-0.003 -0.25632,-0.003 -0.0634,0 -0.0634,-0.0744 v -1.33118 q 0,-0.32522 -0.0358,-1.38355 -0.006,-0.32798 -0.0469,-0.97014 -0.006,-0.0331 -0.006,-0.0441 0,-0.0469 0.0331,-0.0579 0.0469,-0.0165 0.31144,-0.0165 0.0579,0 0.17363,-0.0193 0.11576,-0.022 0.16812,-0.022 0.0358,0 0.0358,0.0524 0,0.25907 -0.0221,0.77997 -0.0193,0.51814 -0.0193,0.77721 0,0.0634 0.0221,0.0662 0.14056,-0.11851 0.3638,-0.28663 0.2701,-0.16812 0.57051,-0.16812 0.51814,0 0.71382,0.30868 0.14056,0.226 0.14056,0.71658 0,0.0854 -0.006,0.26458 -0.003,0.17639 -0.003,0.26183 0,0.17639 0.006,0.52641 0.006,0.35002 0.006,0.52365 z m 2.86356,-1.38355 q 0,0.20395 -0.17639,0.27285 -0.11851,0.0441 -1.70601,0.16261 0.0358,0.24254 0.26734,0.41341 0.22048,0.16261 0.47404,0.16261 0.43546,0 0.79926,-0.28112 0.0441,-0.0358 0.0882,-0.0717 0.022,0 0.0276,0.006 0.008,0.006 0.10473,0.19292 0.0965,0.18466 0.0965,0.19844 0,0.0165 -0.0441,0.0634 -0.40515,0.42995 -1.03904,0.42995 -0.63941,0 -1.01975,-0.38034 -0.38034,-0.3831 -0.38034,-1.01975 0,-0.56775 0.3638,-0.98943 0.3831,-0.43822 0.93982,-0.43822 0.51815,0 0.86541,0.38034 0.339,0.36932 0.339,0.89848 z m -0.65595,-0.16812 q 0,-0.22875 -0.1819,-0.40514 -0.17914,-0.17639 -0.40514,-0.17639 -0.25356,0 -0.452,0.20395 -0.19568,0.20395 -0.19568,0.45751 0,0.0579 0.0992,0.0579 0.4079,0 0.97565,-0.0827 0.15985,-0.0221 0.15985,-0.0551 z m 6.64214,1.54616 q 0,0.10749 -0.0634,0.10749 -0.0413,0 -0.12678,-0.008 -0.0827,-0.008 -0.12678,-0.008 -0.0469,0 -0.14056,0.006 -0.0937,0.006 -0.14056,0.006 -0.0579,0 -0.0579,-0.12953 0,-0.12678 0.008,-0.37758 0.011,-0.25356 0.011,-0.38034 0,-0.69729 -0.006,-0.77722 -0.0221,-0.28387 -0.11576,-0.39136 -0.10749,-0.11575 -0.38309,-0.11575 -0.17364,0 -0.39137,0.16536 -0.22599,0.17363 -0.23426,0.34175 -0.011,0.21498 -0.011,0.78549 0,0.13504 0.011,0.40514 0.011,0.27009 0.011,0.40514 0,0.0744 -0.0496,0.0744 -0.0496,0 -0.14607,-0.008 -0.0937,-0.008 -0.14331,-0.008 -0.0441,0 -0.12954,0.006 -0.0854,0.006 -0.12954,0.006 -0.0551,0 -0.0551,-0.0799 0,-0.13229 0.008,-0.39688 0.008,-0.26734 0.008,-0.39963 v -0.66421 q 0,-0.31144 -0.0744,-0.44373 -0.10474,-0.18741 -0.39964,-0.18741 -0.17363,0 -0.41341,0.14607 -0.26458,0.15985 -0.26458,0.32246 v 0.80477 q 0,0.13781 0.003,0.41066 0.003,0.27285 0.003,0.4079 0,0.0799 -0.0634,0.0799 h -0.51263 q -0.0551,0 -0.0551,-0.0744 0,-0.22324 0.003,-0.66973 0.003,-0.44924 0.003,-0.67248 0,-0.50436 -0.10748,-1.00597 -0.008,-0.0358 -0.008,-0.0579 0,-0.0358 0.0248,-0.0413 0.10198,-0.011 0.29766,-0.0413 0.0909,-0.0276 0.27285,-0.0606 l 0.022,-0.003 q 0.0331,0 0.0606,0.19569 0.0303,0.19292 0.0524,0.19292 0,0 0.1378,-0.12127 0.16261,-0.14056 0.32522,-0.22324 0.23426,-0.12127 0.46853,-0.12127 0.6339,0 0.80753,0.51815 0.17088,-0.22049 0.42444,-0.36381 0.27009,-0.15434 0.53467,-0.15434 0.50988,0 0.70556,0.29766 0.14056,0.22049 0.14056,0.69729 0,0.091 -0.006,0.28112 -0.006,0.19017 -0.006,0.28112 0,0.17363 0.008,0.52365 0.008,0.34727 0.008,0.5209 z m 3.04271,-1.24023 q 0,0.57601 -0.37758,0.98391 -0.38585,0.42168 -0.95636,0.42168 -0.57327,0 -0.95912,-0.41892 -0.37758,-0.40514 -0.37758,-0.98116 0,-0.57602 0.37758,-0.98117 0.38861,-0.41341 0.95912,-0.41341 0.56775,0 0.9536,0.41341 0.38034,0.40239 0.38034,0.97566 z m -0.58153,0.006 q 0,-0.33624 -0.20671,-0.57327 -0.21497,-0.2508 -0.5457,-0.2508 -0.33073,0 -0.54846,0.24805 -0.20671,0.23978 -0.20671,0.57602 0,0.33073 0.20947,0.57326 0.22048,0.25632 0.5457,0.25632 0.32797,0 0.5457,-0.25632 0.20671,-0.24253 0.20671,-0.57326 z m 3.46714,-0.006 q 0,0.57601 -0.37759,0.98391 -0.38585,0.42168 -0.95635,0.42168 -0.57327,0 -0.95912,-0.41892 -0.37758,-0.40514 -0.37758,-0.98116 0,-0.57602 0.37758,-0.98117 0.38861,-0.41341 0.95912,-0.41341 0.56775,0 0.9536,0.41341 0.38034,0.40239 0.38034,0.97566 z m -0.58154,0.006 q 0,-0.33624 -0.2067,-0.57327 -0.21497,-0.2508 -0.5457,-0.2508 -0.33073,0 -0.54846,0.24805 -0.20671,0.23978 -0.20671,0.57602 0,0.33073 0.20946,0.57326 0.22049,0.25632 0.54571,0.25632 0.32797,0 0.5457,-0.25632 0.2067,-0.24253 0.2067,-0.57326 z m 3.39825,1.28157 q 0,0.0606 -0.0551,0.0606 -0.0909,0 -0.27285,-0.003 -0.17914,-0.003 -0.27009,-0.003 -0.0496,0 -0.0496,-0.0799 0,-0.13505 0.008,-0.41066 0.008,-0.27561 0.008,-0.41341 0,-0.11024 -0.003,-0.32797 -0.003,-0.22049 -0.003,-0.33073 0,-0.31419 -0.091,-0.44373 -0.11024,-0.15434 -0.4079,-0.15434 -0.1378,0 -0.38309,0.15434 -0.25907,0.16261 -0.25907,0.28939 v 1.65364 q 0,0.0689 -0.0524,0.0689 -0.0882,0 -0.26458,-0.003 -0.17639,-0.003 -0.26458,-0.003 -0.0579,0 -0.0579,-0.0634 0,-0.21773 0.006,-0.65319 0.008,-0.43546 0.008,-0.65594 0,-0.58705 -0.12402,-1.08314 -0.008,-0.0248 -0.008,-0.0358 0,-0.0276 0.0358,-0.0386 0.0193,-0.003 0.31419,-0.0496 0.29765,-0.0496 0.31143,-0.0496 0.0165,0 0.0221,0.0441 0.0138,0.17087 0.0634,0.34451 0.14332,-0.113 0.37759,-0.28112 0.28938,-0.17639 0.55948,-0.17639 0.51814,0 0.70831,0.30041 0.14056,0.22048 0.14056,0.71382 0,0.0854 -0.006,0.26183 -0.003,0.17639 -0.003,0.26458 0,0.18466 0.006,0.55122 0.006,0.36655 0.006,0.55121 z" id="path15"/>
        <path d="m 135.68535,227.67853 q 0,0.339 -0.37758,0.339 -0.3831,0 -0.3831,-0.339 0,-0.15159 0.11852,-0.2508 0.11024,-0.0937 0.26458,-0.0937 0.15434,0 0.26458,0.0965 0.113,0.0965 0.113,0.24805 z m -0.0193,0.74689 q 0,0.21222 -0.0276,0.64217 -0.0248,0.42719 -0.0248,0.64217 0,0.20119 0.008,0.60358 0.008,0.39963 0.008,0.59806 0,0.0579 -0.0496,0.0579 h -0.53743 q -0.0579,0 -0.0579,-0.113 0,-0.19017 0.008,-0.5705 0.011,-0.3831 0.011,-0.57602 0,-0.21498 -0.0331,-0.64493 -0.0303,-0.42994 -0.0303,-0.64492 0,-0.0468 0.0579,-0.0468 0.0496,0 0.15158,0.0138 0.10473,0.0138 0.1571,0.0138 0.0524,0 0.15434,-0.0138 0.10473,-0.0138 0.1571,-0.0138 0.0468,0 0.0468,0.0524 z m 1.83554,1.7005 q 0,0.41066 -0.32797,0.6587 -0.29765,0.226 -0.72485,0.226 -0.16536,0 -0.18741,-0.008 -0.0469,-0.022 -0.0469,-0.13504 0,-0.0606 -0.0165,-0.1819 -0.0138,-0.12127 -0.0138,-0.17915 0,-0.0358 0.0496,-0.0469 0.0358,-0.008 0.10198,0 0.0854,0.008 0.0827,0.008 0.5209,0 0.5209,-0.31971 0,-0.15158 -0.22876,-0.27836 -0.37207,-0.20395 -0.42719,-0.2508 -0.22875,-0.19569 -0.22875,-0.51263 0,-0.41342 0.31143,-0.64493 0.28112,-0.2067 0.71107,-0.2067 0.0386,0 0.0551,0.0358 0.0193,0.0358 0.0689,0.22324 0.0524,0.18741 0.0524,0.226 0,0.0303 -0.0524,0.0386 -0.17639,0.0248 -0.35553,0.0469 -0.21222,0.0579 -0.21222,0.23151 0,0.12402 0.22324,0.2508 0.33073,0.18466 0.41893,0.26734 0.22599,0.21497 0.22599,0.55121 z m 3.09783,0 q 0,0.41066 -0.32797,0.6587 -0.29766,0.226 -0.72485,0.226 -0.16536,0 -0.18741,-0.008 -0.0468,-0.022 -0.0468,-0.13504 0,-0.0606 -0.0165,-0.1819 -0.0138,-0.12127 -0.0138,-0.17915 0,-0.0358 0.0496,-0.0469 0.0358,-0.008 0.10197,0 0.0854,0.008 0.0827,0.008 0.5209,0 0.5209,-0.31971 0,-0.15158 -0.22875,-0.27836 -0.37207,-0.20395 -0.42719,-0.2508 -0.22876,-0.19569 -0.22876,-0.51263 0,-0.41342 0.31144,-0.64493 0.28112,-0.2067 0.71107,-0.2067 0.0386,0 0.0551,0.0358 0.0193,0.0358 0.0689,0.22324 0.0524,0.18741 0.0524,0.226 0,0.0303 -0.0524,0.0386 -0.17639,0.0248 -0.35553,0.0469 -0.21222,0.0579 -0.21222,0.23151 0,0.12402 0.22324,0.2508 0.33073,0.18466 0.41892,0.26734 0.226,0.21497 0.226,0.55121 z m 1.93201,0.34176 q 0,0.0606 -0.011,0.16536 -0.0138,0.12954 -0.0165,0.16812 -0.003,0.0496 -0.008,0.0606 -0.011,0.0193 -0.0524,0.0386 -0.226,0.10749 -0.71107,0.10749 -0.64492,0 -0.64492,-0.58429 0,-0.23427 0.011,-0.7028 0.011,-0.47129 0.011,-0.70556 0,-0.11299 -0.113,-0.12126 -0.10198,0 -0.2012,-0.003 -0.0579,-0.0138 -0.0579,-0.226 0,-0.0799 0.011,-0.16812 0.008,-0.0661 0.0882,-0.0799 0.0689,0 0.13505,-0.003 0.12678,-0.006 0.12678,-0.113 0,-0.11024 -0.008,-0.33624 -0.006,-0.226 -0.006,-0.339 0,-0.20119 0.0772,-0.20119 0.0248,0 0.51814,0.0854 0.0634,0.008 0.0634,0.0606 0,0.12127 -0.0193,0.3638 -0.0165,0.24254 -0.0165,0.36381 0,0.0799 0.0744,0.0799 h 0.66146 q 0.0469,0 0.0469,0.0331 0,0.0331 -0.011,0.10749 -0.008,0.0717 -0.008,0.10749 0,0.0413 0.003,0.12678 0.003,0.0854 0.003,0.12678 0,0.0524 -0.0772,0.0524 -0.11024,0 -0.33349,-0.0138 -0.22324,-0.0165 -0.33348,-0.0165 -0.0221,0 -0.0331,0.15709 -0.0138,0.19568 -0.0138,0.54846 v 0.41066 q 0,0.23702 0.0441,0.33072 0.0661,0.14332 0.27285,0.14332 0.0854,0 0.25081,-0.0358 0.16536,-0.0386 0.24529,-0.0386 0.0331,0 0.0331,0.0496 z m 1.1107,-2.78915 q 0,0.339 -0.37758,0.339 -0.3831,0 -0.3831,-0.339 0,-0.15159 0.11851,-0.2508 0.11025,-0.0937 0.26459,-0.0937 0.15434,0 0.26458,0.0965 0.113,0.0965 0.113,0.24805 z m -0.0193,0.74689 q 0,0.21222 -0.0276,0.64217 -0.0248,0.42719 -0.0248,0.64217 0,0.20119 0.008,0.60358 0.008,0.39963 0.008,0.59806 0,0.0579 -0.0496,0.0579 h -0.53744 q -0.0579,0 -0.0579,-0.113 0,-0.19017 0.008,-0.5705 0.011,-0.3831 0.011,-0.57602 0,-0.21498 -0.0331,-0.64493 -0.0303,-0.42994 -0.0303,-0.64492 0,-0.0468 0.0579,-0.0468 0.0496,0 0.15158,0.0138 0.10473,0.0138 0.1571,0.0138 0.0524,0 0.15434,-0.0138 0.10473,-0.0138 0.15709,-0.0138 0.0469,0 0.0469,0.0524 z m 1.24298,-1.2733 -0.003,0.0358 q -0.0606,1.02526 -0.0606,1.76113 0,0.32797 0.011,0.98392 0.011,0.65319 0.011,0.9784 0,0.0634 -0.0441,0.0634 h -0.52641 q -0.0496,0 -0.0496,-0.0634 0,-0.32521 0.006,-0.9784 0.006,-0.65595 0.006,-0.98392 0,-0.29766 -0.0303,-0.89297 -0.0276,-0.59807 -0.0276,-0.89297 0,-0.0551 0.0579,-0.0551 0.0496,0 0.14883,0.008 0.0992,0.008 0.14883,0.008 0.0524,0 0.15434,-0.008 0.10197,-0.008 0.15158,-0.008 0.0496,0 0.0468,0.0441 z m 1.243,0 -0.003,0.0358 q -0.0606,1.02526 -0.0606,1.76113 0,0.32797 0.011,0.98392 0.011,0.65319 0.011,0.9784 0,0.0634 -0.0441,0.0634 h -0.52641 q -0.0496,0 -0.0496,-0.0634 0,-0.32521 0.006,-0.9784 0.006,-0.65595 0.006,-0.98392 0,-0.29766 -0.0303,-0.89297 -0.0276,-0.59807 -0.0276,-0.89297 0,-0.0551 0.0579,-0.0551 0.0496,0 0.14883,0.008 0.0992,0.008 0.14883,0.008 0.0524,0 0.15434,-0.008 0.10197,-0.008 0.15158,-0.008 0.0496,0 0.0469,0.0441 z m 3.49194,3.31556 q 0,0.0606 -0.011,0.16536 -0.0138,0.12954 -0.0165,0.16812 -0.003,0.0496 -0.008,0.0606 -0.011,0.0193 -0.0524,0.0386 -0.226,0.10749 -0.71107,0.10749 -0.64492,0 -0.64492,-0.58429 0,-0.23427 0.011,-0.7028 0.011,-0.47129 0.011,-0.70556 0,-0.11299 -0.113,-0.12126 -0.10198,0 -0.2012,-0.003 -0.0579,-0.0138 -0.0579,-0.226 0,-0.0799 0.011,-0.16812 0.008,-0.0661 0.0882,-0.0799 0.0689,0 0.13504,-0.003 0.12678,-0.006 0.12678,-0.113 0,-0.11024 -0.008,-0.33624 -0.006,-0.226 -0.006,-0.339 0,-0.20119 0.0772,-0.20119 0.0248,0 0.51814,0.0854 0.0634,0.008 0.0634,0.0606 0,0.12127 -0.0193,0.3638 -0.0165,0.24254 -0.0165,0.36381 0,0.0799 0.0744,0.0799 h 0.66146 q 0.0468,0 0.0468,0.0331 0,0.0331 -0.011,0.10749 -0.008,0.0717 -0.008,0.10749 0,0.0413 0.003,0.12678 0.003,0.0854 0.003,0.12678 0,0.0524 -0.0772,0.0524 -0.11024,0 -0.33349,-0.0138 -0.22324,-0.0165 -0.33348,-0.0165 -0.0221,0 -0.0331,0.15709 -0.0138,0.19568 -0.0138,0.54846 v 0.41066 q 0,0.23702 0.0441,0.33072 0.0661,0.14332 0.27285,0.14332 0.0854,0 0.25081,-0.0358 0.16536,-0.0386 0.24529,-0.0386 0.0331,0 0.0331,0.0496 z m 2.80017,0.41065 q 0,0.10198 -0.0579,0.10198 -0.0854,0 -0.25907,-0.003 -0.17363,-0.003 -0.25907,-0.003 -0.0689,0 -0.0689,-0.091 0,-0.13229 0.008,-0.39963 0.011,-0.26734 0.011,-0.40238 0,-0.12678 -0.011,-0.3831 -0.008,-0.25907 -0.008,-0.38861 0,-0.49609 -0.46853,-0.49609 -0.15159,0 -0.39688,0.15159 -0.26182,0.1626 -0.26182,0.29765 v 1.63711 q 0,0.0799 -0.0579,0.0799 -0.0854,0 -0.25632,-0.003 -0.17087,-0.003 -0.25631,-0.003 -0.0634,0 -0.0634,-0.0744 v -1.33118 q 0,-0.32522 -0.0358,-1.38355 -0.006,-0.32798 -0.0469,-0.97014 -0.006,-0.0331 -0.006,-0.0441 0,-0.0469 0.0331,-0.0579 0.0468,-0.0165 0.31143,-0.0165 0.0579,0 0.17364,-0.0193 0.11575,-0.022 0.16812,-0.022 0.0358,0 0.0358,0.0524 0,0.25907 -0.0221,0.77997 -0.0193,0.51814 -0.0193,0.77721 0,0.0634 0.022,0.0661 0.14056,-0.11851 0.36381,-0.28663 0.27009,-0.16812 0.5705,-0.16812 0.51815,0 0.71383,0.30868 0.14056,0.226 0.14056,0.71658 0,0.0854 -0.006,0.26458 -0.003,0.17639 -0.003,0.26183 0,0.17639 0.006,0.52641 0.006,0.35002 0.006,0.52365 z m 2.86356,-1.38355 q 0,0.20395 -0.17639,0.27285 -0.11851,0.0441 -1.70601,0.16261 0.0358,0.24254 0.26734,0.41341 0.22049,0.16261 0.47405,0.16261 0.43546,0 0.79926,-0.28112 0.0441,-0.0358 0.0882,-0.0717 0.0221,0 0.0276,0.006 0.008,0.006 0.10473,0.19292 0.0965,0.18466 0.0965,0.19844 0,0.0165 -0.0441,0.0634 -0.40514,0.42995 -1.03904,0.42995 -0.63941,0 -1.01975,-0.38034 -0.38033,-0.3831 -0.38033,-1.01975 0,-0.56775 0.3638,-0.98943 0.38309,-0.43822 0.93982,-0.43822 0.51814,0 0.86541,0.38034 0.33899,0.36932 0.33899,0.89848 z m -0.65594,-0.16812 q 0,-0.22875 -0.1819,-0.40514 -0.17915,-0.17639 -0.40515,-0.17639 -0.25356,0 -0.45199,0.20395 -0.19568,0.20395 -0.19568,0.45751 0,0.0579 0.0992,0.0579 0.4079,0 0.97566,-0.0827 0.15985,-0.022 0.15985,-0.0551 z m 6.64214,1.54616 q 0,0.10749 -0.0634,0.10749 -0.0413,0 -0.12678,-0.008 -0.0827,-0.008 -0.12678,-0.008 -0.0469,0 -0.14056,0.006 -0.0937,0.006 -0.14056,0.006 -0.0579,0 -0.0579,-0.12953 0,-0.12678 0.008,-0.37758 0.011,-0.25356 0.011,-0.38034 0,-0.69729 -0.006,-0.77722 -0.0221,-0.28387 -0.11575,-0.39136 -0.10749,-0.11575 -0.3831,-0.11575 -0.17363,0 -0.39136,0.16536 -0.226,0.17363 -0.23427,0.34175 -0.011,0.21498 -0.011,0.78549 0,0.13504 0.011,0.40514 0.011,0.27009 0.011,0.40514 0,0.0744 -0.0496,0.0744 -0.0496,0 -0.14607,-0.008 -0.0937,-0.008 -0.14332,-0.008 -0.0441,0 -0.12954,0.006 -0.0854,0.006 -0.12953,0.006 -0.0551,0 -0.0551,-0.0799 0,-0.13229 0.008,-0.39688 0.008,-0.26734 0.008,-0.39963 v -0.66421 q 0,-0.31144 -0.0744,-0.44373 -0.10473,-0.18741 -0.39963,-0.18741 -0.17363,0 -0.41341,0.14607 -0.26459,0.15985 -0.26459,0.32246 v 0.80477 q 0,0.13781 0.003,0.41066 0.003,0.27285 0.003,0.4079 0,0.0799 -0.0634,0.0799 H 157.135 q -0.0551,0 -0.0551,-0.0744 0,-0.22324 0.003,-0.66973 0.003,-0.44924 0.003,-0.67248 0,-0.50436 -0.10749,-1.00597 -0.008,-0.0358 -0.008,-0.0579 0,-0.0358 0.0248,-0.0413 0.10197,-0.011 0.29765,-0.0413 0.0909,-0.0276 0.27286,-0.0606 l 0.022,-0.003 q 0.0331,0 0.0606,0.19569 0.0303,0.19292 0.0524,0.19292 0,0 0.13781,-0.12127 0.1626,-0.14056 0.32521,-0.22324 0.23427,-0.12127 0.46854,-0.12127 0.63389,0 0.80753,0.51815 0.17087,-0.22049 0.42443,-0.36381 0.2701,-0.15434 0.53468,-0.15434 0.50987,0 0.70555,0.29766 0.14056,0.22049 0.14056,0.69729 0,0.0909 -0.006,0.28112 -0.006,0.19017 -0.006,0.28112 0,0.17363 0.008,0.52365 0.008,0.34727 0.008,0.5209 z m 3.0427,-1.24023 q 0,0.57602 -0.37758,0.98391 -0.38585,0.42168 -0.95636,0.42168 -0.57326,0 -0.95911,-0.41892 -0.37758,-0.40514 -0.37758,-0.98116 0,-0.57602 0.37758,-0.98116 0.38861,-0.41342 0.95911,-0.41342 0.56775,0 0.9536,0.41342 0.38034,0.40238 0.38034,0.97565 z m -0.58153,0.006 q 0,-0.33624 -0.2067,-0.57327 -0.21498,-0.2508 -0.54571,-0.2508 -0.33073,0 -0.54846,0.24805 -0.2067,0.23978 -0.2067,0.57602 0,0.33073 0.20946,0.57326 0.22049,0.25632 0.5457,0.25632 0.32798,0 0.54571,-0.25632 0.2067,-0.24253 0.2067,-0.57326 z m 3.46714,-0.006 q 0,0.57602 -0.37758,0.98391 -0.38585,0.42168 -0.95636,0.42168 -0.57326,0 -0.95911,-0.41892 -0.37758,-0.40514 -0.37758,-0.98116 0,-0.57602 0.37758,-0.98116 0.38861,-0.41342 0.95911,-0.41342 0.56775,0 0.9536,0.41342 0.38034,0.40238 0.38034,0.97565 z m -0.58153,0.006 q 0,-0.33624 -0.2067,-0.57327 -0.21498,-0.2508 -0.54571,-0.2508 -0.33073,0 -0.54846,0.24805 -0.2067,0.23978 -0.2067,0.57602 0,0.33073 0.20946,0.57326 0.22049,0.25632 0.5457,0.25632 0.32798,0 0.54571,-0.25632 0.2067,-0.24253 0.2067,-0.57326 z m 3.39824,1.28157 q 0,0.0606 -0.0551,0.0606 -0.0909,0 -0.27285,-0.003 -0.17915,-0.003 -0.2701,-0.003 -0.0496,0 -0.0496,-0.0799 0,-0.13505 0.008,-0.41066 0.008,-0.2756 0.008,-0.41341 0,-0.11024 -0.003,-0.32797 -0.003,-0.22049 -0.003,-0.33073 0,-0.31419 -0.0909,-0.44373 -0.11025,-0.15434 -0.4079,-0.15434 -0.13781,0 -0.3831,0.15434 -0.25907,0.16261 -0.25907,0.28939 v 1.65364 q 0,0.0689 -0.0524,0.0689 -0.0882,0 -0.26459,-0.003 -0.17639,-0.003 -0.26458,-0.003 -0.0579,0 -0.0579,-0.0634 0,-0.21773 0.006,-0.65319 0.008,-0.43546 0.008,-0.65594 0,-0.58705 -0.12402,-1.08314 -0.008,-0.0248 -0.008,-0.0358 0,-0.0276 0.0358,-0.0386 0.0193,-0.003 0.31419,-0.0496 0.29766,-0.0496 0.31144,-0.0496 0.0165,0 0.0221,0.0441 0.0138,0.17087 0.0634,0.34451 0.14331,-0.113 0.37758,-0.28112 0.28939,-0.17639 0.55948,-0.17639 0.51815,0 0.70831,0.30041 0.14056,0.22048 0.14056,0.71382 0,0.0854 -0.006,0.26183 -0.003,0.17639 -0.003,0.26458 0,0.18466 0.006,0.55122 0.006,0.36656 0.006,0.55121 z" id="path16"/>
        <path d="m 135.68535,234.73408 q 0,0.339 -0.37758,0.339 -0.3831,0 -0.3831,-0.339 0,-0.15159 0.11852,-0.2508 0.11024,-0.0937 0.26458,-0.0937 0.15434,0 0.26458,0.0965 0.113,0.0965 0.113,0.24805 z m -0.0193,0.7469 q 0,0.21221 -0.0276,0.64216 -0.0248,0.42719 -0.0248,0.64217 0,0.20119 0.008,0.60358 0.008,0.39963 0.008,0.59806 0,0.0579 -0.0496,0.0579 h -0.53743 q -0.0579,0 -0.0579,-0.113 0,-0.19017 0.008,-0.5705 0.011,-0.3831 0.011,-0.57602 0,-0.21498 -0.0331,-0.64493 -0.0303,-0.42994 -0.0303,-0.64492 0,-0.0469 0.0579,-0.0469 0.0496,0 0.15158,0.0138 0.10473,0.0138 0.1571,0.0138 0.0524,0 0.15434,-0.0138 0.10473,-0.0138 0.1571,-0.0138 0.0468,0 0.0468,0.0524 z m 2.9738,2.49424 q 0,0.0606 -0.0551,0.0606 -0.091,0 -0.27285,-0.003 -0.17914,-0.003 -0.27009,-0.003 -0.0496,0 -0.0496,-0.0799 0,-0.13505 0.008,-0.41066 0.008,-0.2756 0.008,-0.41341 0,-0.11024 -0.003,-0.32797 -0.003,-0.22049 -0.003,-0.33073 0,-0.31419 -0.0909,-0.44373 -0.11024,-0.15434 -0.4079,-0.15434 -0.1378,0 -0.38309,0.15434 -0.25907,0.16261 -0.25907,0.28939 v 1.65364 q 0,0.0689 -0.0524,0.0689 -0.0882,0 -0.26458,-0.003 -0.17639,-0.003 -0.26459,-0.003 -0.0579,0 -0.0579,-0.0634 0,-0.21773 0.006,-0.65319 0.008,-0.43546 0.008,-0.65594 0,-0.58704 -0.12403,-1.08314 -0.008,-0.0248 -0.008,-0.0358 0,-0.0276 0.0358,-0.0386 0.0193,-0.003 0.3142,-0.0496 0.29765,-0.0496 0.31143,-0.0496 0.0165,0 0.0221,0.0441 0.0138,0.17087 0.0634,0.34451 0.14332,-0.113 0.37758,-0.28112 0.28939,-0.17639 0.55949,-0.17639 0.51814,0 0.70831,0.30041 0.14056,0.22049 0.14056,0.71382 0,0.0854 -0.006,0.26183 -0.003,0.17639 -0.003,0.26458 0,0.18466 0.006,0.55122 0.006,0.36656 0.006,0.55121 z m 4.61367,-2.43912 q 0,0.011 -0.008,0.0496 -0.10748,0.63114 -0.10748,1.08865 0,0.0276 0.0689,1.23747 l 0.003,0.0386 q 0.003,0.0799 -0.0744,0.0799 -0.0744,0 -0.22875,0.0165 -0.15159,0.0193 -0.226,0.0193 -0.0524,0 -0.0799,-0.19292 -0.0276,-0.19293 -0.0524,-0.19293 -0.0165,0 -0.14883,0.10749 -0.16261,0.13229 -0.30317,0.20119 -0.21773,0.11025 -0.43546,0.11025 -0.53468,0 -0.90124,-0.4272 -0.34726,-0.40789 -0.34726,-0.95084 0,-0.61185 0.35002,-1.01148 0.36656,-0.41617 0.96463,-0.41617 0.42168,0 0.73587,0.29215 0.0469,0.0551 0.14607,0.15985 0.008,0.008 0.0165,0.008 0.0165,0 0.0469,-0.17364 0.0303,-0.17363 0.0772,-0.17363 0.0744,0 0.27836,0.0413 0.226,0.0496 0.226,0.0882 z m -0.7028,1.15204 q 0,-0.339 -0.20119,-0.58154 -0.21222,-0.26182 -0.54295,-0.26182 -0.33073,0 -0.55121,0.25907 -0.21222,0.24804 -0.21222,0.58429 0,0.33348 0.21222,0.57877 0.22048,0.25632 0.55121,0.25632 0.32246,0 0.54019,-0.26183 0.20395,-0.24529 0.20395,-0.57326 z m 1.84933,-2.48047 -0.003,0.0358 q -0.0606,1.02526 -0.0606,1.76113 0,0.32797 0.011,0.98392 0.011,0.65319 0.011,0.9784 0,0.0634 -0.0441,0.0634 h -0.52641 q -0.0496,0 -0.0496,-0.0634 0,-0.32521 0.006,-0.9784 0.006,-0.65595 0.006,-0.98392 0,-0.29766 -0.0303,-0.89297 -0.0276,-0.59807 -0.0276,-0.89297 0,-0.0551 0.0579,-0.0551 0.0496,0 0.14883,0.008 0.0992,0.008 0.14883,0.008 0.0524,0 0.15434,-0.008 0.10198,-0.008 0.15158,-0.008 0.0496,0 0.0469,0.0441 z m 1.24299,0 -0.003,0.0358 q -0.0606,1.02526 -0.0606,1.76113 0,0.32797 0.011,0.98392 0.011,0.65319 0.011,0.9784 0,0.0634 -0.0441,0.0634 h -0.52641 q -0.0496,0 -0.0496,-0.0634 0,-0.32521 0.006,-0.9784 0.006,-0.65595 0.006,-0.98392 0,-0.29766 -0.0303,-0.89297 -0.0276,-0.59807 -0.0276,-0.89297 0,-0.0551 0.0579,-0.0551 0.0496,0 0.14883,0.008 0.0992,0.008 0.14883,0.008 0.0524,0 0.15434,-0.008 0.10198,-0.008 0.15158,-0.008 0.0496,0 0.0469,0.0441 z m 4.45381,2.48047 q 0,0.57602 -0.37758,0.98391 -0.38585,0.42168 -0.95636,0.42168 -0.57326,0 -0.95911,-0.41892 -0.37758,-0.40514 -0.37758,-0.98116 0,-0.57602 0.37758,-0.98116 0.38861,-0.41342 0.95911,-0.41342 0.56776,0 0.95361,0.41342 0.38033,0.40238 0.38033,0.97565 z m -0.58153,0.006 q 0,-0.33624 -0.2067,-0.57327 -0.21498,-0.2508 -0.54571,-0.2508 -0.33073,0 -0.54846,0.24805 -0.2067,0.23978 -0.2067,0.57602 0,0.33073 0.20946,0.57326 0.22049,0.25632 0.5457,0.25632 0.32798,0 0.54571,-0.25632 0.2067,-0.24253 0.2067,-0.57326 z m 2.39228,-2.19659 q 0,0.0331 -0.0496,0.0386 -0.13505,0.0138 -0.26734,0.0248 -0.1571,0.022 -0.23978,0.11024 -0.13505,0.14607 -0.13505,0.74138 0.0909,0 0.28663,0.006 0.19568,0.006 0.2949,0.006 0.0661,0 0.0661,0.0496 0,0.0772 0.006,0.23151 0.006,0.15158 0.006,0.226 0,0.0524 -0.0551,0.0524 -0.0965,0 -0.29214,-0.008 -0.19568,-0.011 -0.28939,-0.011 v 0.82406 q 0,0.19293 0.0138,0.58429 0.0138,0.39136 0.0138,0.58429 0,0.0744 -0.0551,0.0744 h -0.50436 q -0.0717,0 -0.0717,-0.0854 v -1.89618 q 0,-0.0744 -0.16812,-0.0717 -0.1819,0.003 -0.19293,-0.0138 -0.008,-0.008 -0.008,-0.10198 0,-0.0606 -0.006,-0.17914 -0.006,-0.12127 -0.006,-0.1819 0,-0.0579 0.35002,-0.0772 -0.008,-0.17639 -0.008,-0.28663 0,-0.48783 0.17364,-0.71383 0.15434,-0.20395 0.45199,-0.3197 0.26734,-0.10473 0.55397,-0.10473 0.0276,0 0.0386,0.0303 0.003,0.006 0.0469,0.23427 0.0469,0.226 0.0469,0.23427 z m 2.36471,0.23702 q 0,0.339 -0.37759,0.339 -0.38309,0 -0.38309,-0.339 0,-0.15159 0.11851,-0.2508 0.11024,-0.0937 0.26458,-0.0937 0.15435,0 0.26459,0.0965 0.113,0.0965 0.113,0.24805 z m -0.0193,0.7469 q 0,0.21221 -0.0276,0.64216 -0.0248,0.42719 -0.0248,0.64217 0,0.20119 0.008,0.60358 0.008,0.39963 0.008,0.59806 0,0.0579 -0.0496,0.0579 h -0.53744 q -0.0579,0 -0.0579,-0.113 0,-0.19017 0.008,-0.5705 0.011,-0.3831 0.011,-0.57602 0,-0.21498 -0.0331,-0.64493 -0.0303,-0.42994 -0.0303,-0.64492 0,-0.0469 0.0579,-0.0469 0.0496,0 0.15159,0.0138 0.10473,0.0138 0.15709,0.0138 0.0524,0 0.15435,-0.0138 0.10473,-0.0138 0.15709,-0.0138 0.0469,0 0.0469,0.0524 z m 2.08084,2.04225 q 0,0.0606 -0.011,0.16536 -0.0138,0.12954 -0.0165,0.16812 -0.003,0.0496 -0.008,0.0606 -0.011,0.0193 -0.0524,0.0386 -0.226,0.10749 -0.71107,0.10749 -0.64492,0 -0.64492,-0.58429 0,-0.23427 0.011,-0.7028 0.011,-0.47129 0.011,-0.70555 0,-0.113 -0.113,-0.12127 -0.10198,0 -0.2012,-0.003 -0.0579,-0.0138 -0.0579,-0.226 0,-0.0799 0.011,-0.16812 0.008,-0.0661 0.0882,-0.0799 0.0689,0 0.13505,-0.003 0.12678,-0.006 0.12678,-0.113 0,-0.11024 -0.008,-0.33624 -0.006,-0.226 -0.006,-0.339 0,-0.20119 0.0772,-0.20119 0.0248,0 0.51814,0.0854 0.0634,0.008 0.0634,0.0606 0,0.12127 -0.0193,0.3638 -0.0165,0.24254 -0.0165,0.36381 0,0.0799 0.0744,0.0799 h 0.66146 q 0.0469,0 0.0469,0.0331 0,0.0331 -0.011,0.10749 -0.008,0.0717 -0.008,0.10749 0,0.0413 0.003,0.12678 0.003,0.0854 0.003,0.12678 0,0.0524 -0.0772,0.0524 -0.11024,0 -0.33349,-0.0138 -0.22324,-0.0165 -0.33348,-0.0165 -0.0221,0 -0.0331,0.15709 -0.0138,0.19568 -0.0138,0.54846 v 0.41066 q 0,0.23702 0.0441,0.33073 0.0662,0.14331 0.27285,0.14331 0.0854,0 0.25081,-0.0358 0.16536,-0.0386 0.24529,-0.0386 0.0331,0 0.0331,0.0496 z m 1.68396,-0.34176 q 0,0.41066 -0.32797,0.6587 -0.29766,0.226 -0.72485,0.226 -0.16536,0 -0.18741,-0.008 -0.0469,-0.022 -0.0469,-0.13504 0,-0.0606 -0.0165,-0.1819 -0.0138,-0.12127 -0.0138,-0.17915 0,-0.0358 0.0496,-0.0469 0.0358,-0.008 0.10197,0 0.0854,0.008 0.0827,0.008 0.5209,0 0.5209,-0.31971 0,-0.15158 -0.22875,-0.27836 -0.37207,-0.20395 -0.42719,-0.2508 -0.22876,-0.19569 -0.22876,-0.51263 0,-0.41342 0.31144,-0.64493 0.28112,-0.2067 0.71107,-0.2067 0.0386,0 0.0551,0.0358 0.0193,0.0358 0.0689,0.22324 0.0524,0.18741 0.0524,0.226 0,0.0303 -0.0524,0.0386 -0.17639,0.0248 -0.35553,0.0469 -0.21222,0.0579 -0.21222,0.23151 0,0.12402 0.22324,0.2508 0.33073,0.18466 0.41892,0.26734 0.226,0.21497 0.226,0.55121 z m 4.56406,-0.4768 q 0,0.55673 -0.35278,0.96738 -0.36931,0.43271 -0.91777,0.43271 -0.34175,0 -0.59807,-0.21222 -0.11575,-0.10749 -0.23151,-0.21773 -0.0165,0.008 -0.0221,0.0441 -0.003,0.0165 -0.003,0.30868 l -0.003,0.77721 q 0,0.0882 -0.0634,0.0882 -0.42443,0 -0.5016,-0.011 -0.0634,-0.008 -0.0634,-0.0717 0,-0.35277 0.006,-1.05833 0.006,-0.70555 0.006,-1.05833 0,-0.64768 -0.0827,-1.21543 -0.006,-0.0331 -0.006,-0.0441 0,-0.0303 0.0276,-0.0386 0.10473,-0.006 0.30592,-0.0303 0.2701,-0.0496 0.30317,-0.0496 0.0469,0 0.0606,0.16537 0.008,0.11024 0.0138,0.21773 0,0.022 0.0165,0.0441 0.0193,-0.011 0.0441,-0.0386 0.38585,-0.39412 0.77997,-0.39412 0.5457,0 0.92053,0.42719 0.36104,0.41066 0.36104,0.96738 z m -0.64492,-0.011 q 0,-0.33073 -0.20671,-0.58153 -0.21773,-0.26734 -0.54294,-0.26734 -0.31971,0 -0.52366,0.2756 -0.18741,0.24805 -0.18741,0.57878 0,0.33624 0.19293,0.58429 0.21221,0.26734 0.54019,0.26734 0.31419,0 0.52916,-0.27837 0.19844,-0.25907 0.19844,-0.57877 z m 3.47817,1.24023 q 0,0.10198 -0.0579,0.10198 -0.0854,0 -0.25907,-0.003 -0.17364,-0.003 -0.25907,-0.003 -0.0689,0 -0.0689,-0.0909 0,-0.13229 0.008,-0.39963 0.011,-0.26734 0.011,-0.40238 0,-0.12678 -0.011,-0.3831 -0.008,-0.25907 -0.008,-0.3886 0,-0.4961 -0.46853,-0.4961 -0.15158,0 -0.39687,0.15159 -0.26183,0.1626 -0.26183,0.29765 v 1.63711 q 0,0.0799 -0.0579,0.0799 -0.0854,0 -0.25631,-0.003 -0.17088,-0.003 -0.25632,-0.003 -0.0634,0 -0.0634,-0.0744 v -1.33118 q 0,-0.32522 -0.0358,-1.38355 -0.006,-0.32798 -0.0469,-0.97014 -0.006,-0.0331 -0.006,-0.0441 0,-0.0468 0.0331,-0.0579 0.0469,-0.0165 0.31144,-0.0165 0.0579,0 0.17363,-0.0193 0.11576,-0.022 0.16812,-0.022 0.0358,0 0.0358,0.0524 0,0.25907 -0.022,0.77997 -0.0193,0.51814 -0.0193,0.77721 0,0.0634 0.0221,0.0661 0.14056,-0.11851 0.3638,-0.28663 0.27009,-0.16812 0.57051,-0.16812 0.51814,0 0.71382,0.30868 0.14056,0.226 0.14056,0.71658 0,0.0854 -0.006,0.26458 -0.003,0.17639 -0.003,0.26183 0,0.17639 0.006,0.52641 0.006,0.35002 0.006,0.52365 z m 3.20807,-2.39778 q 0,0.011 -0.008,0.0496 -0.10749,0.63114 -0.10749,1.08865 0,0.0276 0.0689,1.23747 l 0.003,0.0386 q 0.003,0.0799 -0.0744,0.0799 -0.0744,0 -0.22875,0.0165 -0.15158,0.0193 -0.226,0.0193 -0.0524,0 -0.0799,-0.19292 -0.0276,-0.19293 -0.0524,-0.19293 -0.0165,0 -0.14883,0.10749 -0.16261,0.13229 -0.30317,0.20119 -0.21773,0.11025 -0.43546,0.11025 -0.53467,0 -0.90123,-0.4272 -0.34727,-0.40789 -0.34727,-0.95084 0,-0.61185 0.35002,-1.01148 0.36656,-0.41617 0.96463,-0.41617 0.42168,0 0.73587,0.29215 0.0469,0.0551 0.14607,0.15985 0.008,0.008 0.0165,0.008 0.0165,0 0.0469,-0.17364 0.0303,-0.17363 0.0772,-0.17363 0.0744,0 0.27837,0.0413 0.226,0.0496 0.226,0.0882 z m -0.7028,1.15204 q 0,-0.339 -0.2012,-0.58154 -0.21221,-0.26182 -0.54294,-0.26182 -0.33073,0 -0.55122,0.25907 -0.21222,0.24804 -0.21222,0.58429 0,0.33348 0.21222,0.57877 0.22049,0.25632 0.55122,0.25632 0.32246,0 0.54019,-0.26183 0.20395,-0.24529 0.20395,-0.57326 z m 2.44188,0.49333 q 0,0.41066 -0.32797,0.6587 -0.29766,0.226 -0.72485,0.226 -0.16537,0 -0.18741,-0.008 -0.0469,-0.022 -0.0469,-0.13504 0,-0.0606 -0.0165,-0.1819 -0.0138,-0.12127 -0.0138,-0.17915 0,-0.0358 0.0496,-0.0469 0.0358,-0.008 0.10197,0 0.0854,0.008 0.0827,0.008 0.5209,0 0.5209,-0.31971 0,-0.15158 -0.22875,-0.27836 -0.37207,-0.20395 -0.4272,-0.2508 -0.22875,-0.19569 -0.22875,-0.51263 0,-0.41342 0.31144,-0.64493 0.28112,-0.2067 0.71106,-0.2067 0.0386,0 0.0551,0.0358 0.0193,0.0358 0.0689,0.22324 0.0524,0.18741 0.0524,0.226 0,0.0303 -0.0524,0.0386 -0.17639,0.0248 -0.35554,0.0469 -0.21221,0.0579 -0.21221,0.23151 0,0.12402 0.22324,0.2508 0.33073,0.18466 0.41892,0.26734 0.226,0.21497 0.226,0.55121 z m 2.73127,-0.63114 q 0,0.20395 -0.17639,0.27285 -0.11851,0.0441 -1.70601,0.16261 0.0358,0.24254 0.26734,0.41341 0.22049,0.16261 0.47404,0.16261 0.43546,0 0.79927,-0.28112 0.0441,-0.0358 0.0882,-0.0717 0.0221,0 0.0276,0.006 0.008,0.006 0.10473,0.19292 0.0965,0.18466 0.0965,0.19844 0,0.0165 -0.0441,0.0634 -0.40515,0.42995 -1.03904,0.42995 -0.63941,0 -1.01975,-0.38034 -0.38034,-0.3831 -0.38034,-1.01975 0,-0.56775 0.3638,-0.98943 0.3831,-0.43822 0.93983,-0.43822 0.51814,0 0.8654,0.38034 0.339,0.36932 0.339,0.89848 z m -0.65595,-0.16812 q 0,-0.22875 -0.1819,-0.40514 -0.17914,-0.17639 -0.40514,-0.17639 -0.25356,0 -0.452,0.20395 -0.19568,0.20395 -0.19568,0.45751 0,0.0579 0.0992,0.0579 0.4079,0 0.97565,-0.0827 0.15985,-0.0221 0.15985,-0.0551 z m 2.33164,0.79926 q 0,0.41066 -0.32797,0.6587 -0.29766,0.226 -0.72485,0.226 -0.16536,0 -0.18741,-0.008 -0.0469,-0.022 -0.0469,-0.13504 0,-0.0606 -0.0165,-0.1819 -0.0138,-0.12127 -0.0138,-0.17915 0,-0.0358 0.0496,-0.0469 0.0358,-0.008 0.10197,0 0.0854,0.008 0.0827,0.008 0.52089,0 0.52089,-0.31971 0,-0.15158 -0.22875,-0.27836 -0.37207,-0.20395 -0.42719,-0.2508 -0.22876,-0.19569 -0.22876,-0.51263 0,-0.41342 0.31144,-0.64493 0.28112,-0.2067 0.71107,-0.2067 0.0386,0 0.0551,0.0358 0.0193,0.0358 0.0689,0.22324 0.0524,0.18741 0.0524,0.226 0,0.0303 -0.0524,0.0386 -0.17639,0.0248 -0.35553,0.0469 -0.21222,0.0579 -0.21222,0.23151 0,0.12402 0.22324,0.2508 0.33073,0.18466 0.41892,0.26734 0.226,0.21497 0.226,0.55121 z m 1.14377,0.44373 q 0,0.1819 -0.12402,0.31971 -0.12127,0.13504 -0.30042,0.13504 -0.17914,0 -0.30041,-0.14056 -0.11575,-0.13229 -0.11575,-0.31419 0,-0.18466 0.11851,-0.31419 0.11851,-0.13229 0.29765,-0.13229 0.18191,0 0.30317,0.13229 0.12127,0.13229 0.12127,0.31419 z" id="path17"/>
        <path d="m 139.55788,259.13912 q 0,0.0579 -0.0799,0.0579 -0.0496,0 -0.15159,-0.008 -0.10197,-0.008 -0.15158,-0.008 -0.0524,0 -0.15434,0.008 -0.10198,0.008 -0.15159,0.008 -0.0689,0 -0.0689,-0.0634 0,-0.31419 0.0276,-0.94533 0.0303,-0.6339 0.0303,-0.95084 0,-0.30593 -0.0303,-0.91778 -0.0276,-0.6146 -0.0276,-0.92053 0,-0.0689 0.0634,-0.0689 0.0524,0 0.15986,0.008 0.10748,0.008 0.1626,0.008 0.0496,0 0.14883,-0.008 0.0992,-0.008 0.14883,-0.008 0.0717,0 0.0717,0.0551 0,0.30868 -0.022,0.92604 -0.0221,0.61737 -0.0221,0.92605 0,0.31694 0.0221,0.95084 0.0248,0.6339 0.0248,0.95085 z m 1.86311,-0.791 q 0,0.41066 -0.32797,0.65871 -0.29766,0.22599 -0.72485,0.22599 -0.16537,0 -0.18741,-0.008 -0.0469,-0.022 -0.0469,-0.13505 0,-0.0606 -0.0165,-0.1819 -0.0138,-0.12127 -0.0138,-0.17915 0,-0.0358 0.0496,-0.0469 0.0358,-0.008 0.10197,0 0.0854,0.008 0.0827,0.008 0.5209,0 0.5209,-0.31971 0,-0.15158 -0.22875,-0.27836 -0.37207,-0.20395 -0.4272,-0.2508 -0.22875,-0.19569 -0.22875,-0.51263 0,-0.41341 0.31144,-0.64493 0.28112,-0.2067 0.71106,-0.2067 0.0386,0 0.0551,0.0358 0.0193,0.0358 0.0689,0.22324 0.0524,0.18741 0.0524,0.226 0,0.0303 -0.0524,0.0386 -0.17639,0.0248 -0.35554,0.0469 -0.21221,0.0579 -0.21221,0.23151 0,0.12402 0.22324,0.2508 0.33073,0.18466 0.41892,0.26734 0.226,0.21497 0.226,0.55121 z m 1.97335,-1.73908 q 0,0.30317 -0.0413,0.55122 -0.008,0.0634 -0.0551,0.0634 -0.0579,0 -0.17639,-0.011 -0.11576,-0.0138 -0.17639,-0.0138 -0.34727,0 -0.44373,0.19568 -0.0579,0.11851 -0.0579,0.49334 v 0.30317 q 0,0.15434 0.011,0.46853 0.0138,0.31419 0.0138,0.46853 0,0.0744 -0.0634,0.0744 -0.0854,0 -0.25907,-0.003 -0.17364,-0.003 -0.25907,-0.003 -0.0634,0 -0.0634,-0.0689 0,-0.22324 0.006,-0.67248 0.008,-0.44924 0.008,-0.67524 0,-0.68075 -0.12678,-1.09416 -0.006,-0.0221 -0.006,-0.0331 0,-0.0331 0.0358,-0.0469 0.10198,-0.011 0.28664,-0.0331 0.29765,-0.0551 0.2756,-0.0551 0.0441,0 0.0579,0.16261 0.0138,0.16261 0.0496,0.16261 0.006,0 0.0138,-0.006 0.113,-0.0716 0.226,-0.14331 0.12402,-0.0744 0.25356,-0.11024 0.10748,-0.0331 0.27561,-0.0331 0.21497,0 0.21497,0.0579 z m 2.98207,0.0937 q 0,0.011 -0.008,0.0496 -0.10748,0.63114 -0.10748,1.08865 0,0.0276 0.0689,1.23747 l 0.003,0.0386 q 0.003,0.0799 -0.0744,0.0799 -0.0744,0 -0.22875,0.0165 -0.15159,0.0193 -0.226,0.0193 -0.0524,0 -0.0799,-0.19292 -0.0276,-0.19293 -0.0524,-0.19293 -0.0165,0 -0.14883,0.10749 -0.16261,0.13229 -0.30317,0.20119 -0.21773,0.11025 -0.43546,0.11025 -0.53468,0 -0.90124,-0.4272 -0.34726,-0.40789 -0.34726,-0.95084 0,-0.61185 0.35002,-1.01148 0.36656,-0.41617 0.96463,-0.41617 0.42168,0 0.73587,0.29215 0.0469,0.0551 0.14607,0.15985 0.008,0.008 0.0165,0.008 0.0165,0 0.0469,-0.17364 0.0303,-0.17363 0.0772,-0.17363 0.0744,0 0.27836,0.0413 0.226,0.0496 0.226,0.0882 z m -0.7028,1.15204 q 0,-0.339 -0.20119,-0.58154 -0.21222,-0.26182 -0.54295,-0.26182 -0.33073,0 -0.55121,0.25907 -0.21222,0.24805 -0.21222,0.58429 0,0.33348 0.21222,0.57877 0.22048,0.25632 0.55121,0.25632 0.32246,0 0.54019,-0.26183 0.20395,-0.24529 0.20395,-0.57326 z m 5.97793,1.30913 q 0,0.0331 -0.0662,0.0331 -0.0524,0 -0.15434,-0.008 -0.0992,-0.008 -0.15158,-0.008 -0.0524,0 -0.1571,0.008 -0.10473,0.008 -0.1571,0.008 -0.0772,0 -0.19843,-0.41616 -0.11851,-0.41893 -0.24254,-0.42444 -0.10197,-0.006 -0.53192,-0.006 h -0.43546 q -0.45475,0 -0.51814,0.006 -0.0992,0.008 -0.21222,0.42444 -0.11024,0.41616 -0.17088,0.41616 h -0.62011 q -0.0551,0 -0.0551,-0.0386 0,-0.0276 0.0386,-0.12402 l 0.67524,-1.84657 q 0.0854,-0.22325 0.51814,-1.28709 0.0772,-0.17639 0.20946,-0.53192 0.0331,-0.10473 0.0717,-0.10473 0.0524,0 0.15434,0.0138 0.10198,0.0138 0.15434,0.0138 0.0496,0 0.14883,-0.0138 0.10197,-0.0165 0.14883,-0.0165 0.0248,0 0.0689,0.10198 0.0661,0.15434 0.65319,1.66191 0.82958,2.11942 0.82958,2.13871 z m -1.28433,-1.52135 q 0,-0.0799 -0.24805,-0.71658 -0.23978,-0.61736 -0.339,-0.81029 -0.5705,1.45521 -0.5705,1.52411 0,0.0937 0.20946,0.11025 0.011,0.003 0.27009,0.003 h 0.28388 q 0.39412,0 0.39412,-0.11024 z m 2.28754,-2.26825 -0.003,0.0358 q -0.0606,1.02526 -0.0606,1.76113 0,0.32797 0.011,0.98392 0.011,0.65319 0.011,0.9784 0,0.0634 -0.0441,0.0634 h -0.52641 q -0.0496,0 -0.0496,-0.0634 0,-0.32521 0.006,-0.9784 0.006,-0.65595 0.006,-0.98392 0,-0.29766 -0.0303,-0.89297 -0.0276,-0.59807 -0.0276,-0.89297 0,-0.0551 0.0579,-0.0551 0.0496,0 0.14883,0.008 0.0992,0.008 0.14883,0.008 0.0524,0 0.15434,-0.008 0.10198,-0.008 0.15159,-0.008 0.0496,0 0.0469,0.0441 z m 2.29305,1.83279 -0.003,0.0248 q -0.0248,0.0965 -0.0662,0.28388 -0.008,0.091 -0.0358,0.26458 -0.006,0.0248 -0.15709,0.0331 -0.10473,0.006 -0.29766,0 -0.24805,-0.006 -0.23151,-0.006 -0.17088,0 -0.50712,0.0331 -0.33624,0.0303 -0.50436,0.0303 -0.0744,0 -0.0744,-0.091 0,-0.12678 0.15985,-0.52641 0.0138,-0.0386 0.0772,-0.0386 0.0965,0 0.28387,0.008 0.18742,0.006 0.28388,0.006 0.16812,0 0.50712,-0.0331 0.339,-0.0358 0.50712,-0.0358 0.0606,0 0.0579,0.0469 z m 3.00137,-1.35599 q 0,0.0717 -0.0496,0.0717 -0.0772,0 -0.97565,-0.0331 -0.0248,0.8406 -0.0248,1.34772 0,0.31694 0.0221,0.95084 0.0248,0.6339 0.0248,0.95085 0,0.0579 -0.0799,0.0579 -0.0496,0 -0.15158,-0.008 -0.10198,-0.008 -0.15434,-0.008 -0.0496,0 -0.15159,0.008 -0.10197,0.008 -0.15158,0.008 -0.0689,0 -0.0689,-0.0689 0,-0.31419 0.0248,-0.94257 0.0276,-0.63115 0.0276,-0.94809 0,-0.49059 -0.0303,-1.34772 -0.71106,0.0441 -1.04179,0.0441 -0.0331,0 -0.0331,-0.0276 0,-0.0496 0.0248,-0.14331 0.0303,-0.12127 0.0358,-0.14332 0.006,-0.0965 0.0386,-0.26734 0.0138,-0.0358 0.0469,-0.0358 l 0.0331,0.003 q 0.97565,0.0579 1.28709,0.0579 0.2756,0 0.90123,-0.0413 0.42719,-0.0276 0.35554,-0.0276 0.0717,0 0.0799,0.0496 -0.006,-0.0303 -0.006,0.26734 0,0.0358 0.008,0.113 0.008,0.0744 0.008,0.113 z m 2.73402,3.24941 q 0,0.10198 -0.0579,0.10198 -0.0854,0 -0.25907,-0.003 -0.17364,-0.003 -0.25908,-0.003 -0.0689,0 -0.0689,-0.091 0,-0.13229 0.008,-0.39963 0.011,-0.26734 0.011,-0.40238 0,-0.12678 -0.011,-0.3831 -0.008,-0.25907 -0.008,-0.3886 0,-0.4961 -0.46853,-0.4961 -0.15158,0 -0.39688,0.15159 -0.26182,0.1626 -0.26182,0.29765 v 1.63711 q 0,0.0799 -0.0579,0.0799 -0.0854,0 -0.25631,-0.003 -0.17088,-0.003 -0.25632,-0.003 -0.0634,0 -0.0634,-0.0744 v -1.33118 q 0,-0.32522 -0.0358,-1.38355 -0.006,-0.32798 -0.0469,-0.97014 -0.006,-0.0331 -0.006,-0.0441 0,-0.0469 0.0331,-0.0579 0.0469,-0.0165 0.31144,-0.0165 0.0579,0 0.17363,-0.0193 0.11575,-0.0221 0.16812,-0.0221 0.0358,0 0.0358,0.0524 0,0.25907 -0.0221,0.77997 -0.0193,0.51814 -0.0193,0.77721 0,0.0634 0.0221,0.0661 0.14056,-0.11851 0.3638,-0.28663 0.27009,-0.16812 0.5705,-0.16812 0.51815,0 0.71383,0.30868 0.14056,0.226 0.14056,0.71658 0,0.0854 -0.006,0.26458 -0.003,0.17639 -0.003,0.26183 0,0.17639 0.006,0.52641 0.006,0.35002 0.006,0.52365 z m 1.24575,-3.1998 q 0,0.339 -0.37758,0.339 -0.3831,0 -0.3831,-0.339 0,-0.15158 0.11851,-0.2508 0.11025,-0.0937 0.26459,-0.0937 0.15434,0 0.26458,0.0965 0.113,0.0965 0.113,0.24805 z m -0.0193,0.7469 q 0,0.21221 -0.0276,0.64216 -0.0248,0.42719 -0.0248,0.64217 0,0.20119 0.008,0.60358 0.008,0.39963 0.008,0.59806 0,0.0579 -0.0496,0.0579 h -0.53744 q -0.0579,0 -0.0579,-0.113 0,-0.19017 0.008,-0.5705 0.011,-0.3831 0.011,-0.57602 0,-0.21498 -0.0331,-0.64492 -0.0303,-0.42995 -0.0303,-0.64493 0,-0.0469 0.0579,-0.0469 0.0496,0 0.15158,0.0138 0.10473,0.0138 0.1571,0.0138 0.0524,0 0.15434,-0.0138 0.10473,-0.0138 0.15709,-0.0138 0.0469,0 0.0469,0.0524 z m 3.27972,1.21818 q 0,0.5457 -0.33899,0.95085 -0.36105,0.42994 -0.89848,0.42994 -0.35829,0 -0.63114,-0.1819 -0.11025,-0.0937 -0.22049,-0.18465 -0.0303,0.008 -0.0413,0.16536 -0.008,0.1571 -0.0441,0.1571 h -0.58153 q -0.0331,0 -0.0331,-0.0358 0,0.003 0.006,-0.0496 0.0441,-0.44097 0.0441,-1.68672 0,-0.50987 -0.0441,-1.49655 -0.0276,-0.62838 -0.0276,-0.55121 0,-0.0717 0.0717,-0.0799 0.0992,-0.003 0.2949,-0.011 0.0386,-0.003 0.15709,-0.0193 0.0992,-0.0165 0.15985,-0.0165 0.0441,0 0.0441,0.0634 0,0.0937 -0.0138,0.28663 -0.0138,0.19292 -0.0138,0.28939 0,0.14331 -0.0138,0.4327 -0.011,0.28663 -0.011,0.42995 0,0.10473 0.0386,0.10473 0.0193,0 0.0413,-0.0303 0.30317,-0.37758 0.80202,-0.37758 0.57051,0 0.92329,0.42719 0.33072,0.40239 0.33072,0.98392 z m -0.62287,-0.0248 q 0,-0.32798 -0.2067,-0.57878 -0.22049,-0.26734 -0.54295,-0.26734 -0.33073,0 -0.55122,0.26183 -0.21221,0.24804 -0.21221,0.58429 0,0.34175 0.21221,0.5898 0.22049,0.25907 0.55673,0.25907 0.32522,0 0.54295,-0.26734 0.20119,-0.24805 0.20119,-0.58153 z m 3.35139,-0.12403 q 0,0.20395 -0.17639,0.27285 -0.11851,0.0441 -1.70601,0.16261 0.0358,0.24254 0.26734,0.41341 0.22048,0.16261 0.47404,0.16261 0.43546,0 0.79927,-0.28112 0.0441,-0.0358 0.0882,-0.0717 0.0221,0 0.0276,0.006 0.008,0.006 0.10473,0.19292 0.0965,0.18466 0.0965,0.19844 0,0.0165 -0.0441,0.0634 -0.40515,0.42995 -1.03904,0.42995 -0.63941,0 -1.01975,-0.38034 -0.38034,-0.3831 -0.38034,-1.01975 0,-0.56775 0.3638,-0.98943 0.3831,-0.43822 0.93982,-0.43822 0.51815,0 0.86541,0.38034 0.339,0.36932 0.339,0.89848 z m -0.65595,-0.16812 q 0,-0.22875 -0.1819,-0.40514 -0.17914,-0.17639 -0.40514,-0.17639 -0.25356,0 -0.452,0.20395 -0.19568,0.20395 -0.19568,0.45751 0,0.0579 0.0992,0.0579 0.4079,0 0.97565,-0.0827 0.15985,-0.022 0.15985,-0.0551 z m 3.44785,1.55167 q 0,0.10198 -0.0579,0.10198 -0.0854,0 -0.25907,-0.003 -0.17363,-0.003 -0.25907,-0.003 -0.0689,0 -0.0689,-0.091 0,-0.13229 0.008,-0.39963 0.011,-0.26734 0.011,-0.40238 0,-0.12678 -0.011,-0.3831 -0.008,-0.25907 -0.008,-0.3886 0,-0.4961 -0.46853,-0.4961 -0.15159,0 -0.39688,0.15159 -0.26183,0.1626 -0.26183,0.29765 v 1.63711 q 0,0.0799 -0.0579,0.0799 -0.0854,0 -0.25632,-0.003 -0.17088,-0.003 -0.25631,-0.003 -0.0634,0 -0.0634,-0.0744 v -1.33118 q 0,-0.32522 -0.0358,-1.38355 -0.006,-0.32798 -0.0469,-0.97014 -0.006,-0.0331 -0.006,-0.0441 0,-0.0469 0.0331,-0.0579 0.0469,-0.0165 0.31143,-0.0165 0.0579,0 0.17363,-0.0193 0.11576,-0.0221 0.16813,-0.0221 0.0358,0 0.0358,0.0524 0,0.25907 -0.022,0.77997 -0.0193,0.51814 -0.0193,0.77721 0,0.0634 0.0221,0.0661 0.14056,-0.11851 0.3638,-0.28663 0.2701,-0.16812 0.57051,-0.16812 0.51814,0 0.71382,0.30868 0.14056,0.226 0.14056,0.71658 0,0.0854 -0.006,0.26458 -0.003,0.17639 -0.003,0.26183 0,0.17639 0.006,0.52641 0.006,0.35002 0.006,0.52365 z" id="path18"/>
      </g>
    </g>
  </g>
</svg>
